<?xml version="1.0" encoding="UTF-8" standalone="no"?>
<!DOCTYPE svg PUBLIC "-//W3C//DTD SVG 1.1//EN" "http://www.w3.org/Graphics/SVG/1.1/DTD/svg11.dtd">
<svg width="100%" height="100%" viewBox="0 0 512 512" version="1.1" xmlns="http://www.w3.org/2000/svg" xmlns:xlink="http://www.w3.org/1999/xlink" xml:space="preserve" xmlns:serif="http://www.serif.com/" style="fill-rule:evenodd;clip-rule:evenodd;stroke-linejoin:round;stroke-miterlimit:2;">
    <rect x="-39" y="-17" width="565" height="532" style="fill:rgb(172,15,30);"/>
    <path d="M144.228,21C76.033,21 21,75.887 21,144.081L21,187.41L40.241,187.41C46.969,187.41 52.431,193.23 52.431,200.481L52.431,249.831C52.431,257.082 46.969,262.756 40.241,262.756L21,262.756L21,290.663L40.241,290.663C46.969,290.663 52.431,296.337 52.431,303.588L52.431,353.084C52.431,360.336 46.969,366.009 40.241,366.009L21,366.009L21,367.919C21,436.114 76.033,491 144.228,491L367.919,491C436.114,491 491,436.114 491,367.919L491,366.009L471.759,366.009C465.031,366.009 459.569,360.336 459.569,353.084L459.569,303.588C459.569,296.337 465.031,290.663 471.759,290.663L491,290.663L491,262.756L471.759,262.756C465.031,262.756 459.569,257.082 459.569,249.831L459.569,200.481C459.569,193.23 465.031,187.409 471.759,187.409L491,187.409L491,144.081C491,75.887 436.114,21 367.919,21L144.228,21ZM135.416,44.647C123.385,57.696 116.028,75.073 116.028,94.291L116.028,227.653C116.028,268.286 148.832,301.091 189.466,301.091L322.681,301.091C363.314,301.091 395.972,268.286 395.972,227.653L395.972,94.291C395.972,75.057 388.612,57.7 376.584,44.647C409.442,58.816 432.397,91.53 432.397,129.688L432.397,297.566C432.397,326.549 419.218,352.329 398.469,369.241C401.863,376.294 403.903,384.068 403.903,392.447C403.903,419.438 384.105,441.716 358.225,445.616C371.473,437.77 380.256,423.269 380.256,406.694C380.256,381.691 360.168,361.603 335.166,361.603L176.834,361.603C151.832,361.603 131.744,381.691 131.744,406.694C131.744,423.269 140.526,437.77 153.775,445.616C127.895,441.716 108.097,419.438 108.097,392.447C108.097,384.02 110.101,376.178 113.531,369.094C92.832,352.18 79.603,326.475 79.603,297.566L79.603,129.688C79.603,91.573 102.575,58.842 135.416,44.647L135.416,44.647ZM206.063,54.047L306.084,54.047C336.585,54.047 361.163,78.625 361.163,109.125L361.163,213.406C361.163,243.907 336.585,268.485 306.084,268.485L206.063,268.485C175.562,268.485 150.838,243.907 150.838,213.406L150.838,109.125C150.838,78.625 175.562,54.047 206.063,54.047ZM256,83.128C213.385,83.128 178.891,117.622 178.891,160.238C178.891,202.853 213.385,237.494 256,237.494C298.615,237.494 333.109,202.853 333.109,160.238C333.109,117.622 298.615,83.128 256,83.128ZM256,114.559C281.253,114.559 301.678,134.984 301.678,160.238C301.678,185.491 281.254,206.063 256,206.063C230.746,206.063 210.322,185.491 210.322,160.238C210.322,134.984 230.747,114.559 256,114.559ZM193.872,375.997L318.128,375.997C324.857,375.997 330.319,381.459 330.319,388.187C330.319,394.916 324.857,400.378 318.128,400.378L193.872,400.378C187.143,400.378 181.681,394.916 181.681,388.187C181.681,381.458 187.143,375.997 193.872,375.997Z" style="fill:rgb(242,234,189);fill-rule:nonzero;"/>
</svg>
