<?xml version="1.0" encoding="UTF-8" standalone="no"?>
<!DOCTYPE svg PUBLIC "-//W3C//DTD SVG 1.1//EN" "http://www.w3.org/Graphics/SVG/1.1/DTD/svg11.dtd">
<svg width="100%" height="100%" viewBox="0 0 512 512" version="1.1" xmlns="http://www.w3.org/2000/svg" xmlns:xlink="http://www.w3.org/1999/xlink" xml:space="preserve" xmlns:serif="http://www.serif.com/" style="fill-rule:evenodd;clip-rule:evenodd;stroke-linejoin:round;stroke-miterlimit:2;">
    <rect x="-38" y="-19" width="558" height="534" style="fill:rgb(172,15,30);"/>
    <path d="M257.026,21.002C256.976,21.408 256.942,21.602 256.881,22.03C255.92,28.478 254.17,37.449 252.474,48.761C250.78,60.072 249.147,73.768 248.215,89.445C247.282,105.122 247.043,122.854 248.511,141.438C249.599,156.321 251.812,171.953 254.826,188.438C257.841,204.923 261.749,222.187 265.695,240.431C266.24,242.874 266.759,245.29 267.311,247.775C271.019,264.61 274.468,281.666 277.298,298.741C280.129,315.815 282.25,333.026 283.32,349.853C284.807,374.647 283.861,397.59 281.558,417.415C279.254,437.239 275.698,453.851 272.011,466.764C269.041,477.15 265.976,485.126 263.345,490.852C327.817,490.473 388.749,485.275 442.972,476.018L442.972,446.496C442.972,436.186 451.232,427.99 461.478,427.99L491,427.99L491,393.034C455.64,386.887 428.725,356.14 428.725,319.009C428.725,281.878 455.64,251.01 491,244.838L491,84.011L461.478,84.011C451.232,84.011 442.972,75.815 442.972,65.505L442.972,35.983C419.694,32.009 395.172,28.733 369.682,26.289L369.682,105.748C396.278,114.931 415.36,140.068 415.36,169.785C415.36,193.587 403.062,214.514 384.516,226.625L384.516,337.515L367.332,337.515L367.332,234.704C364.335,235.62 361.238,236.263 358.079,236.76L358.079,407.868L340.748,407.868L340.748,237.347C337.591,237.034 334.508,236.463 331.495,235.732L331.495,303L314.164,303L314.164,228.829C293.583,217.175 279.648,195.124 279.648,169.785C279.648,140.541 298.215,115.726 324.151,106.189L324.151,22.911C302.287,21.693 279.903,21.02 257.029,21.002L257.026,21.002ZM248.655,21.148C184.183,21.527 123.251,26.725 69.028,35.983L69.028,65.504C69.028,75.814 60.768,84.01 50.522,84.01L21,84.01L21,118.966C56.314,125.197 83.275,156.057 83.275,193.138C83.275,230.219 56.315,260.957 21,267.162L21,427.989L50.522,427.989C60.768,427.989 69.028,436.186 69.028,446.496L69.028,476.017C125.112,485.593 188.328,490.959 255.264,490.998C255.372,490.13 255.424,489.619 255.56,488.648C256.556,481.388 258.28,471.298 259.966,458.539C261.209,449.166 262.378,438.393 263.198,426.374L156.273,426.374C142.6,426.374 131.598,416.253 131.598,403.608C131.598,391.754 141.303,382.008 153.776,380.843C154.607,380.765 155.417,380.843 156.273,380.843L264.078,380.843C263.923,376.358 263.513,371.797 263.198,367.184L156.273,367.184C142.6,367.184 131.598,357.062 131.598,344.418C131.598,332.564 141.303,322.817 153.776,321.653C154.607,321.575 155.417,321.653 156.273,321.653L257.763,321.653C257.169,318.2 256.526,314.749 255.853,311.225C255.646,310.123 255.335,308.955 255.119,307.846L156.273,307.846C142.6,307.846 131.598,297.725 131.598,285.081C131.598,273.227 141.303,263.48 153.776,262.316C154.607,262.238 155.417,262.316 156.273,262.316L245.573,262.316C245.122,260.118 244.718,257.893 244.251,255.706C240.198,237.315 236.381,218.677 233.529,200.041C230.676,181.404 228.715,162.808 228.094,144.816C227.403,122.135 228.898,101.404 231.473,83.717C234.04,66.029 237.702,51.373 241.313,40.095C243.873,32.101 246.382,25.892 248.657,21.148L248.655,21.148ZM153.774,53.754C179.666,53.754 200.774,74.863 200.774,100.754C200.774,126.645 179.666,147.607 153.774,147.607C127.882,147.607 106.921,126.646 106.921,100.754C106.921,74.862 127.882,53.754 153.774,53.754ZM137.765,83.423C126.863,83.423 118.084,92.202 118.084,103.104C118.084,114.006 126.863,122.932 137.765,122.932C148.666,122.932 157.593,114.006 157.593,103.104C157.593,92.202 148.667,83.423 137.765,83.423ZM347.501,117.938C318.885,117.938 295.654,141.168 295.654,169.785C295.654,198.402 318.886,221.631 347.501,221.631C376.118,221.631 399.347,198.402 399.347,169.785C399.347,141.168 376.118,117.938 347.501,117.938ZM333.988,138.941C346.253,138.941 356.166,148.855 356.166,161.119C356.166,173.384 346.253,183.297 333.988,183.297C321.725,183.297 311.811,173.384 311.811,161.119C311.811,148.855 321.725,138.941 333.988,138.941Z" style="fill:rgb(242,234,189);fill-rule:nonzero;"/>
</svg>
