<?xml version="1.0" encoding="UTF-8" standalone="no"?>
<!DOCTYPE svg PUBLIC "-//W3C//DTD SVG 1.1//EN" "http://www.w3.org/Graphics/SVG/1.1/DTD/svg11.dtd">
<svg width="100%" height="100%" viewBox="0 0 512 512" version="1.1" xmlns="http://www.w3.org/2000/svg" xmlns:xlink="http://www.w3.org/1999/xlink" xml:space="preserve" xmlns:serif="http://www.serif.com/" style="fill-rule:evenodd;clip-rule:evenodd;stroke-linejoin:round;stroke-miterlimit:2;">
    <rect x="-14" y="-15" width="535" height="614" style="fill:rgb(172,15,30);"/>
    <path d="M75.05,21C45.086,21 21,45.086 21,75.05L21,211.497L92.969,211.497C107.467,211.497 119.113,223.142 119.113,237.641L119.113,244.691L204.3,244.691L204.3,228.975L401.406,228.975C407.95,228.975 413.156,231.683 413.156,235.144L413.156,276.856C413.156,280.316 407.95,283.025 401.406,283.025L204.3,283.025L204.3,267.309L119.112,267.309L119.112,274.359C119.112,288.858 107.467,300.503 92.969,300.503L21,300.503L21,436.803C21,466.767 45.086,491 75.05,491L181.828,491L181.828,391.566L151.572,391.566C134.286,391.566 120.435,377.565 120.435,360.281L120.435,357.931L465.59,357.931C479.693,357.931 491,347.273 491,334.284L491,177.569C491,164.581 479.694,154.069 465.59,154.069L120.435,154.069L120.435,151.572C120.435,134.288 134.286,120.434 151.572,120.434L181.828,120.434L181.828,21L75.05,21L75.05,21ZM204.3,21L204.3,120.434L491,120.434L491,75.05C491,45.086 466.914,21 436.95,21L204.3,21ZM256.881,46.703C257.732,46.617 258.652,46.703 259.525,46.703C273.497,46.703 284.788,57.994 284.788,71.966C284.788,85.938 273.497,97.228 259.525,97.228C245.553,97.228 234.116,85.938 234.116,71.966C234.116,58.867 244.125,47.999 256.881,46.703L256.881,46.703ZM337.222,46.703C338.072,46.617 338.994,46.703 339.866,46.703C353.839,46.703 365.128,57.994 365.128,71.966C365.128,85.938 353.839,97.228 339.866,97.228C325.892,97.228 314.456,85.938 314.456,71.966C314.456,58.867 324.465,47.999 337.222,46.703ZM417.416,46.703C418.267,46.617 419.186,46.703 420.06,46.703C434.031,46.703 445.322,57.994 445.322,71.966C445.322,85.938 434.031,97.228 420.06,97.228C406.089,97.228 394.65,85.938 394.65,71.966C394.65,58.867 404.661,47.999 417.416,46.703ZM204.3,391.566L204.3,491L436.95,491C466.914,491 491,466.767 491,436.803L491,391.566L204.3,391.566ZM259.525,414.772C273.497,414.772 284.788,426.062 284.788,440.034C284.788,454.006 273.497,465.444 259.525,465.444C245.553,465.444 234.116,454.006 234.116,440.034C234.116,426.062 245.553,414.772 259.525,414.772ZM339.866,414.772C353.839,414.772 365.128,426.062 365.128,440.034C365.128,454.006 353.839,465.444 339.866,465.444C325.892,465.444 314.456,454.006 314.456,440.034C314.456,426.062 325.893,414.772 339.866,414.772ZM420.06,414.772C434.032,414.772 445.322,426.062 445.322,440.034C445.322,454.006 434.032,465.444 420.06,465.444C406.088,465.444 394.65,454.006 394.65,440.034C394.65,426.062 406.086,414.772 420.06,414.772Z" style="fill:rgb(242,234,189);fill-rule:nonzero;"/>
</svg>
