<?xml version="1.0" encoding="UTF-8" standalone="no"?>
<!DOCTYPE svg PUBLIC "-//W3C//DTD SVG 1.1//EN" "http://www.w3.org/Graphics/SVG/1.1/DTD/svg11.dtd">
<svg width="100%" height="100%" viewBox="0 0 512 512" version="1.1" xmlns="http://www.w3.org/2000/svg" xmlns:xlink="http://www.w3.org/1999/xlink" xml:space="preserve" xmlns:serif="http://www.serif.com/" style="fill-rule:evenodd;clip-rule:evenodd;stroke-linejoin:round;stroke-miterlimit:2;">
    <rect x="-21" y="-12" width="536" height="531" style="fill:rgb(172,15,30);"/>
    <path d="M256,21C162.086,21 80.953,76.058 43.325,155.684C67.62,151.154 93.719,147.423 121.168,144.522C153.264,105.725 201.714,81.072 256,81.072C310.286,81.072 358.735,105.725 390.831,144.522C418.208,147.422 444.27,151.161 468.528,155.684C430.903,76.058 349.913,21 256,21ZM256,105.159C172.688,105.159 105.159,172.688 105.159,256C105.159,339.312 172.688,406.841 256,406.841C339.312,406.841 406.84,339.312 406.84,256C406.84,172.688 339.311,105.159 256,105.159ZM256,127.778C275.568,127.778 294.192,132.13 310.784,139.969L280.381,192.697C272.806,189.777 264.608,188.144 256,188.144C247.392,188.144 239.194,189.777 231.618,192.697L201.215,140.116C217.848,132.23 236.369,127.778 256,127.778ZM183.003,150.544L213.406,203.272C200.615,213.601 191.694,228.447 189.025,245.425L128.218,245.425C131.433,206.138 152.366,171.803 183.003,150.544ZM328.997,150.544C359.632,171.802 380.565,206.142 383.781,245.425L322.975,245.425C320.305,228.447 311.385,213.601 298.593,203.272L328.997,150.544ZM101.047,174.631C75.952,177.846 52.511,181.773 31.281,186.381C24.477,208.368 21,231.778 21,256C21,280.222 24.477,303.633 31.281,325.619C52.511,330.227 75.952,334.154 101.047,337.369C88.255,313.061 81.072,285.375 81.072,256C81.072,226.625 88.255,198.939 101.047,174.631ZM410.953,174.631C423.745,198.939 430.928,226.625 430.928,256C430.928,285.375 423.745,313.061 410.953,337.369C435.96,334.158 459.376,330.224 480.572,325.619C487.375,303.633 491,280.222 491,256C491,231.778 487.375,208.367 480.572,186.381C459.376,181.776 435.96,177.842 410.953,174.631ZM128.218,266.575L189.025,266.575C191.684,283.486 200.549,298.404 213.259,308.728L183.003,361.456C152.366,340.197 131.433,305.862 128.218,266.575ZM322.975,266.575L383.781,266.575C380.565,305.859 359.632,340.198 328.997,361.456L298.741,308.728C311.451,298.404 320.316,283.486 322.975,266.575L322.975,266.575ZM231.618,319.303C239.194,322.223 247.392,323.856 256,323.856C264.608,323.856 272.806,322.223 280.381,319.303L310.784,372.031C294.192,379.87 275.568,384.222 256,384.222C236.369,384.222 217.848,379.77 201.216,371.884L231.618,319.303L231.618,319.303ZM43.325,356.316C80.953,435.942 162.086,491 256,491C349.914,491 430.903,435.942 468.528,356.316C444.27,360.839 418.208,364.579 390.831,367.478C358.736,406.276 310.286,430.928 256,430.928C201.715,430.928 153.264,406.276 121.168,367.478C93.719,364.577 67.62,360.846 43.325,356.316Z" style="fill:rgb(242,234,189);fill-rule:nonzero;"/>
</svg>
