<?xml version="1.0" encoding="UTF-8" standalone="no"?>
<!DOCTYPE svg PUBLIC "-//W3C//DTD SVG 1.1//EN" "http://www.w3.org/Graphics/SVG/1.1/DTD/svg11.dtd">
<svg width="100%" height="100%" viewBox="0 0 512 512" version="1.1" xmlns="http://www.w3.org/2000/svg" xmlns:xlink="http://www.w3.org/1999/xlink" xml:space="preserve" xmlns:serif="http://www.serif.com/" style="fill-rule:evenodd;clip-rule:evenodd;stroke-linejoin:round;stroke-miterlimit:2;">
    <rect x="0" y="0" width="512" height="512" style="fill:rgb(9,41,59);"/>
    <g>
        <path d="M208,56.643L192,120.643L93.432,134.725L256,175.365L418.568,134.725L320,120.643L304,56.643L276.732,74.823L264.73,122.826L247.27,122.826L235.268,74.822L208,56.643ZM69.379,147.263L16,200.644L64,264.644L89.77,238.874L116.389,159.017L69.379,147.263ZM442.621,147.263L395.611,159.016L422.231,238.873L448,264.643L496,200.643L442.621,147.263ZM133.904,163.395L113.781,223.764L127.591,279.01L247,345.348L247,191.67L133.904,163.395ZM378.096,163.395L265,191.67L265,345.348L384.408,279.01L398.218,223.764L378.096,163.395ZM144,308.715L144,365.029L247,395.656L247,365.937L144,308.715ZM368,308.715L265,365.938L265,395.656L368,365.029L368,308.715ZM144,384.255L144,440.643L247,455.357L247,414.88L144,384.255ZM368,384.255L265,414.88L265,455.358L368,440.644L368,384.255Z" style="fill:rgb(242,234,189);fill-rule:nonzero;"/>
    </g>
</svg>
