<?xml version="1.0" encoding="UTF-8" standalone="no"?>
<!DOCTYPE svg PUBLIC "-//W3C//DTD SVG 1.1//EN" "http://www.w3.org/Graphics/SVG/1.1/DTD/svg11.dtd">
<svg width="100%" height="100%" viewBox="0 0 512 512" version="1.1" xmlns="http://www.w3.org/2000/svg" xmlns:xlink="http://www.w3.org/1999/xlink" xml:space="preserve" xmlns:serif="http://www.serif.com/" style="fill-rule:evenodd;clip-rule:evenodd;stroke-linejoin:round;stroke-miterlimit:2;">
    <g>
        <rect x="-2" y="-3" width="515" height="517" style="fill:rgb(9,41,59);"/>
    </g>
    <path d="M429.725,54.54C426.702,54.634 423.887,55.7 421.565,58.02L421.51,58.076L421.453,58.131C421.453,58.131 306.163,169.416 252.083,227.495C223.806,257.865 195.283,293.188 163.635,330.417L181.361,348.147C218.381,316.367 253.646,287.76 284.749,259.911C343.609,207.208 453.923,90.724 453.923,90.724L454.007,90.634L454.095,90.546C465.585,79.056 446.265,55.428 431.032,54.558C430.597,54.533 430.162,54.527 429.727,54.54L429.725,54.54ZM151.89,344.13C134.292,364.543 115.676,385.402 95.56,406.244L105.887,416.492C126.677,396.352 147.407,377.644 167.715,359.952L151.891,344.129L151.89,344.13ZM71.68,407.906L61.78,417.806L94.432,450.206L104.332,440.306L71.68,407.906Z" style="fill:rgb(242,234,189);fill-rule:nonzero;"/>
</svg>
