<?xml version="1.0" encoding="UTF-8" standalone="no"?>
<!DOCTYPE svg PUBLIC "-//W3C//DTD SVG 1.1//EN" "http://www.w3.org/Graphics/SVG/1.1/DTD/svg11.dtd">
<svg width="100%" height="100%" viewBox="0 0 512 512" version="1.1" xmlns="http://www.w3.org/2000/svg" xmlns:xlink="http://www.w3.org/1999/xlink" xml:space="preserve" xmlns:serif="http://www.serif.com/" style="fill-rule:evenodd;clip-rule:evenodd;stroke-linejoin:round;stroke-miterlimit:2;">
    <g>
        <rect x="-5" y="-3" width="523" height="519" style="fill:rgb(9,41,59);"/>
    </g>
    <path d="M435.41,33.52C460.41,33.52 478.28,64.42 451.93,89.98C445.39,96.32 346.86,188.45 261.22,271.82L229.08,240.06C307.73,156.21 395.73,59.28 407.73,46.8C416.73,37.41 426.53,33.52 435.41,33.52ZM219.82,249.89L251.53,281.24L241.87,290.73L210.54,259.73L219.82,249.89ZM201.25,269.59L232.25,300.21L222.62,309.71L191.94,279.39L201.25,269.59ZM182.61,289.18L213,319.25C209.766,322.483 206.59,325.67 203.47,328.81L173.24,298.93C176.306,295.75 179.43,292.5 182.61,289.18ZM163.83,308.65L193.95,338.42C190.695,341.706 187.54,344.92 184.48,348.06L154.39,318.32C157.547,315.107 160.694,311.884 163.83,308.65ZM144.89,327.94L175.07,357.77C169.61,363.43 164.58,368.74 160.06,373.62C157.03,376.999 152.688,378.916 148.15,378.88C132.23,378.88 114.87,357.34 129.29,343.37C134.547,338.285 139.748,333.141 144.89,327.94ZM117.91,380.35C121.593,384.553 126.034,388.027 131,390.59C129.32,394.819 127.676,399.062 126.07,403.32C119.63,420.45 105.07,420.52 94.47,420.57C81.78,420.63 71.76,420.68 64.05,439.57C62.11,444.34 63.33,446.87 64.78,448.73C73.62,460.02 110.66,465.67 144.05,460.81C163.66,457.95 171.73,452.65 172.56,450.55C172.56,450.55 172.89,448.86 169.74,443.88C166.395,438.996 162.755,434.32 158.84,429.88C155.56,425.98 152.18,421.95 149.3,417.99C144.97,411.99 143.5,403.45 143.47,394.57C145.004,394.781 146.551,394.888 148.1,394.89C151.995,394.896 155.858,394.191 159.5,392.81C159.19,403 161.18,407.12 162.24,408.57C164.79,412.08 167.99,415.89 171.09,419.57C181.9,432.44 192.09,444.57 187.46,456.39C184.74,463.3 175.4,472.39 146.36,476.65C137.414,477.894 128.392,478.506 119.36,478.48C93.43,478.48 63.93,473.63 52.17,458.6C48.27,453.56 44.56,445.16 49.28,433.54C61.03,404.73 81.14,404.64 94.44,404.54C105.9,404.49 108.81,403.84 111.14,397.66C113.47,391.48 115.8,385.53 117.91,380.35Z" style="fill:rgb(242,234,189);fill-rule:nonzero;"/>
</svg>
