<?xml version="1.0" encoding="UTF-8" standalone="no"?>
<!DOCTYPE svg PUBLIC "-//W3C//DTD SVG 1.1//EN" "http://www.w3.org/Graphics/SVG/1.1/DTD/svg11.dtd">
<svg width="100%" height="100%" viewBox="0 0 512 512" version="1.1" xmlns="http://www.w3.org/2000/svg" xmlns:xlink="http://www.w3.org/1999/xlink" xml:space="preserve" xmlns:serif="http://www.serif.com/" style="fill-rule:evenodd;clip-rule:evenodd;stroke-linejoin:round;stroke-miterlimit:2;">
    <g transform="matrix(1.00193,0,0,0.983146,0.0115607,-0.134831)">
        <rect x="-6" y="-8" width="519" height="534" style="fill:rgb(9,41,59);"/>
    </g>
    <path d="M47.656,19.97C31.692,19.97 18.75,32.91 18.75,48.875C18.75,64.84 31.692,77.781 47.656,77.781C51.762,77.786 55.822,76.913 59.563,75.221L375.53,493.405L375.156,493.685L491.436,493.687L491.438,382.937L74.438,59.843C75.825,56.461 76.562,52.756 76.562,48.873C76.562,32.907 63.622,19.968 47.656,19.968L47.656,19.97ZM105.876,29.28C112.954,38.73 114.541,51.63 111.062,64.594L126.969,76.906C130.743,61.868 128.006,47.008 118.124,37.126C114.634,33.646 110.38,31.021 105.874,29.281L105.876,29.28ZM150.5,54.845C159.59,66.972 161.59,83.57 157.063,100.22L177.375,115.97C182.305,96.66 178.817,77.563 166.125,64.875C161.665,60.423 156.267,57.06 150.5,54.845ZM206.188,88C217.57,103.19 220.135,123.934 214.563,144.78L240.125,164.594C246.19,140.404 241.805,116.527 225.905,100.624C220.295,95.017 213.445,90.798 206.187,88L206.188,88ZM30.344,104.813C32.08,109.323 34.7,113.575 38.187,117.063C47.427,126.303 60.987,129.296 75,126.563L62.937,110.625C50.905,113.197 39.127,111.395 30.344,104.812L30.344,104.813ZM268.594,115.187C284.168,135.97 286.731,164.961 277.374,193.469L309.937,218.687C320.092,185.887 315.183,152.775 293.625,131.217C286.503,124.097 277.807,118.734 268.595,115.187L268.594,115.187ZM53.97,151.375C56.19,157.137 59.517,162.545 63.97,167C76.47,179.502 95.178,183.073 114.188,178.47L98.78,158.062C82.322,162.402 65.962,160.362 53.97,151.374L53.97,151.375ZM336.844,153.531C355.536,178.469 358.541,213.298 347.156,247.501L386,277.625C398.347,238.282 392.545,198.515 366.687,172.655C358.187,164.159 347.842,157.762 336.844,153.531ZM419,197.407C441.85,227.897 445.252,270.617 430.906,312.407L477.906,348.813C493.436,300.813 486.621,252.06 455.062,220.501C444.795,210.235 432.284,202.524 419,197.407ZM84.656,209.562C87.45,216.822 91.673,223.636 97.281,229.25C113.561,245.53 138.224,249.78 163.001,243.063L143.531,217.313C121.991,223.641 100.353,221.325 84.657,209.563L84.656,209.562ZM114.344,269.5C117.891,278.7 123.234,287.39 130.344,294.5C151.249,315.407 183.03,320.678 214.844,311.72L190.156,279.03C162.456,287.465 134.532,284.62 114.344,269.5ZM152.656,337.72C156.889,348.723 163.28,359.094 171.781,367.594C196.731,392.544 234.628,398.804 272.595,388.124L243.125,349.156C210.06,359.21 176.755,355.779 152.657,337.719L152.656,337.72ZM196.531,419.875C201.647,433.159 209.358,445.67 219.626,455.938C249.972,486.28 296.192,493.774 342.376,480.5L306.782,433.375C266.529,445.873 225.868,441.858 196.532,419.875L196.531,419.875Z" style="fill:rgb(242,234,189);fill-rule:nonzero;"/>
</svg>
