<?xml version="1.0" encoding="UTF-8" standalone="no"?>
<!DOCTYPE svg PUBLIC "-//W3C//DTD SVG 1.1//EN" "http://www.w3.org/Graphics/SVG/1.1/DTD/svg11.dtd">
<svg width="100%" height="100%" viewBox="0 0 512 512" version="1.1" xmlns="http://www.w3.org/2000/svg" xmlns:xlink="http://www.w3.org/1999/xlink" xml:space="preserve" xmlns:serif="http://www.serif.com/" style="fill-rule:evenodd;clip-rule:evenodd;stroke-linejoin:round;stroke-miterlimit:2;">
    <rect x="-27" y="-52" width="561" height="585" style="fill:rgb(9,41,59);"/>
    <g transform="matrix(0.863577,1.73472e-18,-1.73472e-18,0.863577,-6.06565,59.9348)">
        <g transform="matrix(1,-3.85186e-34,3.85186e-34,1,-1.15797,15.0537)">
            <path d="M473.79,38.21C471.947,36.369 469.914,34.73 467.724,33.32L462.021,43.624L464.437,31.472C459.182,28.912 453.497,28.005 448.334,29.726L447.544,30.516C448.24,38.246 452.487,46.606 458.94,53.06C465.393,59.514 473.754,63.76 481.485,64.456L482.275,63.666C485.102,55.182 480.86,45.282 473.789,38.211L473.79,38.21ZM432.703,45.355L277.92,200.14L284.63,206.85L293.438,215.656L311.861,234.08L466.645,79.297C464.767,78.571 462.931,77.74 461.145,76.809L434.635,90.473L453.245,71.86C450.755,70.011 448.405,67.982 446.213,65.788C440.405,59.981 435.653,53.011 432.703,45.355ZM265.193,212.867L248.973,229.087L297.629,245.304L265.191,212.867L265.193,212.867ZM285.653,260.287L234.743,243.317L223.517,254.542L274.429,271.512L285.653,260.287ZM260.2,285.743L242.35,279.793L231.43,314.513L260.2,285.743ZM225.27,274.1L209.29,268.772L197.41,280.652L217.038,300.282L225.27,274.1ZM218.757,327.23L210.947,319.647L184.681,293.38L29.725,448.333C26.33,458.518 33.125,470.733 42.769,477.657L50.635,481.818C54.985,483.34 59.495,483.665 63.665,482.275L218.755,327.231L218.757,327.23Z" style="fill:rgb(242,234,189);fill-rule:nonzero;"/>
        </g>
        <g transform="matrix(0.387974,-4.33681e-19,4.33681e-19,0.387974,374.123,-46.0495)">
            <path d="M297.87,24.322C257.49,24.696 217.205,37.945 183.793,64.042C257.433,27.032 349.897,39.065 411.34,100.506C472.782,161.946 484.353,253.949 447.342,327.59C504.94,253.852 500.41,147.11 432.572,79.273C395.474,42.175 346.602,23.873 297.869,24.323L297.87,24.322ZM270.62,87.445C233.46,87.865 196.434,101.75 167.645,129.115C227.755,92.71 307.287,100.765 359.185,152.66C411.082,204.558 418.673,283.636 382.265,343.746C438.767,284.306 438.277,190.212 379.955,131.891C349.883,101.82 310.177,87 270.62,87.446L270.62,87.445ZM254.01,146.985C225.706,146.985 197.404,157.782 175.81,179.377C132.62,222.567 132.62,292.591 175.81,335.781C218.998,378.971 289.02,378.971 332.21,335.781C375.4,292.591 375.4,222.568 332.21,179.378C310.616,157.783 282.313,146.985 254.01,146.985ZM121.375,175.385C64.872,234.825 65.823,329.38 124.145,387.701C182.465,446.024 276.561,446.511 336,390.009C275.888,426.419 196.814,418.831 144.916,366.931C93.018,315.031 84.966,235.496 121.376,175.386L121.375,175.385ZM56.297,191.54C-1.3,265.276 3.69,372.48 71.527,440.317C139.365,508.155 246.107,512.683 319.847,455.087C246.205,492.097 154.2,480.527 92.76,419.085C31.32,357.643 19.286,265.177 56.297,191.538L56.297,191.54Z" style="fill:rgb(242,234,189);fill-rule:nonzero;"/>
        </g>
    </g>
</svg>
