<?xml version="1.0" encoding="UTF-8" standalone="no"?>
<!DOCTYPE svg PUBLIC "-//W3C//DTD SVG 1.1//EN" "http://www.w3.org/Graphics/SVG/1.1/DTD/svg11.dtd">
<svg width="100%" height="100%" viewBox="0 0 512 512" version="1.1" xmlns="http://www.w3.org/2000/svg" xmlns:xlink="http://www.w3.org/1999/xlink" xml:space="preserve" xmlns:serif="http://www.serif.com/" style="fill-rule:evenodd;clip-rule:evenodd;stroke-linejoin:round;stroke-miterlimit:2;">
    <path d="M384,22.545L307.271,99.27L332.729,124.728L366,91.457L366,420.543L332.729,387.271L307.271,412.729L384,489.455L460.729,412.729L435.271,387.271L402,420.543L402,91.457L435.271,124.729L460.73,99.27L384,22.545ZM141.557,22.803C118.191,25.838 97.004,53.247 97.004,88.738C97.004,108.296 103.775,125.594 113.699,137.553L125.539,151.816L107.322,155.24C94.422,157.665 84.964,164.48 76.879,175.576C68.794,186.673 62.613,202.134 58.281,219.951C50.438,252.231 48.713,291.644 48.439,326.387L91.307,326.387L103.078,484.223C132.972,490.971 164.889,490.733 193.68,484.248L204.094,326.387L244.91,326.387C244.883,291.219 244.433,251.262 237.326,218.737C233.408,200.804 227.468,185.366 219.286,174.395C211.101,163.425 201.206,156.65 186.723,154.406L168.131,151.526L179.867,136.822C189.362,124.925 195.799,107.825 195.799,88.74C195.799,50.902 172.144,22.896 146.4,22.896L141.557,22.803Z" style="fill:white;fill-rule:nonzero;"/>
    <g>
        <clipPath id="_clip1">
            <path d="M384,22.545L307.271,99.27L332.729,124.728L366,91.457L366,420.543L332.729,387.271L307.271,412.729L384,489.455L460.729,412.729L435.271,387.271L402,420.543L402,91.457L435.271,124.729L460.73,99.27L384,22.545ZM141.557,22.803C118.191,25.838 97.004,53.247 97.004,88.738C97.004,108.296 103.775,125.594 113.699,137.553L125.539,151.816L107.322,155.24C94.422,157.665 84.964,164.48 76.879,175.576C68.794,186.673 62.613,202.134 58.281,219.951C50.438,252.231 48.713,291.644 48.439,326.387L91.307,326.387L103.078,484.223C132.972,490.971 164.889,490.733 193.68,484.248L204.094,326.387L244.91,326.387C244.883,291.219 244.433,251.262 237.326,218.737C233.408,200.804 227.468,185.366 219.286,174.395C211.101,163.425 201.206,156.65 186.723,154.406L168.131,151.526L179.867,136.822C189.362,124.925 195.799,107.825 195.799,88.74C195.799,50.902 172.144,22.896 146.4,22.896L141.557,22.803Z"/>
        </clipPath>
        <g clip-path="url(#_clip1)">
            <path d="M141.557,22.803L146.4,22.896C172.144,22.896 195.799,50.902 195.799,88.74C195.799,107.825 189.362,124.925 179.867,136.822L168.131,151.526L186.723,154.406C201.206,156.65 211.101,163.425 219.286,174.395C227.468,185.366 233.408,200.804 237.326,218.737C244.433,251.262 244.883,291.219 244.91,326.387L204.094,326.387L193.68,484.248C164.889,490.733 132.972,490.971 103.078,484.223L91.307,326.387L48.439,326.387C48.713,291.644 50.438,252.231 58.281,219.951C62.613,202.134 68.794,186.673 76.879,175.576C84.964,164.48 94.422,157.665 107.322,155.24L125.539,151.816L113.699,137.553C103.775,125.594 97.004,108.296 97.004,88.738C97.004,53.247 118.191,25.838 141.557,22.803Z" style="fill:rgb(242,234,189);"/>
            <path d="M384,22.545L460.73,99.27L435.271,124.729L402,91.457L402,420.543L435.271,387.271L460.729,412.729L384,489.455L307.271,412.729L332.729,387.271L366,420.543L366,91.457L332.729,124.728L307.271,99.27L384,22.545Z" style="fill:rgb(242,234,189);"/>
        </g>
    </g>
</svg>
