<?xml version="1.0" encoding="UTF-8" standalone="no"?>
<!DOCTYPE svg PUBLIC "-//W3C//DTD SVG 1.1//EN" "http://www.w3.org/Graphics/SVG/1.1/DTD/svg11.dtd">
<svg width="100%" height="100%" viewBox="0 0 512 512" version="1.1" xmlns="http://www.w3.org/2000/svg" xmlns:xlink="http://www.w3.org/1999/xlink" xml:space="preserve" xmlns:serif="http://www.serif.com/" style="fill-rule:evenodd;clip-rule:evenodd;stroke-linejoin:round;stroke-miterlimit:2;">
    <g>
        <rect x="-10" y="-16" width="533" height="535" style="fill:rgb(9,41,59);"/>
    </g>
    <path d="M406.125,71.563L406.125,100.375L120.875,100.375L68.312,153.5L68.312,230.47L22,403.312L116.438,428.624L128.5,383.594L91.375,373.624L118.219,314.624L267.155,314.624L267.155,314.718L441.685,314.718L441.687,100.373L424.812,100.373L424.812,71.562L406.124,71.562L406.125,71.563ZM460.375,127.531L460.375,180.345L494.531,180.345L494.531,127.53L460.376,127.53L460.375,127.531ZM298.969,135.595L407.779,135.595L407.779,168.565L298.97,168.565L298.97,135.595L298.969,135.595ZM152.75,238.78L178.188,238.78L212.375,280.125L218.5,238.781L267.156,238.781L267.156,295.938L126.75,295.938L152.75,238.782L152.75,238.78ZM296.47,333.25L296.47,372.188L410.625,372.188L410.625,333.25L393.562,333.25L393.562,356.78L374.875,356.78L374.875,333.25L332.595,333.25L332.595,356.78L313.905,356.78L313.905,333.25L296.47,333.25Z" style="fill:rgb(242,234,189);fill-rule:nonzero;"/>
</svg>
