<?xml version="1.0" encoding="UTF-8" standalone="no"?>
<!DOCTYPE svg PUBLIC "-//W3C//DTD SVG 1.1//EN" "http://www.w3.org/Graphics/SVG/1.1/DTD/svg11.dtd">
<svg width="100%" height="100%" viewBox="0 0 512 512" version="1.1" xmlns="http://www.w3.org/2000/svg" xmlns:xlink="http://www.w3.org/1999/xlink" xml:space="preserve" xmlns:serif="http://www.serif.com/" style="fill-rule:evenodd;clip-rule:evenodd;stroke-linejoin:round;stroke-miterlimit:2;">
    <g>
        <rect x="-13" y="-14" width="530" height="531" style="fill:rgb(172,15,30);"/>
    </g>
    <path d="M211.563,18.25C211.075,18.257 210.571,18.287 210.063,18.313L209.813,18.343L209.593,18.343C200.31,18.343 192.536,21.385 189.25,25.219C186.17,28.812 184.512,33.679 189.313,44.405C194.565,52.493 198.728,63.468 202.343,77.53L184.25,82.187C178.15,58.459 170.536,49.187 165.78,47.094C163.404,46.047 161.126,45.951 157.47,47.062C153.81,48.174 149.11,50.737 143.97,54.532C136.112,60.33 131.35,67.746 131.625,73.782C131.837,78.422 134.685,84.604 145.063,91.532C146.047,92.079 147.023,92.614 148.031,93.188L147.938,93.344C150.746,95.027 153.635,96.57 156.595,97.969L148.565,114.843C144.005,112.679 139.897,110.388 136.22,107.999C122.86,100.689 113.1,97.587 108.188,97.999C105.575,98.219 104.131,98.849 102.156,100.812C100.181,102.775 97.87,106.459 95.75,112.374C92.21,122.251 91.72,130.087 94.22,134.154C96.208,137.394 101.428,141.118 114.313,142.404C117.556,142.477 120.993,142.614 124.75,142.78L124.75,142.875C125.1,142.875 125.424,142.878 125.78,142.875L125.97,161.563C122.225,161.598 118.715,161.466 115.375,161.219C104.335,161.142 97.719,162.049 95.219,163.312C93.669,164.092 93.186,164.562 92.312,166.342C91.437,168.122 90.536,171.392 89.936,176.28C89.389,180.752 89.78,183.936 90.656,186.062C91.531,188.189 92.738,189.712 95.968,191.437C102.425,194.887 117.603,197.237 143.154,195.062L144.748,213.687C127.466,215.157 113.968,215.169 103.154,213.219C107.857,228.279 117.714,235.124 128.874,235.124L223.029,235.124C233.575,235.124 242.819,227.379 246.436,212.999L254.499,180.936L264.405,212.499C269.058,227.305 278.648,235.124 287.935,235.124L382.125,235.124C393.321,235.124 403.163,228.228 407.843,213.061C396.893,215.164 383.159,215.195 365.437,213.686L367,195.063C392.55,197.238 407.73,194.888 414.188,191.438C417.418,189.713 418.624,188.19 419.5,186.063C420.376,183.937 420.766,180.753 420.22,176.283C419.62,171.395 418.75,168.125 417.875,166.345C417.001,164.565 416.515,164.095 414.969,163.315C412.469,162.051 405.853,161.145 394.811,161.22C391.473,161.466 387.961,161.598 384.218,161.563L384.373,142.875C384.743,142.878 385.075,142.875 385.436,142.875L385.436,142.781C389.19,142.616 392.606,142.479 395.842,142.407C408.734,141.12 413.977,137.397 415.967,134.157C418.465,130.089 417.974,122.253 414.434,112.377C412.314,106.461 410.004,102.777 408.028,100.813C406.054,98.85 404.61,98.22 401.998,98.001C397.066,97.588 387.251,100.721 373.81,108.095C370.166,110.453 366.096,112.707 361.592,114.845L353.592,97.97C356.869,96.413 359.714,94.878 362.217,93.375L362.122,93.187C363.205,92.572 364.254,91.992 365.31,91.407C375.538,84.529 378.35,78.394 378.56,73.781C378.835,67.747 374.04,60.331 366.185,54.531C361.045,50.738 356.373,48.175 352.715,47.063C349.058,45.953 346.75,46.048 344.372,47.095C342.725,47.819 340.742,49.439 338.592,52.188C338.199,53.091 337.788,53.998 337.342,54.908L336.809,54.626C333.209,60.124 329.323,68.886 325.903,82.189L307.809,77.532C311.861,61.772 316.586,49.877 322.779,41.596C326.095,32.806 324.512,28.483 321.716,25.221C318.429,21.386 310.686,18.345 301.402,18.345L301.152,18.345L300.932,18.313C292.796,17.905 287.426,19.843 282.965,23.188C278.502,26.533 274.889,31.685 272.12,38.188C266.588,51.195 265,69.102 265,82.22L265,82.28L264.844,113.125L264.844,113.25L246.156,113.25L246.156,113.125L245.969,82.281L245.969,82.221C245.969,69.101 244.379,51.196 238.843,38.189C236.073,31.685 232.461,26.533 227.999,23.189C223.816,20.053 218.869,18.139 211.561,18.251L211.563,18.25ZM255.781,236.156C247.931,246.859 236.351,253.812 223.031,253.812L180.095,253.812C182.141,258.087 185.463,261.962 190.157,265.562C203.881,276.088 229.065,282.465 254.22,282.344C279.373,282.222 304.354,275.574 317.813,264.75C322.005,261.378 325.079,257.775 327.093,253.812L287.937,253.812C274.957,253.812 263.737,246.822 255.781,236.156ZM279.188,299.186C271.058,300.402 262.682,300.991 254.313,301.031C245.819,301.073 237.326,300.539 229.063,299.376L229.97,317.156L211.656,317.156L211.656,335.846L230.936,335.846L231.876,353.751L275.812,353.751L276.906,335.845L295.936,335.845L295.938,317.157L278.063,317.157L279.188,299.187L279.188,299.186ZM232.845,372.438L233.751,390.094L218.438,390.094L218.438,408.781L234.72,408.781L235.563,424.781L271.438,424.781L272.406,408.781L287.031,408.781L287.031,390.095L273.564,390.095L274.657,372.439L232.845,372.439L232.845,372.438ZM236.532,443.468L237.346,458.875L222.846,458.875L222.846,477.563L238.283,477.563L239.097,493L267.222,493L268.189,477.562L284.752,477.562L284.752,458.875L269.346,458.875L270.283,443.469L236.533,443.469L236.532,443.468Z" style="fill:rgb(242,234,189);fill-rule:nonzero;"/>
    <g transform="matrix(0.23834,-8.0128e-07,8.0128e-07,0.23834,248.746,107.772)">
        <path d="M413.72,19.395L413.72,118.035L367.604,164.152L333.406,129.952L326.799,136.562L185.279,278.078L298.792,391.588L246.017,444.361L246.019,494.671L264.706,494.671L264.706,452.103L312.006,404.803L333.406,426.203L481.528,278.079L421.363,217.915L488.81,150.465L488.81,19.395L470.123,19.395L470.123,142.725L408.148,204.7L380.816,177.367L432.406,125.777L432.406,19.395L413.72,19.395ZM19.36,30.303L19.36,48.99L205.967,48.99L250.221,93.244C247.574,97.78 246.183,102.94 246.189,108.191C246.189,124.613 259.501,137.927 275.921,137.927C292.341,137.927 305.653,124.613 305.653,108.192C305.653,91.772 292.341,78.462 275.921,78.462C271.778,78.462 267.833,79.312 264.249,80.844L213.709,30.304L19.36,30.304L19.36,30.303ZM19.36,85.781L19.36,104.471L150.486,104.474L194.74,148.728C192.092,153.264 190.699,158.423 190.705,163.675C190.705,180.095 204.017,193.407 220.437,193.407C236.857,193.407 250.17,180.095 250.17,163.675C250.17,147.255 236.858,133.942 220.438,133.942C216.294,133.942 212.35,134.792 208.766,136.324L158.226,85.784L19.362,85.784L19.36,85.781ZM102.746,141.263L19.361,141.265L19.361,159.955L95.007,159.952L139.261,204.212C136.614,208.747 135.222,213.907 135.228,219.158C135.228,235.578 148.54,248.891 164.96,248.891C181.38,248.891 194.69,235.578 194.69,219.157C194.69,202.737 181.38,189.423 164.96,189.423C160.815,189.423 156.87,190.273 153.285,191.806L102.745,141.263L102.746,141.263ZM333.406,156.383L455.1,278.08L333.406,399.77L211.71,278.08L333.406,156.385L333.406,156.383ZM332.152,183.771L237.578,278.345L332.59,373.36L345.805,360.146L264.008,278.346L345.368,196.984L332.152,183.77L332.152,183.771ZM19.362,205.328L19.362,256.536L179.492,416.666L179.492,494.671L198.182,494.671L198.182,384.146L19.362,205.328ZM365.872,213.726L352.66,226.94L404.14,278.422L352.37,330.192L365.588,343.406L430.57,278.422L365.875,213.725L365.872,213.726ZM335.942,246.886C318.492,246.886 304.35,261.033 304.35,278.48C304.35,295.925 318.493,310.07 335.94,310.07C353.39,310.07 367.533,295.925 367.533,278.48C367.533,261.03 353.39,246.885 335.941,246.885L335.942,246.886ZM19.36,295.35L19.36,346.557L114.246,441.437L114.246,494.67L132.934,494.67L132.934,408.92L19.362,295.35L19.36,295.35ZM446.738,368.504C430.318,368.504 417.006,381.816 417.006,398.236C417.006,414.656 430.318,427.971 446.738,427.971C450.732,427.971 454.54,427.177 458.018,425.749L494.638,462.364L494.638,435.937L472.236,413.537C475.015,408.918 476.481,403.627 476.473,398.237C476.473,381.817 463.159,368.505 446.738,368.505L446.738,368.504ZM19.36,386.19L19.36,437.4L50.654,468.69L50.652,494.672L69.34,494.672L69.346,436.176L19.36,386.19ZM391.262,423.986C374.842,423.986 361.529,437.298 361.529,453.719C361.529,470.139 374.839,483.449 391.261,483.449C394.774,483.449 398.143,482.837 401.271,481.719L414.226,494.669L440.656,494.669L416.076,470.091C419.29,465.236 421,459.54 420.993,453.718C420.993,437.296 407.681,423.984 391.261,423.984L391.262,423.986Z" style="fill:rgb(172,15,30);fill-rule:nonzero;"/>
    </g>
</svg>
