<?xml version="1.0" encoding="UTF-8" standalone="no"?>
<!DOCTYPE svg PUBLIC "-//W3C//DTD SVG 1.1//EN" "http://www.w3.org/Graphics/SVG/1.1/DTD/svg11.dtd">
<svg width="100%" height="100%" viewBox="0 0 512 512" version="1.1" xmlns="http://www.w3.org/2000/svg" xmlns:xlink="http://www.w3.org/1999/xlink" xml:space="preserve" xmlns:serif="http://www.serif.com/" style="fill-rule:evenodd;clip-rule:evenodd;stroke-linejoin:round;stroke-miterlimit:2;">
    <path d="M256,43.68C233.5,43.87 205.5,47.37 171.4,55.3L176,66.37C335.9,27.99 355.1,117.6 248.2,139.9C197.2,150.5 188.3,109.7 243.6,102.9C264.1,100.3 283.6,101.6 299.8,106.4C303,103 305.6,98.8 306.7,93.47C287.6,88.28 265.7,86.65 244.4,89.19C152,100.1 164.2,170.6 255.9,153.8C341,138.2 377.7,42.67 256,43.68ZM123.2,55.59C113.1,55.75 99.71,59.51 86.21,66.6C62.27,79.3 47.14,97.7 52.44,107.7C52.73,108.3 53.08,108.8 53.49,109.3C53.66,108.8 53.85,108.3 54.06,107.9C69.24,82.12 110.1,57.98 139.3,62.1C139.3,62 139.2,61.9 139.2,61.9C136.9,57.53 131,55.47 123.2,55.59ZM63.28,126.1C86.23,148.9 163.9,102.7 150,80.2C134.5,55.05 45.83,108.7 63.28,126.1ZM337.6,107.1C335.7,111.3 333.2,115.6 330.2,119.7C329.6,120.4 329,121.2 328.4,121.9C347.8,140.3 349.3,170.4 317.3,210.4C374.4,164.4 368.6,127.9 337.6,107.1ZM358.6,232.5C329.3,267.2 380.4,302.9 380.4,302.9L376.7,336.4L323.9,306.1C323.9,306.1 343.2,374.7 337.9,423C336.8,433 331.3,441 323.2,446C315,451 304.9,452 295.8,449C285.1,445 275.5,442.1 275.4,442L273.8,432.7L283.4,434.3C289.4,435.2 295.7,433.7 300.7,430C305.8,426.4 309.2,420.9 310.2,414.7C310.6,412 311,408.8 309.5,406.7C308.4,405.2 306.9,404.2 305.1,404C286.2,400.9 232.9,392.5 232.9,392.5L242.8,448.8L241.9,449L311.5,474L359.1,467L385.8,491L491.2,491L491.2,428L447.5,400L451,341.2L428.1,288.3L358.6,232.5ZM251.4,242.4L225.1,272.5L308.9,282.3C308.9,282.3 309.8,274.4 310.8,266.4C311.3,261.9 310,257.3 307.1,253.7C304.2,250.1 300.1,247.7 295.4,247.2C277.3,245.3 251.4,242.4 251.4,242.4ZM234.7,292.4L228.2,326.2L307.7,341.6C307.7,341.6 309.3,333.7 310.9,325.6C312.7,316.4 306.7,307.4 297.4,305.4C274.1,300.6 234.7,292.4 234.7,292.4ZM231.8,342L224.8,374.5L301.2,391C301.2,391 302.8,383.3 304.5,375.3C306.5,366 300.6,356.8 291.3,354.8C268.8,349.9 231.8,342 231.8,342Z" style="fill:white;fill-rule:nonzero;"/>
</svg>
