<?xml version="1.0" encoding="UTF-8" standalone="no"?>
<!DOCTYPE svg PUBLIC "-//W3C//DTD SVG 1.1//EN" "http://www.w3.org/Graphics/SVG/1.1/DTD/svg11.dtd">
<svg width="100%" height="100%" viewBox="0 0 512 512" version="1.1" xmlns="http://www.w3.org/2000/svg" xmlns:xlink="http://www.w3.org/1999/xlink" xml:space="preserve" xmlns:serif="http://www.serif.com/" style="fill-rule:evenodd;clip-rule:evenodd;stroke-linejoin:round;stroke-miterlimit:2;">
    <rect x="-47" y="-10" width="584" height="591" style="fill:rgb(9,41,59);"/>
    <path d="M237.58,213.41C237.528,208.455 238.232,203.522 239.67,198.78L222.52,198.78C221.784,198.82 221.19,199.414 221.15,200.15L221.15,214.73C221.049,216.827 221.39,218.923 222.15,220.88C222.25,220.88 222.41,220.78 222.53,220.78L238.11,220.78C237.78,218.337 237.603,215.875 237.58,213.41ZM145.16,396L143.09,409.22L36.37,392.53L38.48,379.05L144.54,395.91L145.16,396ZM394.45,149.78L86.71,149.78C88.79,112.78 105.89,102.78 105.89,102.78L484.16,102.78L484.16,135.31C425.16,132.86 402.84,141.78 394.45,149.78ZM484.03,150.7L484.16,150.7L484.16,177.78L404.16,177.78L404.16,161.01C408.16,157.92 424.84,148.19 484.03,150.7ZM27.84,361.78L146.96,380.78C146.96,380.78 172.75,293.5 183.1,264.99C189.24,248.04 213.01,244.78 224.42,244.78L255.74,244.78C271.8,244.78 285.16,231.09 286.16,213.86L285.96,190.78C285.96,190.779 285.96,190.778 285.96,190.777C285.96,186.937 289.12,183.777 292.96,183.777C293.027,183.777 293.093,183.778 293.16,183.78L389.16,183.78L389.16,165.78L83.64,165.78C80.46,170.1 74.27,171.92 62.37,173.02C35.07,175.56 41.09,192.32 41.09,192.32C42.603,192.131 44.126,192.034 45.65,192.03C55.2,192.03 73.3,194.66 85.39,209.78C99.88,227.86 47.11,304.51 27.84,361.78ZM206.16,200.15C206.159,200.08 206.159,200.009 206.159,199.939C206.159,191.074 213.454,183.779 222.319,183.779C222.389,183.779 222.46,183.779 222.53,183.78L259.84,183.78C259.907,183.779 259.975,183.779 260.042,183.779C268.885,183.779 276.162,191.056 276.162,199.899C276.162,199.982 276.161,200.066 276.16,200.15L276.16,214.73C276.16,226.73 267.05,236.78 257.84,236.78L222.52,236.78C210.52,236.78 206.15,226.89 206.15,214.73L206.15,200.15L206.16,200.15ZM51.16,351.68C48.673,348.785 48.004,344.73 49.43,341.19C61.79,310.96 104.84,212.87 120.29,179.71C126.77,165.81 156.06,165.3 172.6,171.06C186.85,176.06 193.73,185.8 191,197.21C185.54,220.02 154.06,318.08 138.4,362.43C137.07,366.21 133.7,368.58 128.4,369.48C125.931,369.853 123.436,370.024 120.94,369.99C111.03,369.99 97.68,368.04 87.7,365.99C67.81,361.99 55.52,357.17 51.16,351.68ZM134.16,186.36C119.3,218.27 79.16,309.66 65.16,343.31C69.48,345.52 79.41,348.84 94.01,351.57C109.22,354.41 120.3,354.94 124.82,354.45C140.47,309.74 170.82,214.99 175.96,193.62C176.22,192.53 176.83,189.97 170.79,186.98C165.28,184.25 156.71,182.72 148.43,182.98C139.75,183.26 135.06,185.38 134.16,186.36ZM140.02,205.02C140.02,200.467 143.767,196.72 148.32,196.72C152.873,196.72 156.62,200.467 156.62,205.02C156.62,209.573 152.873,213.32 148.32,213.32C148.317,213.32 148.313,213.32 148.31,213.32C143.757,213.32 140.01,209.573 140.01,205.02C140.01,205.02 140.01,205.02 140.01,205.02L140.02,205.02ZM109.23,329.17C109.23,333.723 105.483,337.47 100.93,337.47C96.377,337.47 92.63,333.723 92.63,329.17C92.63,324.617 96.377,320.87 100.93,320.87C105.476,320.881 109.21,324.624 109.21,329.17L109.23,329.17ZM77.99,116L73.4,131.93C72.077,130.805 71.064,129.358 70.46,127.73C69.73,125.34 60.84,109.93 51.04,109.14C61.16,104.53 77.98,116 77.98,116L77.99,116Z" style="fill:rgb(242,234,189);fill-rule:nonzero;"/>
</svg>
