<?xml version="1.0" encoding="UTF-8" standalone="no"?>
<!DOCTYPE svg PUBLIC "-//W3C//DTD SVG 1.1//EN" "http://www.w3.org/Graphics/SVG/1.1/DTD/svg11.dtd">
<svg width="100%" height="100%" viewBox="0 0 512 512" version="1.1" xmlns="http://www.w3.org/2000/svg" xmlns:xlink="http://www.w3.org/1999/xlink" xml:space="preserve" xmlns:serif="http://www.serif.com/" style="fill-rule:evenodd;clip-rule:evenodd;stroke-linejoin:round;stroke-miterlimit:2;">
    <rect x="0" y="0" width="512" height="512" style="fill:rgb(202,21,39);fill-rule:nonzero;"/>
    <path d="M256,25C217.654,25 185,63.034 185,112C185,160.966 217.654,199 256,199C294.346,199 327,160.966 327,112C327,63.034 294.346,25 256,25ZM247,48L265,48L265,55.723C289.195,59.596 308.404,78.805 312.277,103L320,103L320,121L312.277,121C308.404,145.195 289.195,164.404 265,168.277L265,176L247,176L247,168.277C222.805,164.404 203.596,145.195 199.723,121L192,121L192,103L199.723,103C203.596,78.805 222.805,59.596 247,55.723L247,48ZM247,74.04C232.628,77.4 221.398,88.63 218.04,103L247,103L247,74.04ZM265,74.04L265,103L293.96,103C290.6,88.628 279.37,77.398 265,74.04ZM218.04,121C221.398,135.372 232.628,146.602 247,149.96L247,121L218.04,121ZM265,121L265,149.96C279.372,146.602 290.602,135.372 293.96,121L265,121ZM298.6,204.273C286.025,212.368 271.546,217 256,217C240.483,217 226.03,212.385 213.473,204.318C169.135,212.031 141.105,233.382 121.983,270.152C98.098,316.09 89.592,388.232 89.1,487L135,487L135,336L153,336L153,487L359,487L359,336L377,336L377,487L422.94,487C422.65,395.622 417.856,323.5 395.828,275.77C384.448,251.113 368.86,232.872 346.588,220.344C333.301,212.87 317.464,207.447 298.6,204.274L298.6,204.273ZM247,224L265,224L265,233.82C283.095,236.103 299.883,245.6 312.824,258.64C327.914,273.845 338.144,294.175 338.144,315.428L338.144,343L347.428,343L347.428,361L338.143,361L338.143,388.572C338.143,409.858 327.779,430.092 312.65,445.222C299.672,458.199 282.934,467.665 265,470.096L265,480L247,480L247,470.096C229.066,467.666 212.328,458.199 199.35,445.221C184.22,430.093 173.857,409.859 173.857,388.573L173.857,361L164.572,361L164.572,343L173.857,343L173.857,315.386C173.96,294.276 184.309,274.092 199.4,258.928C212.35,245.918 229.054,236.366 247,233.914L247,224ZM265,252.04L265,280.117C274.014,282.441 281.945,288.2 288.074,295.407C296.2,304.959 301.57,317.457 301.57,330.667L301.57,343L320.143,343L320.143,315.428C320.143,300.108 312.288,283.653 300.049,271.32C290.143,261.34 277.609,254.277 264.999,252.04L265,252.04ZM247,252.178C234.546,254.573 222.058,261.678 212.16,271.623C199.867,283.975 191.93,300.363 191.857,315.473L191.857,343L210.43,343L210.43,330.628C210.485,317.494 215.926,305.088 224.043,295.57C230.176,288.38 238.05,282.606 247,280.21L247,252.178ZM265,299.408L265,343L283.57,343L283.57,330.666C283.57,322.542 279.902,313.581 274.363,307.07C271.505,303.71 268.258,301.122 265,299.408ZM247,299.602C243.784,301.349 240.568,303.935 237.738,307.252C232.164,313.787 228.463,322.712 228.43,330.705L228.43,343L247,343L247,299.602ZM191.857,361L191.857,388.572C191.857,403.858 199.777,420.194 212.077,432.494C221.987,442.402 234.513,449.46 247,451.834L247,423.807C238.062,421.429 230.173,415.697 224.023,408.523C215.88,399.023 210.43,386.573 210.43,373.333L210.43,361L191.857,361ZM228.43,361L228.43,373.334C228.43,381.429 232.12,390.311 237.69,396.811C240.53,400.123 243.764,402.701 247,404.437L247,361L228.43,361ZM265,361L265,404.436C268.236,402.699 271.47,400.122 274.31,396.811C279.88,390.311 283.57,381.431 283.57,373.335L283.57,361L265,361ZM301.57,361L301.57,373.334C301.57,386.572 296.12,399.024 287.977,408.524C281.827,415.698 273.937,421.429 265,423.807L265,451.834C277.487,449.46 290.014,442.402 299.922,432.494C312.222,420.194 320.142,403.858 320.142,388.572L320.142,361L301.57,361Z" style="fill:white;fill-rule:nonzero;"/>
    <clipPath id="_clip1">
        <path d="M256,25C217.654,25 185,63.034 185,112C185,160.966 217.654,199 256,199C294.346,199 327,160.966 327,112C327,63.034 294.346,25 256,25ZM247,48L265,48L265,55.723C289.195,59.596 308.404,78.805 312.277,103L320,103L320,121L312.277,121C308.404,145.195 289.195,164.404 265,168.277L265,176L247,176L247,168.277C222.805,164.404 203.596,145.195 199.723,121L192,121L192,103L199.723,103C203.596,78.805 222.805,59.596 247,55.723L247,48ZM247,74.04C232.628,77.4 221.398,88.63 218.04,103L247,103L247,74.04ZM265,74.04L265,103L293.96,103C290.6,88.628 279.37,77.398 265,74.04ZM218.04,121C221.398,135.372 232.628,146.602 247,149.96L247,121L218.04,121ZM265,121L265,149.96C279.372,146.602 290.602,135.372 293.96,121L265,121ZM298.6,204.273C286.025,212.368 271.546,217 256,217C240.483,217 226.03,212.385 213.473,204.318C169.135,212.031 141.105,233.382 121.983,270.152C98.098,316.09 89.592,388.232 89.1,487L135,487L135,336L153,336L153,487L359,487L359,336L377,336L377,487L422.94,487C422.65,395.622 417.856,323.5 395.828,275.77C384.448,251.113 368.86,232.872 346.588,220.344C333.301,212.87 317.464,207.447 298.6,204.274L298.6,204.273ZM247,224L265,224L265,233.82C283.095,236.103 299.883,245.6 312.824,258.64C327.914,273.845 338.144,294.175 338.144,315.428L338.144,343L347.428,343L347.428,361L338.143,361L338.143,388.572C338.143,409.858 327.779,430.092 312.65,445.222C299.672,458.199 282.934,467.665 265,470.096L265,480L247,480L247,470.096C229.066,467.666 212.328,458.199 199.35,445.221C184.22,430.093 173.857,409.859 173.857,388.573L173.857,361L164.572,361L164.572,343L173.857,343L173.857,315.386C173.96,294.276 184.309,274.092 199.4,258.928C212.35,245.918 229.054,236.366 247,233.914L247,224ZM265,252.04L265,280.117C274.014,282.441 281.945,288.2 288.074,295.407C296.2,304.959 301.57,317.457 301.57,330.667L301.57,343L320.143,343L320.143,315.428C320.143,300.108 312.288,283.653 300.049,271.32C290.143,261.34 277.609,254.277 264.999,252.04L265,252.04ZM247,252.178C234.546,254.573 222.058,261.678 212.16,271.623C199.867,283.975 191.93,300.363 191.857,315.473L191.857,343L210.43,343L210.43,330.628C210.485,317.494 215.926,305.088 224.043,295.57C230.176,288.38 238.05,282.606 247,280.21L247,252.178ZM265,299.408L265,343L283.57,343L283.57,330.666C283.57,322.542 279.902,313.581 274.363,307.07C271.505,303.71 268.258,301.122 265,299.408ZM247,299.602C243.784,301.349 240.568,303.935 237.738,307.252C232.164,313.787 228.463,322.712 228.43,330.705L228.43,343L247,343L247,299.602ZM191.857,361L191.857,388.572C191.857,403.858 199.777,420.194 212.077,432.494C221.987,442.402 234.513,449.46 247,451.834L247,423.807C238.062,421.429 230.173,415.697 224.023,408.523C215.88,399.023 210.43,386.573 210.43,373.333L210.43,361L191.857,361ZM228.43,361L228.43,373.334C228.43,381.429 232.12,390.311 237.69,396.811C240.53,400.123 243.764,402.701 247,404.437L247,361L228.43,361ZM265,361L265,404.436C268.236,402.699 271.47,400.122 274.31,396.811C279.88,390.311 283.57,381.431 283.57,373.335L283.57,361L265,361ZM301.57,361L301.57,373.334C301.57,386.572 296.12,399.024 287.977,408.524C281.827,415.698 273.937,421.429 265,423.807L265,451.834C277.487,449.46 290.014,442.402 299.922,432.494C312.222,420.194 320.142,403.858 320.142,388.572L320.142,361L301.57,361Z" clip-rule="nonzero"/>
    </clipPath>
    <g clip-path="url(#_clip1)">
        <path d="M256,25C294.346,25 327,63.034 327,112C327,160.966 294.346,199 256,199C217.654,199 185,160.966 185,112C185,63.034 217.654,25 256,25ZM247,48L247,55.723C222.805,59.596 203.596,78.805 199.723,103L192,103L192,121L199.723,121C203.596,145.195 222.805,164.404 247,168.277L247,176L265,176L265,168.277C289.195,164.404 308.404,145.195 312.277,121L320,121L320,103L312.277,103C308.404,78.805 289.195,59.596 265,55.723L265,48L247,48Z" style="fill:rgb(242,234,189);"/>
        <path d="M265,74.04C279.37,77.398 290.6,88.628 293.96,103L265,103L265,74.04Z" style="fill:rgb(242,234,189);"/>
        <path d="M247,74.04L247,103L218.04,103C221.398,88.63 232.628,77.4 247,74.04Z" style="fill:rgb(242,234,189);"/>
        <path d="M218.04,121L247,121L247,149.96C232.628,146.602 221.398,135.372 218.04,121Z" style="fill:rgb(242,234,189);"/>
        <path d="M265,121L293.96,121C290.602,135.372 279.372,146.602 265,149.96L265,121Z" style="fill:rgb(242,234,189);"/>
        <path d="M298.6,204.274C317.464,207.447 333.301,212.87 346.588,220.344C368.86,232.872 384.448,251.113 395.828,275.77C417.856,323.5 422.65,395.622 422.94,487L377,487L377,336L359,336L359,487L153,487L153,336L135,336L135,487L89.1,487C89.592,388.232 98.098,316.09 121.983,270.152C141.105,233.382 169.135,212.031 213.473,204.318C226.03,212.385 240.483,217 256,217C271.546,217 286.025,212.369 298.6,204.274ZM247,224L247,233.914C229.054,236.366 212.35,245.918 199.4,258.928C184.309,274.092 173.96,294.276 173.857,315.386L173.857,343L164.572,343L164.572,361L173.857,361L173.857,388.573C173.857,409.859 184.22,430.093 199.35,445.221C212.328,458.199 229.066,467.666 247,470.096L247,480L265,480L265,470.096C282.934,467.665 299.672,458.199 312.65,445.222C327.779,430.092 338.143,409.858 338.143,388.572L338.143,361L347.428,361L347.428,343L338.144,343L338.144,315.428C338.144,294.175 327.914,273.845 312.824,258.64C299.883,245.6 283.095,236.103 265,233.82L265,224L247,224Z" style="fill:rgb(242,234,189);"/>
        <path d="M265,252.04C277.61,254.277 290.143,261.34 300.049,271.32C312.288,283.653 320.143,300.108 320.143,315.428L320.143,343L301.57,343L301.57,330.667C301.57,317.457 296.2,304.959 288.074,295.407C281.945,288.2 274.014,282.441 265,280.117L265,252.04Z" style="fill:rgb(242,234,189);"/>
        <path d="M247,252.178L247,280.21C238.05,282.606 230.176,288.38 224.043,295.57C215.926,305.088 210.485,317.494 210.43,330.628L210.43,343L191.857,343L191.857,315.473C191.93,300.363 199.867,283.975 212.16,271.623C222.058,261.678 234.546,254.573 247,252.178Z" style="fill:rgb(242,234,189);"/>
        <path d="M247,299.602L247,343L228.43,343L228.43,330.705C228.463,322.712 232.164,313.787 237.738,307.252C240.568,303.935 243.784,301.349 247,299.602Z" style="fill:rgb(242,234,189);"/>
        <path d="M265,299.408C268.258,301.122 271.505,303.71 274.363,307.07C279.902,313.581 283.57,322.542 283.57,330.666L283.57,343L265,343L265,299.408Z" style="fill:rgb(242,234,189);"/>
        <path d="M265,361L283.57,361L283.57,373.335C283.57,381.431 279.88,390.311 274.31,396.811C271.47,400.122 268.236,402.699 265,404.436L265,361Z" style="fill:rgb(242,234,189);"/>
        <path d="M228.43,361L247,361L247,404.437C243.764,402.701 240.53,400.123 237.69,396.811C232.12,390.311 228.43,381.429 228.43,373.334L228.43,361Z" style="fill:rgb(242,234,189);"/>
        <path d="M191.857,361L210.43,361L210.43,373.333C210.43,386.573 215.88,399.023 224.023,408.523C230.173,415.697 238.062,421.429 247,423.807L247,451.834C234.513,449.46 221.987,442.402 212.077,432.494C199.777,420.194 191.857,403.858 191.857,388.572L191.857,361Z" style="fill:rgb(242,234,189);"/>
        <path d="M301.57,361L320.142,361L320.142,388.572C320.142,403.858 312.222,420.194 299.922,432.494C290.014,442.402 277.487,449.46 265,451.834L265,423.807C273.937,421.429 281.827,415.698 287.977,408.524C296.12,399.024 301.57,386.572 301.57,373.334L301.57,361Z" style="fill:rgb(242,234,189);"/>
    </g>
</svg>
