<?xml version="1.0" encoding="UTF-8" standalone="no"?>
<!DOCTYPE svg PUBLIC "-//W3C//DTD SVG 1.1//EN" "http://www.w3.org/Graphics/SVG/1.1/DTD/svg11.dtd">
<svg width="100%" height="100%" viewBox="0 0 512 512" version="1.1" xmlns="http://www.w3.org/2000/svg" xmlns:xlink="http://www.w3.org/1999/xlink" xml:space="preserve" xmlns:serif="http://www.serif.com/" style="fill-rule:evenodd;clip-rule:evenodd;stroke-linejoin:round;stroke-miterlimit:2;">
    <path d="M293.324,20.738L288.068,183.678L141.478,60.45L188.635,172.61L67.86,91.446L189.37,221.64L21.17,158.567L174.77,304.57L60.885,307.49L220.905,384.58L93.005,399.182L196.91,435.81L157.244,446.486L281.639,476.856L245.431,497.296L489.551,497.296L489.551,405.461L415.206,216.786L489.552,324.651L489.552,280.626L469.44,126.206L452.117,210.769L403.12,55.193L377.33,141L343.295,35.92L349.975,142.797L293.325,20.737L293.324,20.738ZM305.457,137.561L379.221,259.121L394.597,228.888L433.433,370.544L359.487,266.577L369.169,342.599L292.151,321.959L394.669,413.003L360.869,419.587L454.384,473.347L252.372,411.935L316.862,390.035L203.302,332.065L277.314,345.145L156.25,242.18L283.11,279.344L263.15,218.789L332.945,263.039L305.457,137.559L305.457,137.561Z" style="fill:rgb(242,234,189);fill-rule:nonzero;"/>
</svg>
