<?xml version="1.0" encoding="UTF-8" standalone="no"?>
<!DOCTYPE svg PUBLIC "-//W3C//DTD SVG 1.1//EN" "http://www.w3.org/Graphics/SVG/1.1/DTD/svg11.dtd">
<svg width="100%" height="100%" viewBox="0 0 512 512" version="1.1" xmlns="http://www.w3.org/2000/svg" xmlns:xlink="http://www.w3.org/1999/xlink" xml:space="preserve" xmlns:serif="http://www.serif.com/" style="fill-rule:evenodd;clip-rule:evenodd;stroke-linejoin:round;stroke-miterlimit:2;">
    <rect x="-32" y="-20" width="551" height="540" style="fill:rgb(9,41,59);"/>
    <path d="M62.807,19.26L152.941,113.877C145.471,118.737 138.363,124.171 131.698,130.141L66.075,108.121L98.983,169.651C90.803,183.231 84.363,198.158 80.06,214.221C75.2,232.351 73.425,250.586 74.39,268.378L21.235,308.38L83.811,316.027C86.173,322.787 88.949,329.381 92.111,335.781L19.187,366.8L19.187,462.664L109.749,364.224C115.843,372.226 122.641,379.716 130.083,386.59L107.523,439.65L168.839,413.578C176.206,417.325 183.921,420.575 191.949,423.285L149.629,494.535L254.032,494.535L246.949,432.453C256.257,432.483 265.471,431.757 274.516,430.318L308.553,480.768L323.05,415.048C336.54,408.504 349.16,400.228 360.567,390.434L417.599,409.801L394.159,351.556C397.669,345.994 400.873,340.19 403.761,334.171L494.466,397.296L494.466,282.977L418.796,285.734C419.949,278.368 420.611,271.014 420.808,263.711L482.758,227.743L414.425,212.431C405.719,181.458 388.515,153.327 364.79,131.461L477.608,19.261L384.728,19.261L342.423,114.019C335.831,109.701 328.899,105.799 321.646,102.372L313.466,35.418L274.056,87.778C262.83,86.03 251.633,85.408 240.599,85.852C226.019,86.438 211.725,88.88 198.011,92.988L183.001,19.262L62.808,19.262L62.807,19.26ZM246.99,104.37C260.37,104.342 273.977,106.062 287.53,109.693C304.86,114.336 320.695,121.74 334.71,131.289L310.557,185.389L351.58,144.591C360.397,152.608 368.212,161.588 374.908,171.313L344.045,213.21L394.515,210.865C402.31,234.595 404.433,260.449 399.729,286.43L338.372,288.666L388.204,323.346C362.63,379.601 305.874,414.916 244.814,413.768L237.208,347.088L201.732,406.812C168.77,396.629 141.539,376.349 122.545,350.312L164.068,305.178L109.234,328.498C104.459,318.991 100.649,308.985 97.908,298.631L156.608,266.196L93.896,240.906C94.77,233.636 96.158,226.339 98.109,219.058C108.729,179.433 133.733,147.572 165.995,127.581L215.663,179.721L201.731,111.284C214.429,107.346 227.709,105.02 241.271,104.487C243.171,104.413 245.078,104.374 246.989,104.37L246.99,104.37ZM252.22,187.25C212.674,187.25 180.613,219.312 180.613,258.86C180.613,298.406 212.673,330.467 252.221,330.467C291.769,330.467 323.829,298.407 323.829,258.859C323.829,219.309 291.769,187.249 252.222,187.249L252.22,187.25Z" style="fill:rgb(242,234,189);fill-rule:nonzero;"/>
</svg>
