<?xml version="1.0" encoding="UTF-8" standalone="no"?>
<!DOCTYPE svg PUBLIC "-//W3C//DTD SVG 1.1//EN" "http://www.w3.org/Graphics/SVG/1.1/DTD/svg11.dtd">
<svg width="100%" height="100%" viewBox="0 0 512 512" version="1.1" xmlns="http://www.w3.org/2000/svg" xmlns:xlink="http://www.w3.org/1999/xlink" xml:space="preserve" xmlns:serif="http://www.serif.com/" style="fill-rule:evenodd;clip-rule:evenodd;stroke-linejoin:round;stroke-miterlimit:2;">
    <path d="M269,34.19L243.8,40.96C252,85.09 261.9,115.3 286.4,161.2L287.5,163.2L287.2,187.8C290.9,194.1 296.1,199.5 302.6,204.8C326.5,221.3 345.8,230.3 369.2,242.5L361.3,251.1C352.9,260.2 340,263.9 325.3,265.1C313.3,266 300,265 286.4,262.1L286.2,281.5C312.2,289 336.8,291.1 360.4,281.8C375.2,276 385.7,264 394.8,248.1C400.3,238.4 405.2,227.4 409.9,216.2L418.1,186.8L419.7,185.2C455.6,147.7 472.7,116.6 490.6,79.82L476.1,61.02C451.2,98.7 427.6,138.7 388.3,169.9C387.3,171.1 386.3,172.3 385.2,173.5C376.5,183.1 364.3,189.1 351.4,187.6C338.5,186.1 328,177.5 321.6,166.3C318.5,160.8 316.3,154.6 315,148.1C295.4,112 276.3,74.59 269,34.19ZM360,92.2C354.5,92.32 348.8,95.09 343.8,100.6C337.9,106.9 333.4,116.6 332.1,128C330.8,139.4 333,149.9 337.3,157.4C341.4,164.8 347.2,169 353.5,169.7C359.7,170.4 366.3,167.6 372,161.4C377.9,155.1 382.4,145.3 383.7,133.9C385,122.6 382.8,112 378.5,104.6C374.4,97.15 368.6,93.03 362.3,92.31C361.5,92.21 360.7,92.18 360,92.2ZM244,163.3C237,163.3 231.3,164.9 227,167.4C218.3,172.4 215,179.9 217.2,187.5C225.1,215.6 252.7,234.2 282.1,242.5C296.8,246.6 311.8,248.1 323.9,247.1C328.2,246.8 332,246 335.4,245.1C319.5,236.9 304.1,229 291.4,218.8C276,206.5 264.8,189.8 263.3,167.4C256.1,164.6 249.6,163.3 244,163.3ZM430.3,214.1C424.3,228.5 418.3,243.3 410.4,257C400.3,274.7 386.9,290.7 367,298.6C325.4,315.1 283,301.5 242.2,284.9C201.5,268.3 161.2,248.6 123,247.4C87.46,249 53.7,253.9 19.63,262.1L19.63,491.6L187.6,491.6C149.9,463.6 119.8,427.1 115.6,384.3C114.6,372.8 117,360.3 127.1,353.2C135,348.8 143.5,349.2 151.1,352.8C158.2,356.1 164.5,361.2 170.2,366.5C178.5,374.1 185.4,382.4 188.6,386.4C194,385.5 199.9,385 204.9,384.7C205.2,380.6 205.7,375.6 206.6,370.4C207.7,364.4 208.7,357.8 212.2,352.4C217.7,343.9 222.3,339.2 231.2,339.2C238.5,339.1 244.8,343.2 249.5,347.8C254.9,353 259.1,359.6 262.6,366C268.5,376.8 272.3,387.1 273.5,390.4C274.4,390.6 275.2,390.7 276.1,390.8C279.9,391.4 283.8,391.9 287.6,392.5C288.5,389.9 289.8,386.3 291.5,382.7C293.1,379.2 295.1,375.5 298,372.2C300.9,368.8 305.2,365.2 311.4,365.1C318,364.9 322.9,368.6 326.4,372.2C329.8,375.9 332.4,380 334.5,384C337.7,390.3 339.9,396.2 340.8,398.7C347.8,399.1 354.5,399.3 361,399.1C386.6,398.4 406.8,392.6 419.8,377.3C438.6,355.3 452.4,324 454.6,292.5C456.5,264.9 449.9,237.3 430.3,214.1ZM228.2,360.6C224.7,368.6 223.7,376.5 222.9,384.8C232.6,385.2 242.7,386.3 253,387.6C248.4,378 244.4,368 236.9,360.6C232.3,356.2 230.3,356.7 228.2,360.6ZM137.5,368C134.2,370.3 132.8,374.4 133.5,382.7C135.5,395.1 139.3,405.4 143.5,415.5C149.8,404.7 159,397.1 169.9,392.2C161.7,383.6 154.3,374.3 143.5,369.1C141.5,368.3 139.4,367.1 137.5,368ZM305.8,395C310.8,395.7 315.8,396.4 320.8,396.9C312.5,381.5 312.8,378 305.8,395Z" style="fill:white;fill-rule:nonzero;"/>
</svg>
