<?xml version="1.0" encoding="UTF-8" standalone="no"?>
<!DOCTYPE svg PUBLIC "-//W3C//DTD SVG 1.1//EN" "http://www.w3.org/Graphics/SVG/1.1/DTD/svg11.dtd">
<svg width="100%" height="100%" viewBox="0 0 512 512" version="1.1" xmlns="http://www.w3.org/2000/svg" xmlns:xlink="http://www.w3.org/1999/xlink" xml:space="preserve" xmlns:serif="http://www.serif.com/" style="fill-rule:evenodd;clip-rule:evenodd;stroke-linejoin:round;stroke-miterlimit:2;">
    <g>
        <path d="M283.195,35.116C307.759,35.312 340.382,41.271 369.539,52.806C382.959,58.116 393.707,62.578 400.163,66.868C406.619,71.158 408.365,73.713 408.429,78.593C408.481,82.589 408.144,85.323 406.173,88.483C404.201,91.645 400.056,95.719 390.753,100.203L364.247,112.983L393.367,117.218C421.969,121.375 426.781,138.432 426.967,141.068C427.657,150.945 424.385,157.838 411.085,163.338L387.132,173.248L412.072,180.316C426.42,184.381 436.564,196.791 436.562,205.042C436.562,212.642 429.512,223.746 412.342,229.079L384.712,237.662L412.337,246.268C422.687,249.49 430.619,252.213 434.657,255.06C438.695,257.907 439.975,259.53 439.764,266.7C439.467,276.836 434.069,281.712 424.108,286.2C414.146,290.69 400.452,292.925 389.181,294.505C353.379,299.525 318.156,301.47 283.311,294.589L262.981,290.574L273.928,308.172C299.813,349.786 328.122,399.082 333.038,438.598L333.082,438.95L333.154,439.298C338.282,464.268 326.804,475.483 316.182,476.758C310.872,477.398 305.179,475.718 299.867,470.036C294.554,464.356 289.739,454.309 288.431,438.499L288.311,437.051L287.741,435.715C280.017,417.592 261.875,396.073 241.403,374.557C221.306,353.434 199.097,333.045 182.589,319.227C147.059,269.439 136.619,247.727 128.757,234.157C124.8,227.33 120.987,221.957 115.237,217.287C109.487,212.617 102.432,208.793 91.141,202.983L91.101,202.963C87.593,201.18 80.169,189.348 76.381,171.873C72.595,154.397 71.223,132.156 72.941,111.158C74.661,90.158 79.637,70.344 87.128,57.895C90.874,51.671 95.106,47.393 99.521,45.045C103.764,42.79 108.308,42.02 114.435,43.278C124.737,48.121 134.128,52.946 144.613,55.893C155.478,58.947 167.557,59.653 181.313,56.046L181.896,55.893L182.456,55.663C210.956,43.93 254,34.883 283.193,35.113L283.195,35.116Z" style="fill:rgb(122,0,12);fill-rule:nonzero;"/>
    </g>
</svg>
