<?xml version="1.0" encoding="UTF-8" standalone="no"?>
<!DOCTYPE svg PUBLIC "-//W3C//DTD SVG 1.1//EN" "http://www.w3.org/Graphics/SVG/1.1/DTD/svg11.dtd">
<svg width="100%" height="100%" viewBox="0 0 512 512" version="1.1" xmlns="http://www.w3.org/2000/svg" xmlns:xlink="http://www.w3.org/1999/xlink" xml:space="preserve" xmlns:serif="http://www.serif.com/" style="fill-rule:evenodd;clip-rule:evenodd;stroke-linejoin:round;stroke-miterlimit:2;">
    <rect x="0" y="0" width="512" height="512" style="fill:rgb(202,21,39);fill-rule:nonzero;"/>
    <path d="M407,24.98L407,39.02L423,39.02L423,25L407,24.98ZM88.99,25L88.99,39.03L105,39.03L105,25L88.99,25ZM487,57L344.9,57L344.9,72.96L487,72.96L487,57ZM167,57L25,57L25,72.98L167,72.98L167,57ZM423,90.93L406.9,90.93L406.9,118.9L420.6,119L423,119L423,90.93ZM105,91.03L88.97,91.03L88.97,119.1L105,119.1L105,91.03ZM377,136.9L376.9,169L298.4,169L282.4,137L229.6,137L213.6,169.1L135,169L135,137L55.03,137L42.99,185L199,214.4L199,208C199.1,176.6 224.7,151.1 256.1,151C287.4,151 313.1,176.6 313,208C313,212.1 313.1,214.4 313.1,214.4L469,185.1L457,137L377,136.9ZM256.1,169C234.5,169 217.1,186.4 217,208.1C217.1,229.6 234.5,247 256.1,247C277.7,247 295.1,229.6 295,208C295.1,186.5 277.7,169 256.1,169ZM255.9,183C269.7,183 280.9,194.3 281,208C281,221.7 269.7,233.1 256,233C242.3,233 230.9,221.7 231,208.1C231,194.3 242.3,183.1 255.9,183ZM201.2,223.5L215,279L297,279L310.9,223.6C304.1,247.5 282.1,265 256.1,265C230,265 208,247.4 201.2,223.5ZM165.4,227.7L60.35,321.1L144.2,428.8C149.2,423.8 155.5,420 162.4,417.7L100.2,318L188.1,245L184.7,231.6L165.4,227.7ZM346.7,227.9L327.3,231.7L324,245.1L411.8,318.1L349.6,417.7C356.6,420 362.8,423.9 367.9,429L451.7,321.2L346.7,227.9ZM176,433.6C161,433.6 149.1,445.5 149.1,460.3C149.1,475.2 161,487 176.1,487.1C191,487 203,475.1 203,460.3C202.9,445.5 191.1,433.6 176,433.6ZM335.9,433.6C321,433.7 308.9,445.5 309,460.4C309,475.1 320.9,487 336,487C351,487 363,475.2 362.9,460.3C363,445.5 351,433.6 335.9,433.6Z" style="fill:white;fill-rule:nonzero;"/>
    <clipPath id="_clip1">
        <path d="M407,24.98L407,39.02L423,39.02L423,25L407,24.98ZM88.99,25L88.99,39.03L105,39.03L105,25L88.99,25ZM487,57L344.9,57L344.9,72.96L487,72.96L487,57ZM167,57L25,57L25,72.98L167,72.98L167,57ZM423,90.93L406.9,90.93L406.9,118.9L420.6,119L423,119L423,90.93ZM105,91.03L88.97,91.03L88.97,119.1L105,119.1L105,91.03ZM377,136.9L376.9,169L298.4,169L282.4,137L229.6,137L213.6,169.1L135,169L135,137L55.03,137L42.99,185L199,214.4L199,208C199.1,176.6 224.7,151.1 256.1,151C287.4,151 313.1,176.6 313,208C313,212.1 313.1,214.4 313.1,214.4L469,185.1L457,137L377,136.9ZM256.1,169C234.5,169 217.1,186.4 217,208.1C217.1,229.6 234.5,247 256.1,247C277.7,247 295.1,229.6 295,208C295.1,186.5 277.7,169 256.1,169ZM255.9,183C269.7,183 280.9,194.3 281,208C281,221.7 269.7,233.1 256,233C242.3,233 230.9,221.7 231,208.1C231,194.3 242.3,183.1 255.9,183ZM201.2,223.5L215,279L297,279L310.9,223.6C304.1,247.5 282.1,265 256.1,265C230,265 208,247.4 201.2,223.5ZM165.4,227.7L60.35,321.1L144.2,428.8C149.2,423.8 155.5,420 162.4,417.7L100.2,318L188.1,245L184.7,231.6L165.4,227.7ZM346.7,227.9L327.3,231.7L324,245.1L411.8,318.1L349.6,417.7C356.6,420 362.8,423.9 367.9,429L451.7,321.2L346.7,227.9ZM176,433.6C161,433.6 149.1,445.5 149.1,460.3C149.1,475.2 161,487 176.1,487.1C191,487 203,475.1 203,460.3C202.9,445.5 191.1,433.6 176,433.6ZM335.9,433.6C321,433.7 308.9,445.5 309,460.4C309,475.1 320.9,487 336,487C351,487 363,475.2 362.9,460.3C363,445.5 351,433.6 335.9,433.6Z" clip-rule="nonzero"/>
    </clipPath>
    <g clip-path="url(#_clip1)">
        <rect x="344.9" y="57" width="142.1" height="15.96" style="fill:rgb(242,234,189);"/>
        <path d="M407,24.98L423,25L423,39.02L407,39.02L407,24.98Z" style="fill:rgb(242,234,189);"/>
        <path d="M423,90.93L423,119L420.6,119L406.9,118.9L406.9,90.93L423,90.93Z" style="fill:rgb(242,234,189);"/>
        <path d="M377,136.9L457,137L469,185.1L313.1,214.4C313.1,214.4 313,212.1 313,208C313.1,176.6 287.4,151 256.1,151C224.7,151.1 199.1,176.6 199,208L199,214.4L42.99,185L55.03,137L135,137L135,169L213.6,169.1L229.6,137L282.4,137L298.4,169L376.9,169L377,136.9Z" style="fill:rgb(242,234,189);"/>
        <path d="M256.1,169C277.7,169 295.1,186.5 295,208C295.1,229.6 277.7,247 256.1,247C234.5,247 217.1,229.6 217,208.1C217.1,186.4 234.5,169 256.1,169ZM255.9,183C242.3,183.1 231,194.3 231,208.1C230.9,221.7 242.3,233 256,233C269.7,233.1 281,221.7 281,208C280.9,194.3 269.7,183 255.9,183Z" style="fill:rgb(242,234,189);"/>
        <rect x="88.97" y="91.03" width="16.03" height="28.07" style="fill:rgb(242,234,189);"/>
        <rect x="25" y="57" width="142" height="15.98" style="fill:rgb(242,234,189);"/>
        <rect x="88.99" y="25" width="16.01" height="14.03" style="fill:rgb(242,234,189);"/>
        <path d="M165.4,227.7L184.7,231.6L188.1,245L100.2,318L162.4,417.7C155.5,420 149.2,423.8 144.2,428.8L60.35,321.1L165.4,227.7Z" style="fill:rgb(242,234,189);"/>
        <path d="M201.2,223.5C208,247.4 230,265 256.1,265C282.1,265 304.1,247.5 310.9,223.6L297,279L215,279L201.2,223.5Z" style="fill:rgb(242,234,189);"/>
        <path d="M346.7,227.9L451.7,321.2L367.9,429C362.8,423.9 356.6,420 349.6,417.7L411.8,318.1L324,245.1L327.3,231.7L346.7,227.9Z" style="fill:rgb(242,234,189);"/>
        <path d="M335.9,433.6C351,433.6 363,445.5 362.9,460.3C363,475.2 351,487 336,487C320.9,487 309,475.1 309,460.4C308.9,445.5 321,433.7 335.9,433.6Z" style="fill:rgb(242,234,189);"/>
        <path d="M176,433.6C191.1,433.6 202.9,445.5 203,460.3C203,475.1 191,487 176.1,487.1C161,487 149.1,475.2 149.1,460.3C149.1,445.5 161,433.6 176,433.6Z" style="fill:rgb(242,234,189);"/>
    </g>
</svg>
