<?xml version="1.0" encoding="UTF-8" standalone="no"?>
<!DOCTYPE svg PUBLIC "-//W3C//DTD SVG 1.1//EN" "http://www.w3.org/Graphics/SVG/1.1/DTD/svg11.dtd">
<svg width="100%" height="100%" viewBox="0 0 512 512" version="1.1" xmlns="http://www.w3.org/2000/svg" xmlns:xlink="http://www.w3.org/1999/xlink" xml:space="preserve" xmlns:serif="http://www.serif.com/" style="fill-rule:evenodd;clip-rule:evenodd;stroke-linejoin:round;stroke-miterlimit:2;">
    <g>
        <rect x="-7" y="-2" width="531" height="525" style="fill:rgb(172,15,30);"/>
    </g>
    <g transform="matrix(1.84513,-0.370686,0.370686,1.84513,-414.77,177.278)">
        <path d="M301.3,21.08C290.5,21.32 278.1,29.64 267.7,49.3L230.6,119.4L250.4,129.8L277.1,79.4C286.7,97.7 305.3,88.3 314.4,82.2C313.4,82.1 312.3,81.8 311.4,81.2C307.3,79.1 305.7,74 307.9,70L314.1,58.2C316.3,54.2 321.3,52.6 325.4,54.8C326.5,55.4 327.5,56.3 328.2,57.3C328.2,35.62 316.2,20.76 301.3,21.08Z" style="fill:rgb(242,234,189);fill-rule:nonzero;"/>
    </g>
    <g transform="matrix(1.84513,-0.370686,0.370686,1.84513,-414.77,177.278)">
        <path d="M395.6,40.8C382.3,40.96 368.9,52.43 362.9,71.8C364.1,70.6 365.6,69.8 367.3,69.6C371.8,68.8 376.1,71.9 376.9,76.4L379.3,90.7C380.1,95.2 377,99.5 372.5,100.3C371,100.5 369.7,100.4 368.4,100C375.2,109.2 391.9,127.2 408.8,110.9L419.2,173.1L443.3,169.1L428.8,82.9C423.9,53.3 409.8,40.64 395.6,40.8Z" style="fill:rgb(242,234,189);fill-rule:nonzero;"/>
    </g>
    <g transform="matrix(1.84513,-0.370686,0.370686,1.84513,-414.77,177.278)">
        <path d="M222.8,134.1L220.6,138.2L240.4,148.7L242.6,144.6L222.8,134.1Z" style="fill:rgb(242,234,189);fill-rule:nonzero;"/>
    </g>
    <g transform="matrix(1.84513,-0.370686,0.370686,1.84513,-414.77,177.278)">
        <path d="M446.1,185.5L422,189.6L423,195.4L447.1,191.3L446.1,185.5Z" style="fill:rgb(242,234,189);fill-rule:nonzero;"/>
    </g>
</svg>
