<?xml version="1.0" encoding="UTF-8" standalone="no"?>
<!DOCTYPE svg PUBLIC "-//W3C//DTD SVG 1.1//EN" "http://www.w3.org/Graphics/SVG/1.1/DTD/svg11.dtd">
<svg width="100%" height="100%" viewBox="0 0 512 512" version="1.1" xmlns="http://www.w3.org/2000/svg" xmlns:xlink="http://www.w3.org/1999/xlink" xml:space="preserve" xmlns:serif="http://www.serif.com/" style="fill-rule:evenodd;clip-rule:evenodd;stroke-linejoin:round;stroke-miterlimit:2;">
    <rect x="-38" y="-17" width="557" height="541" style="fill:rgb(9,41,59);"/>
    <path d="M16.504,12.025L16.504,163.285L71.434,340.381C71.186,340.469 70.944,340.568 70.697,340.657L160.975,388.405L128.765,428.44L157.582,466.48L247.192,494.426L361.08,494.426L164.297,457.002C166.743,453.142 168.867,449.062 170.623,444.782L496.573,462.892L496.573,413.25L174.946,430.563C175.903,425.829 176.436,420.94 176.509,415.936L496.571,355.432L496.571,304.622L175.771,403.838C175.078,398.806 173.898,393.938 172.308,389.26L496.571,218.77L496.571,153.36L167.35,377.767C165.09,373.505 162.445,369.484 159.47,365.735L496.567,62.836L496.567,12.026L496.565,12.031L456.27,12.031L148.533,354.456C144.793,351.302 140.755,348.496 136.465,346.076L364.578,12.032L298,12.032L125.275,340.862C121.939,339.622 118.492,338.612 114.957,337.825L216.237,12.032L168.35,12.032L107.387,336.505C104.344,336.135 101.247,335.938 98.105,335.921L115.205,12.031L70.235,12.031L88.047,336.497C84.667,336.907 81.354,337.527 78.121,338.347L16.505,12.025L16.504,12.025ZM39.146,361.865C26.513,375.835 18.832,394.371 18.832,414.762C18.832,458.417 54.02,493.605 97.676,493.605C116.861,493.605 134.396,486.795 148.036,475.469L93.621,435.685L123.046,403.261L39.146,361.864L39.146,361.865Z" style="fill:rgb(242,234,189);fill-rule:nonzero;"/>
</svg>
