<?xml version="1.0" encoding="UTF-8" standalone="no"?>
<!DOCTYPE svg PUBLIC "-//W3C//DTD SVG 1.1//EN" "http://www.w3.org/Graphics/SVG/1.1/DTD/svg11.dtd">
<svg width="100%" height="100%" viewBox="0 0 512 512" version="1.1" xmlns="http://www.w3.org/2000/svg" xmlns:xlink="http://www.w3.org/1999/xlink" xml:space="preserve" xmlns:serif="http://www.serif.com/" style="fill-rule:evenodd;clip-rule:evenodd;stroke-linejoin:round;stroke-miterlimit:2;">
    <g>
        <rect x="-11" y="-12" width="529" height="528" style="fill:rgb(9,41,59);"/>
    </g>
    <path d="M466.674,16.34L435.78,47.232L450.106,61.558L481,30.664L466.674,16.34ZM34.418,445.184L80.995,491.761C83.492,494.257 86.881,495.66 90.412,495.66C94.937,495.66 99.164,493.354 101.613,489.548L161.763,396.092L212.907,374.352C212.907,374.352 215.394,352.03 215.94,344.232C216.703,333.427 219.906,322.182 227.573,314.514L390.521,151.564C398.7,143.385 398.7,129.923 390.521,121.744L347.958,79.18C344.674,75.896 340.216,74.049 335.572,74.049C330.928,74.049 326.47,75.896 323.186,79.18L152.316,250.05C150.303,252.063 149.171,254.795 149.171,257.642C149.171,260.489 150.303,263.221 152.316,265.234L175.091,288.009L34.427,428.675C32.234,430.863 31.001,433.837 31.001,436.935C31.001,440.028 32.23,442.997 34.417,445.185L34.418,445.184ZM188.032,262.447C182.07,256.484 183.125,245.767 190.424,238.467L315.697,113.193C322.959,105.931 333.715,104.839 339.677,110.801L345.987,117.111L194.344,268.76L188.034,262.45L188.032,262.447ZM306.965,359.735L327.375,339.325L339.791,306.433L321.406,250.918L328.734,243.588L349.098,305.076C349.433,306.082 349.413,307.173 349.041,308.166L335.731,343.571C335.498,344.191 335.136,344.753 334.668,345.221L312.156,367.731C311.874,368.014 288.204,386.616 288.204,386.616C266.097,376.246 255.737,348.271 262.084,330.056C264.911,321.936 262.124,317.076 257.441,314.862L278.239,294.065L306.965,359.735ZM228.741,390.205L268.094,429.558L239.866,474.175L178.049,412.358L228.741,390.205ZM423.837,65.375L431.967,73.505L402.23,103.239L394.1,95.111L423.808,65.403L423.837,65.375Z" style="fill:rgb(242,234,189);fill-rule:nonzero;"/>
</svg>
