<?xml version="1.0" encoding="UTF-8" standalone="no"?>
<!DOCTYPE svg PUBLIC "-//W3C//DTD SVG 1.1//EN" "http://www.w3.org/Graphics/SVG/1.1/DTD/svg11.dtd">
<svg width="100%" height="100%" viewBox="0 0 512 512" version="1.1" xmlns="http://www.w3.org/2000/svg" xmlns:xlink="http://www.w3.org/1999/xlink" xml:space="preserve" xmlns:serif="http://www.serif.com/" style="fill-rule:evenodd;clip-rule:evenodd;stroke-linejoin:round;stroke-miterlimit:2;">
    <g>
        <rect x="-14" y="-14" width="533" height="528" style="fill:rgb(172,15,30);"/>
    </g>
    <path d="M77.637,19.54L186.354,164.084C145.316,176.7 91.09,152.704 40.102,132.53C80.678,164.646 150.122,197.69 143.764,230.06C137.127,263.85 68.559,279.39 22.699,302.58C68.731,297.534 114.477,281.49 142.849,292.8L18.38,347.136L18.38,367.526L156.768,307.116C158.901,321.376 147.103,344.389 134.725,363.101C156.732,353.021 181.335,341.163 200.248,341.041L111.852,494.815L133.406,494.815L218.646,346.532C219.199,346.966 219.739,347.424 220.262,347.914C253.812,379.384 254.546,435.456 264.15,489.139C274.035,435.123 277.832,369.829 305.996,351.045C322.558,339.998 402.256,380.238 449.592,408.115C427.354,386.363 367.272,334.475 363.912,312.303L493.656,378.296L493.656,357.329L373.928,296.43C389.498,285.346 415.865,285.872 443.608,286.58C419.086,276.962 384.716,262.695 377.842,245.23L493.656,230.38L493.656,211.537L380.154,226.09C394.89,193.313 446.904,165.04 488.204,132.535C438.464,151.801 381.437,188.067 352.284,173.789L493.655,31.177L493.655,19.537L478.88,19.537L338.847,160.8C320.607,130.586 332.082,68.014 335.132,19.54L333.52,19.54C310.903,69.054 293.7,132.87 265,145.722C247.57,153.527 229.704,107.526 217.385,78.518C215.129,108.178 217.427,138.66 202.595,154.588L101.022,19.54L77.637,19.54ZM264.99,164.856C279.45,164.723 293.88,172.392 303.197,184.13L265.597,223.764L233.587,181.082C242.481,169.784 253.744,164.962 264.99,164.857L264.99,164.856ZM201.87,184.71L229.54,221.5L204.627,235.785L215.742,260.982L174.688,278.902C167.584,243.062 172.738,208.877 201.868,184.712L201.87,184.71ZM325.314,190.52C338.611,194.057 348.927,210.526 347.564,223.31L347.562,223.31L306.687,235.51L291.932,237.402L325.314,190.52ZM298.274,251.514L358.678,253.221C362.381,262.824 359.458,276.641 352.028,285.291L318.572,268.276L298.272,251.516L298.274,251.514ZM240.848,270.414L208.028,327.508C192.688,320.335 181.314,309.465 178.443,297.654L240.848,270.414ZM262.385,270.441L314.469,299.111C293.609,334.014 256.372,340.831 226.019,333.704L262.384,270.442L262.385,270.441Z" style="fill:rgb(242,234,189);fill-rule:nonzero;"/>
</svg>
