<?xml version="1.0" encoding="UTF-8" standalone="no"?>
<!DOCTYPE svg PUBLIC "-//W3C//DTD SVG 1.1//EN" "http://www.w3.org/Graphics/SVG/1.1/DTD/svg11.dtd">
<svg width="100%" height="100%" viewBox="0 0 512 512" version="1.1" xmlns="http://www.w3.org/2000/svg" xmlns:xlink="http://www.w3.org/1999/xlink" xml:space="preserve" xmlns:serif="http://www.serif.com/" style="fill-rule:evenodd;clip-rule:evenodd;stroke-linejoin:round;stroke-miterlimit:2;">
    <g>
        <rect x="-74" y="-76" width="623" height="617" style="fill:rgb(172,15,30);"/>
        <path d="M340.162,18.186C330.302,18.324 322.566,21.143 317.472,26.238C308.412,35.296 306.544,52.708 314.154,75.538C321.764,98.37 338.591,125.142 362.724,149.275C386.858,173.409 413.63,190.235 436.461,197.845C459.293,205.455 476.705,203.589 485.763,194.531C492.626,187.669 495.35,176.001 492.963,160.821C491.803,166.134 489.429,171.067 485.521,174.976C479.551,180.944 471.203,183.35 462.745,183.286C454.287,183.223 445.299,180.944 435.847,177.052C416.941,169.268 396.087,154.842 376.627,135.379C357.164,115.917 342.737,95.062 334.952,76.156C331.062,66.704 328.782,57.718 328.719,49.26C328.709,48.143 328.749,47.028 328.829,45.92C332.905,62.557 346.287,83.47 364.565,101.768C395.092,132.294 430.678,146.947 443.397,134.228C443.397,134.228 443.397,134.228 443.397,134.228C456.117,121.508 441.464,85.922 410.937,55.395C388.334,32.804 362.152,18.103 344.934,18.335C343.347,18.22 341.755,18.171 340.164,18.188L340.162,18.186Z" style="fill:rgb(242,234,189);fill-rule:nonzero;"/>
        <path d="M291.395,50.286C284.407,57.116 277.431,64.456 273.152,70.393C267.824,77.785 261.642,84.805 257.43,91.459C253.218,98.112 251.26,103.719 252.107,108.942C263.294,177.875 334.124,248.705 403.057,259.892C408.28,260.739 413.887,258.782 420.541,254.569C427.196,250.357 434.216,244.175 441.608,238.847C447.544,234.567 454.884,227.592 461.716,220.604C451.921,220.499 441.414,218.471 430.771,214.924C404.465,206.154 375.851,187.856 349.999,162.004C324.146,136.15 305.849,107.534 297.079,81.229C293.531,70.586 291.501,60.079 291.396,50.284L291.395,50.286Z" style="fill:rgb(242,234,189);fill-rule:nonzero;"/>
        <path d="M244.005,146.533L49.244,359.31C66.922,403.724 108.274,445.077 152.69,462.756L365.467,267.996C312.147,247.008 264.992,199.853 244.004,146.533L244.005,146.533Z" style="fill:rgb(242,234,189);fill-rule:nonzero;"/>
        <path d="M227.199,244.133C227.796,244.163 228.419,244.227 229.069,244.33C238.606,245.836 246.967,251.308 253.829,258.17C260.691,265.032 266.163,273.393 267.669,282.93C268.489,288.133 266.859,291.534 265.122,295.117C263.386,298.7 261.044,302.344 258.232,306.205C252.606,313.928 245.079,322.427 237.036,330.471C228.993,338.515 220.491,346.044 212.769,351.669C208.907,354.482 205.264,356.824 201.681,358.559C198.098,360.295 194.696,361.929 189.493,361.106C179.957,359.601 171.596,354.129 164.733,347.266C157.871,340.404 152.399,332.044 150.893,322.506C150.073,317.304 151.705,313.902 153.44,310.319C155.177,306.736 157.52,303.093 160.332,299.231C165.957,291.509 173.486,283.007 181.529,274.964C189.572,266.921 198.071,259.394 205.794,253.769C209.654,250.956 213.299,248.614 216.882,246.879C219.569,245.576 222.154,244.332 225.474,244.139C226.048,244.105 226.624,244.103 227.198,244.134L227.199,244.133Z" style="fill:rgb(242,234,189);fill-rule:nonzero;"/>
        <path d="M226.263,262.109C226.538,262.152 226.826,262.212 227.123,262.282C227.207,262.242 226.971,262.22 226.263,262.108L226.263,262.109Z" style="fill:rgb(242,234,189);fill-rule:nonzero;"/>
        <path d="M227.123,262.282C226.985,262.346 226.005,262.456 224.728,263.075C222.653,264.08 219.688,265.913 216.391,268.315C209.794,273.12 201.767,280.177 194.254,287.69C190.61,291.331 187.084,295.089 183.682,298.957L213.042,328.317C216.909,324.914 220.666,321.388 224.307,317.744C231.819,310.231 238.877,302.204 243.681,295.607C246.083,292.309 247.916,289.345 248.921,287.271C249.541,285.995 249.651,285.015 249.714,284.878C248.787,280.978 245.564,275.366 241.099,270.898C236.632,266.433 231.019,263.211 227.119,262.284L227.123,262.282Z" style="fill:rgb(242,234,189);fill-rule:nonzero;"/>
        <path d="M249.716,284.876C249.786,285.172 249.846,285.46 249.89,285.736C249.78,285.026 249.756,284.791 249.717,284.876L249.716,284.876Z" style="fill:rgb(242,234,189);fill-rule:nonzero;"/>
        <path d="M172.524,313.251C171.284,315.144 170.278,316.846 169.64,318.163C169.024,319.435 168.91,320.41 168.848,320.553C169.773,324.453 172.995,330.068 177.463,334.536C181.931,339.004 187.545,342.226 191.445,343.151C191.589,343.088 192.565,342.975 193.835,342.358C195.153,341.718 196.855,340.714 198.748,339.473L172.525,313.25L172.524,313.251Z" style="fill:rgb(242,234,189);fill-rule:nonzero;"/>
        <path d="M191.444,343.151C191.354,343.191 191.587,343.211 192.3,343.323C192.027,343.28 191.74,343.221 191.445,343.151L191.444,343.151Z" style="fill:rgb(242,234,189);fill-rule:nonzero;"/>
        <path d="M168.847,320.554C168.777,320.259 168.717,319.972 168.675,319.698C168.787,320.41 168.807,320.643 168.847,320.553L168.847,320.554Z" style="fill:rgb(242,234,189);fill-rule:nonzero;"/>
        <path d="M35.895,373.893L19.742,391.54C31.396,441.012 70.988,480.604 120.462,492.258L138.107,476.105C94.302,456.21 55.79,417.698 35.895,373.893Z" style="fill:rgb(242,234,189);fill-rule:nonzero;"/>
    </g>
</svg>
