<?xml version="1.0" encoding="UTF-8" standalone="no"?>
<!DOCTYPE svg PUBLIC "-//W3C//DTD SVG 1.1//EN" "http://www.w3.org/Graphics/SVG/1.1/DTD/svg11.dtd">
<svg width="100%" height="100%" viewBox="0 0 512 512" version="1.1" xmlns="http://www.w3.org/2000/svg" xmlns:xlink="http://www.w3.org/1999/xlink" xml:space="preserve" xmlns:serif="http://www.serif.com/" style="fill-rule:evenodd;clip-rule:evenodd;stroke-linejoin:round;stroke-miterlimit:2;">
    <rect x="-39" y="-14" width="555" height="532" style="fill:rgb(9,41,59);"/>
    <path d="M120.208,347.183L119.672,346.569C118.177,352.402 114.931,357.64 110.372,361.574C101.873,369.007 45.389,415.362 30.387,427.658L30.28,427.751C29.373,428.549 28.852,429.7 28.852,430.908C28.852,432.046 29.314,433.137 30.132,433.928L72.502,474.775C73.049,475.279 73.766,475.56 74.51,475.56C75.598,475.56 76.602,474.96 77.118,474.002L131.666,373.742C133.101,371.107 134.876,368.671 136.944,366.497L137.032,366.42L120.208,347.183ZM356.101,174.874L271.816,254.941L244.324,223.504L338.964,140.74L356.699,161.02C360.207,165.034 359.942,171.177 356.101,174.874ZM211.832,327.826C208.915,330.569 205.013,332.024 201.012,331.859C200.26,325.851 199.292,318.536 199.292,318.536L211.267,308.064L215.882,313.34C218.845,316.728 216.963,323.34 211.832,327.826ZM348.95,117.009L354.051,112.548C355.119,111.614 356.767,111.724 357.701,112.792L363.431,119.344L369.389,114.134L377.903,123.869L441.603,68.162L440.31,66.682L474.89,36.44L483.15,45.884L448.568,76.126L447.24,74.606L383.54,130.314L386.443,133.634L371.596,146.618L348.285,119.962C347.849,118.94 348.118,117.745 348.95,117.009ZM173.312,387.886C175.449,388.817 203.119,382.265 204.356,381.183C204.81,380.288 202.237,347.935 201.389,336.375C206.322,336.406 211.089,334.566 214.721,331.227C221.779,325.055 223.786,315.757 219.188,310.5L214.574,305.224L217.222,302.908L220.695,306.88C221.431,307.71 222.488,308.185 223.597,308.185C224.901,308.185 226.121,307.528 226.838,306.439L229.798,301.806L271.516,349.511L297.467,315.786L228.707,237.161L139.217,315.421L133.769,309.191C132.632,307.902 130.637,307.772 129.343,308.904L123.131,314.336C121.834,315.471 121.7,317.472 122.834,318.77L151.348,351.375C171.884,334.189 176.965,345.913 178.856,349.431C180.746,352.949 172.386,387.476 173.321,387.896L173.312,387.886Z" style="fill:rgb(242,234,189);fill-rule:nonzero;"/>
</svg>
