<?xml version="1.0" encoding="UTF-8" standalone="no"?>
<!DOCTYPE svg PUBLIC "-//W3C//DTD SVG 1.1//EN" "http://www.w3.org/Graphics/SVG/1.1/DTD/svg11.dtd">
<svg width="100%" height="100%" viewBox="0 0 512 512" version="1.1" xmlns="http://www.w3.org/2000/svg" xmlns:xlink="http://www.w3.org/1999/xlink" xml:space="preserve" xmlns:serif="http://www.serif.com/" style="fill-rule:evenodd;clip-rule:evenodd;stroke-linejoin:round;stroke-miterlimit:2;">
    <rect x="0" y="0" width="512" height="512" style="fill:rgb(9,41,59);"/>
    <path d="M253.713,25.463L249.553,40.986C147.833,33.02 69.483,164.754 40.46,273.08L51.834,330.53C105.83,169.524 184.77,82.474 254.436,83.35L390.596,119.836L405.02,66.008L253.713,25.465L253.713,25.463ZM418.408,88.243L413.572,106.293L437.818,112.791C436.588,114.431 435.468,116.167 434.465,117.966C429.052,127.664 426.115,140.001 426.115,153.516C426.115,167.029 429.052,179.366 434.465,189.064C439.878,198.762 448.645,206.692 459.925,206.692C471.203,206.692 479.968,198.762 485.381,189.065C490.795,179.365 493.733,167.03 493.733,153.515C493.733,140.003 490.795,127.667 485.383,117.969C481.238,110.544 475.123,104.169 467.427,101.582L467.477,101.392L418.41,88.24L418.408,88.243ZM255.528,102.26C238.723,107.525 222.198,116.37 206.701,128.293L250.185,139.945C258.247,127.461 266.622,116.578 275.163,107.521L255.528,102.261L255.528,102.26ZM296.166,113.148C287.582,121.108 278.639,131.946 269.752,145.188L336.248,163.006C335.173,147.096 332.848,133.236 329.393,122.053L296.166,113.148ZM459.924,119.025C462.154,119.025 465.621,120.908 469.064,127.075C472.504,133.241 475.044,142.819 475.044,153.515C475.044,164.209 472.504,173.789 469.064,179.955C465.621,186.121 462.154,188.005 459.924,188.005C457.694,188.005 454.224,186.121 450.784,179.955C447.342,173.789 444.804,164.209 444.804,153.515C444.804,142.818 447.342,133.238 450.784,127.072C454.224,120.906 457.694,119.025 459.924,119.025ZM350.396,127.68C353.266,139.793 355.074,153.405 355.814,168.248L404.342,181.252C396.882,163.178 386.996,147.255 375.076,134.292L350.396,127.68ZM189.646,143.072C171.59,160.578 155.536,182.492 142.883,207.862L208.913,225.557C218.248,199.964 228.796,176.703 240.139,156.602L189.644,143.072L189.646,143.072ZM259.408,161.766C248.004,181.304 236.978,204.556 227.244,230.469L330.422,258.112C334.95,230.804 337.027,205.154 336.92,182.532L259.408,161.765L259.408,161.766ZM356.186,187.696C355.958,210.776 353.463,236.196 348.75,263.026L419.826,282.07C421.554,253.772 418.609,226.766 411.726,202.578L356.186,187.698L356.186,187.696ZM135.036,225.109C130.561,235.949 126.686,247.319 123.514,259.157C120.746,269.487 118.621,279.775 117.098,289.954L185.138,308.184C187.308,298.144 189.762,287.957 192.523,277.651C195.687,265.844 199.121,254.369 202.777,243.259L135.037,225.109L135.036,225.109ZM220.966,248.132C217.233,259.209 213.741,270.675 210.576,282.487C207.814,292.795 205.393,303 203.286,313.047L309.879,341.607C313.077,331.855 316.083,321.807 318.845,311.499C322.01,299.686 324.722,288.011 327.028,276.552L220.963,248.132L220.966,248.132ZM345.213,281.425C342.823,292.875 340.063,304.528 336.898,316.335C334.138,326.64 331.168,336.692 328.028,346.472L401.113,366.054C404.883,356.477 408.185,346.507 410.953,336.177C414.126,324.337 416.453,312.554 417.996,300.927L345.213,281.425ZM114.957,308.725C112.957,334.233 114.76,358.758 119.817,381.215L173.51,395.6C174.332,374.14 176.977,350.907 181.453,326.543L114.955,308.725L114.957,308.725ZM199.757,331.448C195.451,356.141 193.123,379.57 192.604,400.715L275.297,422.873C285.419,404.301 295.117,382.847 303.734,359.309L199.758,331.449L199.757,331.448ZM322.037,364.211C313.732,387.549 304.407,408.994 294.391,427.991L353.131,443.728C368.736,426.808 382.561,406.47 393.581,383.381L322.038,364.211L322.037,364.211ZM125.65,402.125C133.424,425.168 144.907,445.292 159.393,461.043L179.029,466.305C175.479,451.293 173.559,433.975 173.269,414.885L125.649,402.125L125.65,402.125ZM192.648,420.078C193.278,440.598 195.814,458.262 200.035,471.934L233.252,480.834C243.744,471.104 254.772,457.076 265.578,439.619L192.648,420.077L192.648,420.078ZM284.958,444.811C275.162,461.199 264.84,475.239 254.26,486.464L278.94,493.077C299.363,486.679 319.37,474.995 337.623,458.925L284.957,444.812L284.958,444.811Z" style="fill:white;fill-rule:nonzero;"/>
    <clipPath id="_clip1">
        <path d="M253.713,25.463L249.553,40.986C147.833,33.02 69.483,164.754 40.46,273.08L51.834,330.53C105.83,169.524 184.77,82.474 254.436,83.35L390.596,119.836L405.02,66.008L253.713,25.465L253.713,25.463ZM418.408,88.243L413.572,106.293L437.818,112.791C436.588,114.431 435.468,116.167 434.465,117.966C429.052,127.664 426.115,140.001 426.115,153.516C426.115,167.029 429.052,179.366 434.465,189.064C439.878,198.762 448.645,206.692 459.925,206.692C471.203,206.692 479.968,198.762 485.381,189.065C490.795,179.365 493.733,167.03 493.733,153.515C493.733,140.003 490.795,127.667 485.383,117.969C481.238,110.544 475.123,104.169 467.427,101.582L467.477,101.392L418.41,88.24L418.408,88.243ZM255.528,102.26C238.723,107.525 222.198,116.37 206.701,128.293L250.185,139.945C258.247,127.461 266.622,116.578 275.163,107.521L255.528,102.261L255.528,102.26ZM296.166,113.148C287.582,121.108 278.639,131.946 269.752,145.188L336.248,163.006C335.173,147.096 332.848,133.236 329.393,122.053L296.166,113.148ZM459.924,119.025C462.154,119.025 465.621,120.908 469.064,127.075C472.504,133.241 475.044,142.819 475.044,153.515C475.044,164.209 472.504,173.789 469.064,179.955C465.621,186.121 462.154,188.005 459.924,188.005C457.694,188.005 454.224,186.121 450.784,179.955C447.342,173.789 444.804,164.209 444.804,153.515C444.804,142.818 447.342,133.238 450.784,127.072C454.224,120.906 457.694,119.025 459.924,119.025ZM350.396,127.68C353.266,139.793 355.074,153.405 355.814,168.248L404.342,181.252C396.882,163.178 386.996,147.255 375.076,134.292L350.396,127.68ZM189.646,143.072C171.59,160.578 155.536,182.492 142.883,207.862L208.913,225.557C218.248,199.964 228.796,176.703 240.139,156.602L189.644,143.072L189.646,143.072ZM259.408,161.766C248.004,181.304 236.978,204.556 227.244,230.469L330.422,258.112C334.95,230.804 337.027,205.154 336.92,182.532L259.408,161.765L259.408,161.766ZM356.186,187.696C355.958,210.776 353.463,236.196 348.75,263.026L419.826,282.07C421.554,253.772 418.609,226.766 411.726,202.578L356.186,187.698L356.186,187.696ZM135.036,225.109C130.561,235.949 126.686,247.319 123.514,259.157C120.746,269.487 118.621,279.775 117.098,289.954L185.138,308.184C187.308,298.144 189.762,287.957 192.523,277.651C195.687,265.844 199.121,254.369 202.777,243.259L135.037,225.109L135.036,225.109ZM220.966,248.132C217.233,259.209 213.741,270.675 210.576,282.487C207.814,292.795 205.393,303 203.286,313.047L309.879,341.607C313.077,331.855 316.083,321.807 318.845,311.499C322.01,299.686 324.722,288.011 327.028,276.552L220.963,248.132L220.966,248.132ZM345.213,281.425C342.823,292.875 340.063,304.528 336.898,316.335C334.138,326.64 331.168,336.692 328.028,346.472L401.113,366.054C404.883,356.477 408.185,346.507 410.953,336.177C414.126,324.337 416.453,312.554 417.996,300.927L345.213,281.425ZM114.957,308.725C112.957,334.233 114.76,358.758 119.817,381.215L173.51,395.6C174.332,374.14 176.977,350.907 181.453,326.543L114.955,308.725L114.957,308.725ZM199.757,331.448C195.451,356.141 193.123,379.57 192.604,400.715L275.297,422.873C285.419,404.301 295.117,382.847 303.734,359.309L199.758,331.449L199.757,331.448ZM322.037,364.211C313.732,387.549 304.407,408.994 294.391,427.991L353.131,443.728C368.736,426.808 382.561,406.47 393.581,383.381L322.038,364.211L322.037,364.211ZM125.65,402.125C133.424,425.168 144.907,445.292 159.393,461.043L179.029,466.305C175.479,451.293 173.559,433.975 173.269,414.885L125.649,402.125L125.65,402.125ZM192.648,420.078C193.278,440.598 195.814,458.262 200.035,471.934L233.252,480.834C243.744,471.104 254.772,457.076 265.578,439.619L192.648,420.077L192.648,420.078ZM284.958,444.811C275.162,461.199 264.84,475.239 254.26,486.464L278.94,493.077C299.363,486.679 319.37,474.995 337.623,458.925L284.957,444.812L284.958,444.811Z" clip-rule="nonzero"/>
    </clipPath>
    <g clip-path="url(#_clip1)">
        <path d="M253.713,25.465L405.02,66.008L390.596,119.836L254.436,83.35C184.77,82.474 105.83,169.524 51.834,330.53L40.46,273.08C69.483,164.754 147.833,33.02 249.553,40.986L253.713,25.465Z" style="fill:rgb(9,41,59);"/>
    </g>
    <g>
        <clipPath id="_clip2">
            <path d="M253.713,25.463L249.553,40.986C147.833,33.02 69.483,164.754 40.46,273.08L51.834,330.53C105.83,169.524 184.77,82.474 254.436,83.35L390.596,119.836L405.02,66.008L253.713,25.465L253.713,25.463ZM418.408,88.243L413.572,106.293L437.818,112.791C436.588,114.431 435.468,116.167 434.465,117.966C429.052,127.664 426.115,140.001 426.115,153.516C426.115,167.029 429.052,179.366 434.465,189.064C439.878,198.762 448.645,206.692 459.925,206.692C471.203,206.692 479.968,198.762 485.381,189.065C490.795,179.365 493.733,167.03 493.733,153.515C493.733,140.003 490.795,127.667 485.383,117.969C481.238,110.544 475.123,104.169 467.427,101.582L467.477,101.392L418.41,88.24L418.408,88.243ZM255.528,102.26C238.723,107.525 222.198,116.37 206.701,128.293L250.185,139.945C258.247,127.461 266.622,116.578 275.163,107.521L255.528,102.261L255.528,102.26ZM296.166,113.148C287.582,121.108 278.639,131.946 269.752,145.188L336.248,163.006C335.173,147.096 332.848,133.236 329.393,122.053L296.166,113.148ZM459.924,119.025C462.154,119.025 465.621,120.908 469.064,127.075C472.504,133.241 475.044,142.819 475.044,153.515C475.044,164.209 472.504,173.789 469.064,179.955C465.621,186.121 462.154,188.005 459.924,188.005C457.694,188.005 454.224,186.121 450.784,179.955C447.342,173.789 444.804,164.209 444.804,153.515C444.804,142.818 447.342,133.238 450.784,127.072C454.224,120.906 457.694,119.025 459.924,119.025ZM350.396,127.68C353.266,139.793 355.074,153.405 355.814,168.248L404.342,181.252C396.882,163.178 386.996,147.255 375.076,134.292L350.396,127.68ZM189.646,143.072C171.59,160.578 155.536,182.492 142.883,207.862L208.913,225.557C218.248,199.964 228.796,176.703 240.139,156.602L189.644,143.072L189.646,143.072ZM259.408,161.766C248.004,181.304 236.978,204.556 227.244,230.469L330.422,258.112C334.95,230.804 337.027,205.154 336.92,182.532L259.408,161.765L259.408,161.766ZM356.186,187.696C355.958,210.776 353.463,236.196 348.75,263.026L419.826,282.07C421.554,253.772 418.609,226.766 411.726,202.578L356.186,187.698L356.186,187.696ZM135.036,225.109C130.561,235.949 126.686,247.319 123.514,259.157C120.746,269.487 118.621,279.775 117.098,289.954L185.138,308.184C187.308,298.144 189.762,287.957 192.523,277.651C195.687,265.844 199.121,254.369 202.777,243.259L135.037,225.109L135.036,225.109ZM220.966,248.132C217.233,259.209 213.741,270.675 210.576,282.487C207.814,292.795 205.393,303 203.286,313.047L309.879,341.607C313.077,331.855 316.083,321.807 318.845,311.499C322.01,299.686 324.722,288.011 327.028,276.552L220.963,248.132L220.966,248.132ZM345.213,281.425C342.823,292.875 340.063,304.528 336.898,316.335C334.138,326.64 331.168,336.692 328.028,346.472L401.113,366.054C404.883,356.477 408.185,346.507 410.953,336.177C414.126,324.337 416.453,312.554 417.996,300.927L345.213,281.425ZM114.957,308.725C112.957,334.233 114.76,358.758 119.817,381.215L173.51,395.6C174.332,374.14 176.977,350.907 181.453,326.543L114.955,308.725L114.957,308.725ZM199.757,331.448C195.451,356.141 193.123,379.57 192.604,400.715L275.297,422.873C285.419,404.301 295.117,382.847 303.734,359.309L199.758,331.449L199.757,331.448ZM322.037,364.211C313.732,387.549 304.407,408.994 294.391,427.991L353.131,443.728C368.736,426.808 382.561,406.47 393.581,383.381L322.038,364.211L322.037,364.211ZM125.65,402.125C133.424,425.168 144.907,445.292 159.393,461.043L179.029,466.305C175.479,451.293 173.559,433.975 173.269,414.885L125.649,402.125L125.65,402.125ZM192.648,420.078C193.278,440.598 195.814,458.262 200.035,471.934L233.252,480.834C243.744,471.104 254.772,457.076 265.578,439.619L192.648,420.077L192.648,420.078ZM284.958,444.811C275.162,461.199 264.84,475.239 254.26,486.464L278.94,493.077C299.363,486.679 319.37,474.995 337.623,458.925L284.957,444.812L284.958,444.811Z"/>
        </clipPath>
        <g clip-path="url(#_clip2)">
            <path d="M253.713,25.465L405.02,66.008L390.596,119.836L254.436,83.35C184.77,82.474 105.83,169.524 51.834,330.53L40.46,273.08C69.483,164.754 147.833,33.02 249.553,40.986L253.713,25.465Z" style="fill:rgb(242,234,189);"/>
            <path d="M418.408,88.243L418.41,88.24L467.477,101.392L467.427,101.582C475.123,104.169 481.238,110.544 485.383,117.969C490.795,127.667 493.733,140.003 493.733,153.515C493.733,167.03 490.795,179.365 485.381,189.065C479.968,198.762 471.203,206.692 459.925,206.692C448.645,206.692 439.878,198.762 434.465,189.064C429.052,179.366 426.115,167.029 426.115,153.516C426.115,140.001 429.052,127.664 434.465,117.966C435.468,116.167 436.588,114.431 437.818,112.791L413.572,106.293L418.408,88.243ZM459.924,119.025C457.694,119.025 454.224,120.906 450.784,127.072C447.342,133.238 444.804,142.818 444.804,153.515C444.804,164.209 447.342,173.789 450.784,179.955C454.224,186.121 457.694,188.005 459.924,188.005C462.154,188.005 465.621,186.121 469.064,179.955C472.504,173.789 475.044,164.209 475.044,153.515C475.044,142.819 472.504,133.241 469.064,127.075C465.621,120.908 462.154,119.025 459.924,119.025Z" style="fill:rgb(242,234,189);"/>
            <path d="M255.528,102.26L275.163,107.521C266.622,116.578 258.247,127.461 250.185,139.945L206.701,128.293C222.198,116.37 238.723,107.525 255.528,102.26Z" style="fill:rgb(242,234,189);"/>
            <path d="M296.166,113.148L329.393,122.053C332.848,133.236 335.173,147.096 336.248,163.006L269.752,145.188C278.639,131.946 287.582,121.108 296.166,113.148Z" style="fill:rgb(242,234,189);"/>
            <path d="M350.396,127.68L375.076,134.292C386.996,147.255 396.882,163.178 404.342,181.252L355.814,168.248C355.074,153.405 353.266,139.793 350.396,127.68Z" style="fill:rgb(242,234,189);"/>
            <path d="M356.186,187.698L411.726,202.578C418.609,226.766 421.554,253.772 419.826,282.07L348.75,263.026C353.463,236.197 355.958,210.777 356.186,187.698Z" style="fill:rgb(242,234,189);"/>
            <path d="M259.408,161.765L336.92,182.532C337.027,205.154 334.95,230.804 330.422,258.112L227.244,230.469C236.978,204.556 248.004,181.303 259.408,161.765Z" style="fill:rgb(242,234,189);"/>
            <path d="M189.646,143.072L240.139,156.602C228.796,176.703 218.248,199.964 208.913,225.557L142.883,207.862C155.536,182.492 171.59,160.578 189.646,143.072Z" style="fill:rgb(242,234,189);"/>
            <path d="M135.037,225.109L202.777,243.259C199.121,254.369 195.687,265.844 192.523,277.651C189.762,287.957 187.308,298.144 185.138,308.184L117.098,289.954C118.621,279.775 120.746,269.487 123.514,259.157C126.686,247.319 130.561,235.949 135.037,225.109Z" style="fill:rgb(242,234,189);"/>
            <path d="M220.966,248.132L327.028,276.552C324.722,288.011 322.01,299.686 318.845,311.499C316.083,321.807 313.077,331.855 309.879,341.607L203.286,313.047C205.393,303 207.814,292.795 210.576,282.487C213.741,270.675 217.233,259.209 220.966,248.132Z" style="fill:rgb(242,234,189);"/>
            <path d="M345.213,281.425L417.996,300.927C416.453,312.554 414.126,324.337 410.953,336.177C408.185,346.507 404.883,356.477 401.113,366.054L328.028,346.472C331.168,336.692 334.138,326.64 336.898,316.335C340.063,304.528 342.823,292.875 345.213,281.425Z" style="fill:rgb(242,234,189);"/>
            <path d="M322.037,364.211L393.581,383.381C382.561,406.47 368.736,426.808 353.131,443.728L294.391,427.991C304.407,408.994 313.732,387.549 322.037,364.211Z" style="fill:rgb(242,234,189);"/>
            <path d="M199.757,331.448L303.734,359.309C295.117,382.847 285.419,404.301 275.297,422.873L192.604,400.715C193.123,379.57 195.451,356.141 199.757,331.448Z" style="fill:rgb(242,234,189);"/>
            <path d="M114.957,308.725L181.453,326.543C176.977,350.907 174.332,374.14 173.51,395.6L119.817,381.215C114.76,358.758 112.957,334.233 114.957,308.725Z" style="fill:rgb(242,234,189);"/>
            <path d="M125.65,402.125L173.269,414.885C173.559,433.975 175.479,451.293 179.029,466.305L159.393,461.043C144.907,445.292 133.424,425.168 125.65,402.125Z" style="fill:rgb(242,234,189);"/>
            <path d="M192.648,420.077L265.578,439.619C254.772,457.076 243.744,471.104 233.252,480.834L200.035,471.934C195.814,458.262 193.278,440.597 192.648,420.077Z" style="fill:rgb(242,234,189);"/>
            <path d="M284.958,444.812L337.623,458.925C319.37,474.995 299.363,486.679 278.94,493.077L254.26,486.464C264.84,475.239 275.162,461.2 284.958,444.812Z" style="fill:rgb(242,234,189);"/>
        </g>
    </g>
</svg>
