<?xml version="1.0" encoding="UTF-8" standalone="no"?>
<!DOCTYPE svg PUBLIC "-//W3C//DTD SVG 1.1//EN" "http://www.w3.org/Graphics/SVG/1.1/DTD/svg11.dtd">
<svg width="100%" height="100%" viewBox="0 0 512 512" version="1.1" xmlns="http://www.w3.org/2000/svg" xmlns:xlink="http://www.w3.org/1999/xlink" xml:space="preserve" xmlns:serif="http://www.serif.com/" style="fill-rule:evenodd;clip-rule:evenodd;stroke-linejoin:round;stroke-miterlimit:2;">
    <path d="M33.385,18.482L213.203,198.302C229.195,185.802 246.057,176.97 262.211,172.418C268.321,170.696 274.421,169.591 280.353,169.186L129.646,18.482L33.385,18.482ZM18.1,94.508L18.1,116.922L162.033,260.855C164.317,256.002 166.931,251.141 169.903,246.311L18.1,94.51L18.1,94.508ZM18.1,143.352L18.1,165.07L151.613,298.584C151.97,292.534 153.067,286.302 154.805,280.057L18.1,143.352ZM285.86,187.66C280.326,187.6 274.1,188.484 267.28,190.406C249.093,195.531 227.914,208.051 209.22,226.744C190.527,245.437 178.006,266.618 172.88,284.804C167.756,302.991 170.015,316.958 177.863,324.807C185.711,332.655 199.679,334.914 217.865,329.789C220.655,329.002 223.522,328.022 226.435,326.892C221.989,362.197 229.269,408.245 248.705,464.269C255.747,357.209 288.915,387.134 333.051,483.136C307.433,377.5 384.004,410.823 484.784,491.331C402.126,395.285 379.914,328.567 495.308,356.673C382.128,315.723 364.438,274.795 462.216,271.703C398.711,248.33 347.536,239.537 309.212,244.358C310.412,241.308 311.442,238.308 312.266,235.388C317.39,217.202 315.133,203.233 307.286,195.385C302.38,190.48 295.083,187.758 285.861,187.658L285.86,187.66ZM270.23,208.588C277.237,208.672 283.268,210.77 287.588,215.09C294.83,222.332 295.815,234.385 291.548,247.79C259.304,256.503 238.603,277.225 229.895,309.148C216.661,313.258 204.785,312.221 197.621,305.058C183.799,291.234 192.733,259.888 217.577,235.045C234.657,217.965 254.81,208.403 270.23,208.588Z" style="fill:white;fill-rule:nonzero;"/>
</svg>
