<?xml version="1.0" encoding="UTF-8" standalone="no"?>
<!DOCTYPE svg PUBLIC "-//W3C//DTD SVG 1.1//EN" "http://www.w3.org/Graphics/SVG/1.1/DTD/svg11.dtd">
<svg width="100%" height="100%" viewBox="0 0 512 512" version="1.1" xmlns="http://www.w3.org/2000/svg" xmlns:xlink="http://www.w3.org/1999/xlink" xml:space="preserve" xmlns:serif="http://www.serif.com/" style="fill-rule:evenodd;clip-rule:evenodd;stroke-linejoin:round;stroke-miterlimit:2;">
    <g>
        <rect x="-27" y="-19" width="565" height="574" style="fill:rgb(9,41,59);"/>
    </g>
    <path d="M235.03,28.875L178.312,53.595L283.062,158.345C303.206,178.481 303.206,211.45 283.062,231.595C262.92,251.737 229.952,251.735 209.812,231.595L105.375,127.155L84.687,178.937C113.004,210 131.48,257.957 135,307.375C136.212,324.385 135.622,341.623 132.906,358.345C281.946,338.768 400.022,221.275 418.437,74.875C400.647,78.293 382.324,79.321 364.281,78.281C314.291,75.401 266.144,57.126 235.031,28.876L235.03,28.875ZM493.03,41.219C476.61,54.623 457.777,64.069 437.813,70.124C421.063,230.402 291.493,359.369 128.75,377.687C128.75,377.689 128.72,377.684 128.72,377.687C123.293,397.544 114.49,416.212 101.72,432.312C179.53,431.15 250.613,409.996 310.22,373.624L416.875,380.187L419,273.625C465.883,209.382 492.995,129.48 493.03,41.219ZM203.625,105.343L156.75,152.093L201.156,196.499L248.031,149.749L203.626,105.343L203.625,105.343ZM90.155,218.53L19.97,288.563L19.97,377.345L113.22,284.282C108.84,260.418 100.775,237.622 90.156,218.532L90.155,218.53Z" style="fill:rgb(242,234,189);fill-rule:nonzero;"/>
</svg>
