<?xml version="1.0" encoding="UTF-8" standalone="no"?>
<!DOCTYPE svg PUBLIC "-//W3C//DTD SVG 1.1//EN" "http://www.w3.org/Graphics/SVG/1.1/DTD/svg11.dtd">
<svg width="100%" height="100%" viewBox="0 0 512 512" version="1.1" xmlns="http://www.w3.org/2000/svg" xmlns:xlink="http://www.w3.org/1999/xlink" xml:space="preserve" xmlns:serif="http://www.serif.com/" style="fill-rule:evenodd;clip-rule:evenodd;stroke-linejoin:round;stroke-miterlimit:2;">
    <g>
        <rect x="-14" y="-11" width="533" height="526" style="fill:rgb(9,41,59);"/>
    </g>
    <path d="M19.5,12.28C108.218,26.468 183.626,81.134 236.28,171.594C191.738,127.057 146.123,88.34 94.626,61.75C127.476,84.83 157.003,116.616 185.47,156.406C134.237,105.183 81.956,62.756 18.187,41.28L18.187,76.594C78.321,93.234 136.585,139.156 182.155,205.906L182.03,205.969L204.22,244.374L362.156,153.186L339.969,114.78L339.905,114.812C301.525,45.442 256.863,19.688 233.185,12.282L190.47,12.282C253.22,34.812 295.84,81.986 324.25,154.562C274.132,84.372 201.73,31.02 121.594,12.282L19.5,12.282L19.5,12.28ZM173.47,52.75C225.664,74.302 271.4,119.313 284.313,174.344L173.47,52.75ZM348.5,182.656L236.53,247.312L321.25,394L433.22,329.344L348.5,182.656ZM421.47,216.219L397.47,230.062L417.25,264.342L441.25,250.468L421.47,216.218L421.47,216.219ZM253.125,313.405L83.47,411.344L103.28,445.656L272.906,347.686L253.126,313.406L253.125,313.405ZM465.53,332.22L307.594,423.406L329.814,461.876L487.75,370.688L465.53,332.218L465.53,332.22ZM62.72,412.81L26.78,433.56L55.687,483.623L91.625,462.873L62.719,412.81L62.72,412.81Z" style="fill:rgb(242,234,189);fill-rule:nonzero;"/>
</svg>
