<?xml version="1.0" encoding="UTF-8" standalone="no"?>
<!DOCTYPE svg PUBLIC "-//W3C//DTD SVG 1.1//EN" "http://www.w3.org/Graphics/SVG/1.1/DTD/svg11.dtd">
<svg width="100%" height="100%" viewBox="0 0 512 512" version="1.1" xmlns="http://www.w3.org/2000/svg" xmlns:xlink="http://www.w3.org/1999/xlink" xml:space="preserve" xmlns:serif="http://www.serif.com/" style="fill-rule:evenodd;clip-rule:evenodd;stroke-linejoin:round;stroke-miterlimit:2;">
    <rect x="0" y="0" width="512" height="512" style="fill:rgb(9,41,59);fill-rule:nonzero;"/>
    <path d="M66.793,194.226L66.793,232.404L162.027,232.404L162.027,284.614L193.449,284.614C191.847,336.614 182.469,371.938 170.122,393.824C163.175,406.137 155.564,414.214 147.702,419.139C126.482,407.299 108.632,380.257 108.632,348.132L89.942,348.132C89.942,401.392 128.934,445.77 172.507,444.216C194.293,443.439 215.945,430.008 231.179,403.006C245.767,377.15 255.339,338.886 256.929,284.614L280.269,284.614L280.269,194.226L66.793,194.226ZM413.903,198.145L413.903,216.105L298.958,216.105L298.958,261.307L413.9,261.307L413.9,279.264L432.59,279.264L432.59,261.307L456.12,261.307L456.12,279.264L474.807,279.264L474.807,261.307L494.233,261.307L494.233,216.104L474.81,216.104L474.81,198.144L456.12,198.144L456.12,216.104L432.592,216.104L432.592,198.144L413.902,198.144L413.903,198.145ZM18.683,251.095L18.683,334.969L143.34,334.969L143.34,251.093L18.682,251.093L18.683,251.095ZM212.15,284.615L238.23,284.615C236.628,336.615 227.25,371.938 214.902,393.825C201.962,416.761 186.722,425.008 171.84,425.539C167.755,425.684 163.602,425.139 159.475,424.013C168.263,421.498 176.935,415.733 185.059,405.319C185.509,404.559 185.959,403.789 186.399,403.007C200.989,377.15 210.559,338.887 212.149,284.614L212.15,284.615ZM45.164,348.133C45.164,401.393 84.154,445.771 127.727,444.217C130.704,444.111 133.68,443.759 136.637,443.177C113.477,438.894 92.852,422.065 80.33,398.729C70.427,385.234 63.854,367.619 63.854,348.132L45.164,348.132L45.164,348.133Z" style="fill:white;fill-rule:nonzero;"/>
    <clipPath id="_clip1">
        <path d="M66.793,194.226L66.793,232.404L162.027,232.404L162.027,284.614L193.449,284.614C191.847,336.614 182.469,371.938 170.122,393.824C163.175,406.137 155.564,414.214 147.702,419.139C126.482,407.299 108.632,380.257 108.632,348.132L89.942,348.132C89.942,401.392 128.934,445.77 172.507,444.216C194.293,443.439 215.945,430.008 231.179,403.006C245.767,377.15 255.339,338.886 256.929,284.614L280.269,284.614L280.269,194.226L66.793,194.226ZM413.903,198.145L413.903,216.105L298.958,216.105L298.958,261.307L413.9,261.307L413.9,279.264L432.59,279.264L432.59,261.307L456.12,261.307L456.12,279.264L474.807,279.264L474.807,261.307L494.233,261.307L494.233,216.104L474.81,216.104L474.81,198.144L456.12,198.144L456.12,216.104L432.592,216.104L432.592,198.144L413.902,198.144L413.903,198.145ZM18.683,251.095L18.683,334.969L143.34,334.969L143.34,251.093L18.682,251.093L18.683,251.095ZM212.15,284.615L238.23,284.615C236.628,336.615 227.25,371.938 214.902,393.825C201.962,416.761 186.722,425.008 171.84,425.539C167.755,425.684 163.602,425.139 159.475,424.013C168.263,421.498 176.935,415.733 185.059,405.319C185.509,404.559 185.959,403.789 186.399,403.007C200.989,377.15 210.559,338.887 212.149,284.614L212.15,284.615ZM45.164,348.133C45.164,401.393 84.154,445.771 127.727,444.217C130.704,444.111 133.68,443.759 136.637,443.177C113.477,438.894 92.852,422.065 80.33,398.729C70.427,385.234 63.854,367.619 63.854,348.132L45.164,348.132L45.164,348.133Z" clip-rule="nonzero"/>
    </clipPath>
    <g clip-path="url(#_clip1)">
        <path d="M413.903,198.145L432.592,198.144L432.592,216.104L456.12,216.104L456.12,198.144L474.81,198.144L474.81,216.104L494.233,216.104L494.233,261.307L474.807,261.307L474.807,279.264L456.12,279.264L456.12,261.307L432.59,261.307L432.59,279.264L413.9,279.264L413.9,261.307L298.958,261.307L298.958,216.105L413.903,216.105L413.903,198.145Z" style="fill:rgb(242,234,189);"/>
        <path d="M66.793,194.226L280.269,194.226L280.269,284.614L256.929,284.614C255.339,338.886 245.767,377.15 231.179,403.006C215.945,430.008 194.293,443.439 172.507,444.216C128.934,445.77 89.942,401.392 89.942,348.132L108.632,348.132C108.632,380.257 126.482,407.299 147.702,419.139C155.564,414.214 163.175,406.137 170.122,393.824C182.469,371.938 191.847,336.614 193.449,284.614L162.027,284.614L162.027,232.404L66.793,232.404L66.793,194.226ZM212.15,284.614C210.56,338.888 200.989,377.15 186.399,403.007C185.959,403.789 185.509,404.559 185.059,405.319C176.935,415.733 168.263,421.498 159.475,424.013C163.602,425.139 167.755,425.684 171.84,425.539C186.722,425.008 201.962,416.761 214.902,393.825C227.25,371.938 236.628,336.615 238.23,284.615L212.15,284.614Z" style="fill:rgb(242,234,189);"/>
        <path d="M18.683,251.095L18.682,251.093L143.34,251.093L143.34,334.969L18.683,334.969L18.683,251.095Z" style="fill:rgb(242,234,189);"/>
        <path d="M45.164,348.133L63.854,348.132C63.854,367.619 70.427,385.234 80.33,398.729C92.852,422.065 113.477,438.894 136.637,443.177C133.68,443.759 130.704,444.111 127.727,444.217C84.154,445.771 45.164,401.393 45.164,348.133Z" style="fill:rgb(242,234,189);"/>
    </g>
</svg>
