<?xml version="1.0" encoding="UTF-8" standalone="no"?>
<!DOCTYPE svg PUBLIC "-//W3C//DTD SVG 1.1//EN" "http://www.w3.org/Graphics/SVG/1.1/DTD/svg11.dtd">
<svg width="100%" height="100%" viewBox="0 0 512 512" version="1.1" xmlns="http://www.w3.org/2000/svg" xmlns:xlink="http://www.w3.org/1999/xlink" xml:space="preserve" xmlns:serif="http://www.serif.com/" style="fill-rule:evenodd;clip-rule:evenodd;stroke-linejoin:round;stroke-miterlimit:2;">
    <g>
        <rect x="-25" y="-18" width="559" height="616" style="fill:rgb(172,15,30);"/>
    </g>
    <path d="M273.063,47.188C271.089,47.22 269.083,47.311 267.063,47.438C206.443,51.243 166.733,83.371 143.5,131.218C120.638,178.301 115.058,240.928 126.375,303.688L128.125,305.438L126.719,311.156C123.289,325.359 125.549,342.453 130.999,357.126C136.449,371.796 145.519,383.876 151.593,387.906L156.623,391.25L156.249,397.25C154.894,419.218 163.136,436.21 174.687,447.938C186.237,459.664 201.374,465.385 211.28,464.781C221.53,464.158 226.885,460.985 232.53,454.781C238.178,448.579 243.424,438.727 249.594,426.501C261.934,402.049 278.529,368.645 317.688,339.407C381.041,292.102 400.481,216.42 387.688,153.751C381.291,122.417 366.821,94.615 346.281,75.438C328.311,58.658 305.901,48.234 278.907,47.251C276.979,47.181 275.037,47.156 273.063,47.188ZM266.188,101.344C267.469,101.317 268.75,101.317 270.031,101.344C296.348,101.824 321.726,113.572 339.345,136.781C340.531,138.345 341.173,140.256 341.173,142.219C341.173,147.157 337.11,151.22 332.173,151.22C329.358,151.22 326.7,149.9 325,147.657C299.35,113.867 255.935,109.909 220.656,135.22C202.381,148.33 186.396,169.672 177.344,199.563C190.274,185.866 205.256,172.508 221.844,164.031C231.749,158.971 242.46,155.675 253.5,155.626C257.18,155.61 260.893,155.958 264.625,156.72C279.553,159.766 293.965,169.426 306.813,186.406C307.991,187.968 308.629,189.872 308.629,191.828C308.629,196.767 304.565,200.831 299.626,200.831C296.803,200.831 294.138,199.504 292.438,197.25C281.451,182.73 270.995,176.378 261.031,174.344C251.069,172.31 240.809,174.554 230.031,180.064C208.491,191.07 186.651,215.264 170.531,234.75C168.701,253.476 169.186,274.544 172.657,298C185.485,298.502 195.974,301.768 203.627,307.72C212.891,314.924 217.487,325.52 218.157,335.97C219.5,356.867 207.537,378.57 187.532,387.03C186.429,387.492 185.245,387.73 184.05,387.73C179.107,387.73 175.04,383.663 175.04,378.72C175.04,375.122 177.195,371.855 180.502,370.438C191.948,365.596 200.995,349.668 200.19,337.125C199.787,330.855 197.546,325.811 192.565,321.937C187.583,318.064 179.149,315.117 165.345,315.875C160.798,316.129 156.738,312.894 155.971,308.405C139.911,214.68 168.191,150.703 210.157,120.595C227.371,108.245 246.944,101.793 266.187,101.345L266.188,101.344Z" style="fill:rgb(242,234,189);fill-rule:nonzero;"/>
    <g transform="matrix(0.23834,-8.0128e-07,8.0128e-07,0.23834,211.746,200.772)">
        <path d="M413.72,19.395L413.72,118.035L367.604,164.152L333.406,129.952L326.799,136.562L185.279,278.078L298.792,391.588L246.017,444.361L246.019,494.671L264.706,494.671L264.706,452.103L312.006,404.803L333.406,426.203L481.528,278.079L421.363,217.915L488.81,150.465L488.81,19.395L470.123,19.395L470.123,142.725L408.148,204.7L380.816,177.367L432.406,125.777L432.406,19.395L413.72,19.395ZM19.36,30.303L19.36,48.99L205.967,48.99L250.221,93.244C247.574,97.78 246.183,102.94 246.189,108.191C246.189,124.613 259.501,137.927 275.921,137.927C292.341,137.927 305.653,124.613 305.653,108.192C305.653,91.772 292.341,78.462 275.921,78.462C271.778,78.462 267.833,79.312 264.249,80.844L213.709,30.304L19.36,30.304L19.36,30.303ZM19.36,85.781L19.36,104.471L150.486,104.474L194.74,148.728C192.092,153.264 190.699,158.423 190.705,163.675C190.705,180.095 204.017,193.407 220.437,193.407C236.857,193.407 250.17,180.095 250.17,163.675C250.17,147.255 236.858,133.942 220.438,133.942C216.294,133.942 212.35,134.792 208.766,136.324L158.226,85.784L19.362,85.784L19.36,85.781ZM102.746,141.263L19.361,141.265L19.361,159.955L95.007,159.952L139.261,204.212C136.614,208.747 135.222,213.907 135.228,219.158C135.228,235.578 148.54,248.891 164.96,248.891C181.38,248.891 194.69,235.578 194.69,219.157C194.69,202.737 181.38,189.423 164.96,189.423C160.815,189.423 156.87,190.273 153.285,191.806L102.745,141.263L102.746,141.263ZM333.406,156.383L455.1,278.08L333.406,399.77L211.71,278.08L333.406,156.385L333.406,156.383ZM332.152,183.771L237.578,278.345L332.59,373.36L345.805,360.146L264.008,278.346L345.368,196.984L332.152,183.77L332.152,183.771ZM19.362,205.328L19.362,256.536L179.492,416.666L179.492,494.671L198.182,494.671L198.182,384.146L19.362,205.328ZM365.872,213.726L352.66,226.94L404.14,278.422L352.37,330.192L365.588,343.406L430.57,278.422L365.875,213.725L365.872,213.726ZM335.942,246.886C318.492,246.886 304.35,261.033 304.35,278.48C304.35,295.925 318.493,310.07 335.94,310.07C353.39,310.07 367.533,295.925 367.533,278.48C367.533,261.03 353.39,246.885 335.941,246.885L335.942,246.886ZM19.36,295.35L19.36,346.557L114.246,441.437L114.246,494.67L132.934,494.67L132.934,408.92L19.362,295.35L19.36,295.35ZM446.738,368.504C430.318,368.504 417.006,381.816 417.006,398.236C417.006,414.656 430.318,427.971 446.738,427.971C450.732,427.971 454.54,427.177 458.018,425.749L494.638,462.364L494.638,435.937L472.236,413.537C475.015,408.918 476.481,403.627 476.473,398.237C476.473,381.817 463.159,368.505 446.738,368.505L446.738,368.504ZM19.36,386.19L19.36,437.4L50.654,468.69L50.652,494.672L69.34,494.672L69.346,436.176L19.36,386.19ZM391.262,423.986C374.842,423.986 361.529,437.298 361.529,453.719C361.529,470.139 374.839,483.449 391.261,483.449C394.774,483.449 398.143,482.837 401.271,481.719L414.226,494.669L440.656,494.669L416.076,470.091C419.29,465.236 421,459.54 420.993,453.718C420.993,437.296 407.681,423.984 391.261,423.984L391.262,423.986Z" style="fill:rgb(172,15,30);fill-rule:nonzero;"/>
    </g>
</svg>
