<?xml version="1.0" encoding="UTF-8" standalone="no"?>
<!DOCTYPE svg PUBLIC "-//W3C//DTD SVG 1.1//EN" "http://www.w3.org/Graphics/SVG/1.1/DTD/svg11.dtd">
<svg width="100%" height="100%" viewBox="0 0 512 512" version="1.1" xmlns="http://www.w3.org/2000/svg" xmlns:xlink="http://www.w3.org/1999/xlink" xml:space="preserve" xmlns:serif="http://www.serif.com/" style="fill-rule:evenodd;clip-rule:evenodd;stroke-linejoin:round;stroke-miterlimit:2;">
    <rect x="0" y="0" width="512" height="512" style="fill:rgb(202,21,39);fill-rule:nonzero;"/>
    <path d="M355.102,21.097C321.42,21.261 290.929,39.682 280.487,71.597C301.844,70.807 303.69,125.519 303.69,125.519L345.309,131.781C331.899,144.744 295.284,137.748 295.284,137.748C278.144,156.93 262.16,178.714 247.526,195.326C231.574,213.453 212.326,233.429 190.508,255.412C183.718,262.235 232.102,245.591 224.85,252.808C200.283,265.559 182.553,268.905 163.086,284.877C131.774,310.551 100.233,345.587 81.94,364.308C74.229,372.218 37.578,401.982 102.409,399.048C104.813,406.568 100.788,408.504 94.916,414.341C90.589,418.644 76.834,414.624 72.653,417.169C50.481,452.224 55.407,455.144 45.223,475.216C40.971,486.851 86.903,460.812 109.528,441.036C123.502,433.456 134.675,419.384 144.53,423.834C187.64,442.818 274.356,459.364 285.858,451.453C304.226,438.807 275.537,405.11 289.69,353.541C313.16,359.358 333.515,367.198 356.457,365C354.876,414.307 360.017,420.306 352.569,469.777L411.698,490.904L413.608,477.095L379.793,454.617C394.361,403.958 396.602,382.039 395.02,332.898C394.86,327.526 349.852,308.573 320.528,299.765L339.121,269.353C369.514,224.565 463.262,207.298 467.053,181.095C454.033,161.419 470.075,153.711 441.961,159.183C435.666,160.501 428.19,183.529 423.938,186.396C416.095,191.672 383.283,210.873 371.987,204.773C370.087,203.747 379.233,171.332 378.837,159.993C378.721,156.788 377.647,153.368 375.971,149.992C376.156,149.352 391.211,97.51 430.78,55.976C386.802,81.11 365.448,135.901 365.426,135.956C363.219,133.822 360.95,131.973 358.787,130.533C356.871,115.833 353.968,57.513 427.385,51.757C405.958,30.58 379.681,20.977 355.102,21.097Z" style="fill:rgb(242,234,189);fill-rule:nonzero;"/>
</svg>
