<?xml version="1.0" encoding="UTF-8" standalone="no"?>
<!DOCTYPE svg PUBLIC "-//W3C//DTD SVG 1.1//EN" "http://www.w3.org/Graphics/SVG/1.1/DTD/svg11.dtd">
<svg width="100%" height="100%" viewBox="0 0 512 512" version="1.1" xmlns="http://www.w3.org/2000/svg" xmlns:xlink="http://www.w3.org/1999/xlink" xml:space="preserve" xmlns:serif="http://www.serif.com/" style="fill-rule:evenodd;clip-rule:evenodd;stroke-linejoin:round;stroke-miterlimit:2;">
    <g>
        <path d="M256,105C195.75,105 131.251,143.39 88.055,182.66C53.124,214.416 29.333,245.02 21.175,256C29.333,266.98 53.124,297.584 88.055,329.34C131.25,368.61 195.75,407 256,407C316.25,407 380.749,368.61 423.945,329.34C458.876,297.584 482.667,266.98 490.825,256C482.667,245.02 458.876,214.416 423.945,182.66C380.75,143.39 316.25,105 256,105ZM256,128C278.277,128.035 300.163,133.885 319.486,144.969C300.631,151.877 288.016,169.92 288,190C288.007,190.151 288.015,190.302 288.023,190.453C280.786,186.894 273.004,184.569 265,183.576L265,160L247,160L247,183.576C213.966,187.671 187.67,213.966 183.576,247L160,247L160,265L183.576,265C187.671,298.034 213.966,324.33 247,328.424L247,352L265,352L265,328.424C298.034,324.329 324.33,298.034 328.424,265L352,265L352,247L328.424,247C328.001,243.62 327.339,240.273 326.444,236.986C329.587,237.643 332.789,237.983 336,238C352.771,237.975 368.356,229.163 377.023,214.805C381.589,228.062 383.946,241.979 384,256C384,326.219 326.219,384 256,384C185.781,384 128,326.219 128,256C128,185.781 185.781,128 256,128ZM247,201.738L247,224L265,224L265,201.738C288.237,205.53 306.47,223.763 310.262,247L288,247L288,265L310.262,265C306.47,288.237 288.237,306.47 265,310.262L265,288L247,288L247,310.262C223.763,306.47 205.53,288.237 201.738,265L224,265L224,247L201.738,247C205.53,223.763 223.763,205.53 247,201.738Z" style="fill:rgb(242,234,189);fill-rule:nonzero;"/>
    </g>
</svg>
