<?xml version="1.0" encoding="UTF-8" standalone="no"?>
<!DOCTYPE svg PUBLIC "-//W3C//DTD SVG 1.1//EN" "http://www.w3.org/Graphics/SVG/1.1/DTD/svg11.dtd">
<svg width="100%" height="100%" viewBox="0 0 512 512" version="1.1" xmlns="http://www.w3.org/2000/svg" xmlns:xlink="http://www.w3.org/1999/xlink" xml:space="preserve" xmlns:serif="http://www.serif.com/" style="fill-rule:evenodd;clip-rule:evenodd;stroke-linejoin:round;stroke-miterlimit:2;">
    <path d="M256,37.369C217.52,37.369 179.068,38.499 149.131,40.789C134.162,41.934 121.351,43.355 111.481,45.149C106.545,46.047 102.361,47.019 98.77,48.248C95.178,49.476 91.979,50.307 88.8,54.544C54.684,100.034 40.78,161.144 39.164,197.054C25.817,253.676 25.826,296.472 38.742,338.944L119,338.944L119,290.944L185,290.944L185,338.944L327,338.944L327,290.944L393,290.944L393,338.944L473.258,338.944C486.151,296.549 486.183,253.83 472.908,197.361C471.715,149.695 457.432,100.188 423.199,54.544C420.021,50.307 416.822,49.476 413.231,48.248C409.639,47.019 405.455,46.048 400.52,45.15C390.649,43.355 377.838,41.934 362.87,40.789C332.932,38.499 294.48,37.369 256,37.369ZM256,55.369C294.126,55.369 332.28,56.501 361.494,58.736C376.101,59.853 388.503,61.262 397.299,62.861C401.697,63.661 405.208,64.528 407.404,65.279C408.501,65.654 409.218,66.161 409.479,66.332C440.265,107.797 453.312,151.963 454.844,195.179C359.7,188.403 307.219,184.921 256,184.921C204.812,184.921 152.362,188.4 57.332,195.168C59.545,163.156 73.109,106.15 102.461,66.363C102.341,66.425 102.556,66.203 103.199,65.345C102.949,65.679 102.709,66.026 102.461,66.363C102.617,66.282 103.353,65.703 104.596,65.279C106.792,64.528 110.303,63.661 114.701,62.861C123.497,61.261 135.899,59.853 150.506,58.736C179.72,56.5 217.874,55.369 256,55.369ZM137,308.945L137,370.945L167,370.945L167,308.945L137,308.945ZM345,308.945L345,370.945L375,370.945L375,308.945L345,308.945ZM34.752,356.945C33.435,391.998 33.812,424.835 39.42,451.574C66.768,454.247 93.177,456.436 119,458.162L119,436.945L112,436.945C101,436.945 91.052,431.725 83.639,424.318C76.225,416.91 71,406.974 71,395.988L71,356.945L34.752,356.945ZM89,356.944L89,395.988C89,400.958 91.775,407.001 96.361,411.584C100.948,416.166 107.001,418.944 112.001,418.944L119.001,418.944L119.001,356.944L89,356.944ZM185,356.945L185,418.945L192,418.945C197,418.945 203.103,416.145 207.705,411.642C212.307,407.139 215,401.256 215,396.982L215,356.945L185,356.945ZM233,356.945L233,396.982C233,407.672 227.693,417.269 220.295,424.507C212.897,431.745 203,436.945 192,436.945L185,436.945L185,461.578C232.71,463.3 279.288,463.298 327,461.578L327,436.945L320,436.945C309,436.945 299.052,431.725 291.639,424.318C284.225,416.911 279,406.974 279,395.988L279,356.945L233,356.945ZM297,356.945L297,395.988C297,400.958 299.775,407.001 304.361,411.584C308.948,416.166 315.001,418.944 320.001,418.944L327.001,418.944L327.001,356.944L297.001,356.944L297,356.945ZM393,356.945L393,418.945L400,418.945C405,418.945 411.103,416.145 415.705,411.642C420.307,407.139 423,401.256 423,396.982L423,356.945L393,356.945ZM441,356.944L441,396.982C441,407.672 435.693,417.269 428.295,424.507C420.897,431.745 411,436.945 400,436.945L393,436.945L393,458.155C418.825,456.432 445.23,454.247 472.58,451.574C478.189,424.836 478.565,391.998 477.248,356.944L441,356.944ZM137,388.945L137,402.945L167,402.945L167,388.945L137,388.945ZM345,388.945L345,402.945L375,402.945L375,388.945L345,388.945ZM137,420.945L137,470.575C147.897,475.971 157.048,475.937 167,470.748L167,420.945L137,420.945ZM345,420.945L345,470.575C355.897,475.971 365.048,475.937 375,470.748L375,420.945L345,420.945Z" style="fill:white;fill-rule:nonzero;"/>
    <g>
        <clipPath id="_clip1">
            <path d="M256,37.369C217.52,37.369 179.068,38.499 149.131,40.789C134.162,41.934 121.351,43.355 111.481,45.149C106.545,46.047 102.361,47.019 98.77,48.248C95.178,49.476 91.979,50.307 88.8,54.544C54.684,100.034 40.78,161.144 39.164,197.054C25.817,253.676 25.826,296.472 38.742,338.944L119,338.944L119,290.944L185,290.944L185,338.944L327,338.944L327,290.944L393,290.944L393,338.944L473.258,338.944C486.151,296.549 486.183,253.83 472.908,197.361C471.715,149.695 457.432,100.188 423.199,54.544C420.021,50.307 416.822,49.476 413.231,48.248C409.639,47.019 405.455,46.048 400.52,45.15C390.649,43.355 377.838,41.934 362.87,40.789C332.932,38.499 294.48,37.369 256,37.369ZM256,55.369C294.126,55.369 332.28,56.501 361.494,58.736C376.101,59.853 388.503,61.262 397.299,62.861C401.697,63.661 405.208,64.528 407.404,65.279C408.501,65.654 409.218,66.161 409.479,66.332C440.265,107.797 453.312,151.963 454.844,195.179C359.7,188.403 307.219,184.921 256,184.921C204.812,184.921 152.362,188.4 57.332,195.168C59.545,163.156 73.109,106.15 102.461,66.363C102.341,66.425 102.556,66.203 103.199,65.345C102.949,65.679 102.709,66.026 102.461,66.363C102.617,66.282 103.353,65.703 104.596,65.279C106.792,64.528 110.303,63.661 114.701,62.861C123.497,61.261 135.899,59.853 150.506,58.736C179.72,56.5 217.874,55.369 256,55.369ZM137,308.945L137,370.945L167,370.945L167,308.945L137,308.945ZM345,308.945L345,370.945L375,370.945L375,308.945L345,308.945ZM34.752,356.945C33.435,391.998 33.812,424.835 39.42,451.574C66.768,454.247 93.177,456.436 119,458.162L119,436.945L112,436.945C101,436.945 91.052,431.725 83.639,424.318C76.225,416.91 71,406.974 71,395.988L71,356.945L34.752,356.945ZM89,356.944L89,395.988C89,400.958 91.775,407.001 96.361,411.584C100.948,416.166 107.001,418.944 112.001,418.944L119.001,418.944L119.001,356.944L89,356.944ZM185,356.945L185,418.945L192,418.945C197,418.945 203.103,416.145 207.705,411.642C212.307,407.139 215,401.256 215,396.982L215,356.945L185,356.945ZM233,356.945L233,396.982C233,407.672 227.693,417.269 220.295,424.507C212.897,431.745 203,436.945 192,436.945L185,436.945L185,461.578C232.71,463.3 279.288,463.298 327,461.578L327,436.945L320,436.945C309,436.945 299.052,431.725 291.639,424.318C284.225,416.911 279,406.974 279,395.988L279,356.945L233,356.945ZM297,356.945L297,395.988C297,400.958 299.775,407.001 304.361,411.584C308.948,416.166 315.001,418.944 320.001,418.944L327.001,418.944L327.001,356.944L297.001,356.944L297,356.945ZM393,356.945L393,418.945L400,418.945C405,418.945 411.103,416.145 415.705,411.642C420.307,407.139 423,401.256 423,396.982L423,356.945L393,356.945ZM441,356.944L441,396.982C441,407.672 435.693,417.269 428.295,424.507C420.897,431.745 411,436.945 400,436.945L393,436.945L393,458.155C418.825,456.432 445.23,454.247 472.58,451.574C478.189,424.836 478.565,391.998 477.248,356.944L441,356.944ZM137,388.945L137,402.945L167,402.945L167,388.945L137,388.945ZM345,388.945L345,402.945L375,402.945L375,388.945L345,388.945ZM137,420.945L137,470.575C147.897,475.971 157.048,475.937 167,470.748L167,420.945L137,420.945ZM345,420.945L345,470.575C355.897,475.971 365.048,475.937 375,470.748L375,420.945L345,420.945Z"/>
        </clipPath>
        <g clip-path="url(#_clip1)">
            <path d="M256,37.369C294.48,37.369 332.932,38.499 362.87,40.789C377.838,41.934 390.649,43.355 400.52,45.15C405.455,46.048 409.639,47.019 413.231,48.248C416.822,49.476 420.021,50.307 423.199,54.544C457.432,100.188 471.715,149.695 472.908,197.361C486.183,253.83 486.151,296.549 473.258,338.944L393,338.944L393,290.944L327,290.944L327,338.944L185,338.944L185,290.944L119,290.944L119,338.944L38.742,338.944C25.826,296.472 25.817,253.676 39.164,197.054C40.78,161.144 54.684,100.034 88.8,54.544C91.979,50.307 95.178,49.476 98.77,48.248C102.361,47.019 106.545,46.047 111.481,45.149C121.351,43.355 134.162,41.934 149.131,40.789C179.068,38.499 217.52,37.369 256,37.369ZM102.461,66.363C73.109,106.15 59.545,163.156 57.332,195.168C152.362,188.4 204.812,184.921 256,184.921C307.219,184.921 359.7,188.403 454.844,195.179C453.312,151.963 440.265,107.797 409.479,66.332C409.218,66.161 408.501,65.654 407.404,65.279C405.208,64.528 401.697,63.661 397.299,62.861C388.503,61.262 376.101,59.853 361.494,58.736C332.28,56.501 294.126,55.369 256,55.369C217.874,55.369 179.72,56.5 150.506,58.736C135.899,59.853 123.497,61.261 114.701,62.861C110.303,63.661 106.792,64.528 104.596,65.279C103.353,65.703 102.617,66.282 102.461,66.363ZM102.461,66.363C102.709,66.026 102.949,65.679 103.199,65.345C102.556,66.203 102.341,66.425 102.461,66.363Z" style="fill:rgb(242,234,189);"/>
            <rect x="137" y="308.945" width="30" height="62" style="fill:rgb(242,234,189);"/>
            <path d="M89,356.945L119.001,356.944L119.001,418.944L112.001,418.944C107.001,418.944 100.948,416.166 96.361,411.584C91.775,407.001 89,400.958 89,395.988L89,356.945Z" style="fill:rgb(242,234,189);"/>
            <rect x="137" y="388.945" width="30" height="14" style="fill:rgb(242,234,189);"/>
            <path d="M185,356.945L215,356.945L215,396.982C215,401.256 212.307,407.139 207.705,411.642C203.103,416.145 197,418.945 192,418.945L185,418.945L185,356.945Z" style="fill:rgb(242,234,189);"/>
            <path d="M34.752,356.945L71,356.945L71,395.988C71,406.974 76.225,416.91 83.639,424.318C91.052,431.725 101,436.945 112,436.945L119,436.945L119,458.162C93.177,456.436 66.768,454.247 39.42,451.574C33.812,424.835 33.435,391.998 34.752,356.945Z" style="fill:rgb(242,234,189);"/>
            <path d="M137,420.945L167,420.945L167,470.748C157.048,475.937 147.897,475.971 137,470.575L137,420.945Z" style="fill:rgb(242,234,189);"/>
            <path d="M233,356.945L279,356.945L279,395.988C279,406.974 284.225,416.911 291.639,424.318C299.052,431.725 309,436.945 320,436.945L327,436.945L327,461.578C279.288,463.298 232.71,463.3 185,461.578L185,436.945L192,436.945C203,436.945 212.897,431.745 220.295,424.507C227.693,417.269 233,407.672 233,396.982L233,356.945Z" style="fill:rgb(242,234,189);"/>
            <path d="M297.001,356.945L327.001,356.944L327.001,418.944L320.001,418.944C315.001,418.944 308.948,416.166 304.361,411.584C299.775,407.001 297,400.958 297,395.988L297.001,356.945Z" style="fill:rgb(242,234,189);"/>
            <rect x="345" y="308.945" width="30" height="62" style="fill:rgb(242,234,189);"/>
            <rect x="345" y="388.945" width="30" height="14" style="fill:rgb(242,234,189);"/>
            <path d="M345,420.945L375,420.945L375,470.748C365.048,475.937 355.897,475.971 345,470.575L345,420.945Z" style="fill:rgb(242,234,189);"/>
            <path d="M393,356.945L423,356.945L423,396.982C423,401.256 420.307,407.139 415.705,411.642C411.103,416.145 405,418.945 400,418.945L393,418.945L393,356.945Z" style="fill:rgb(242,234,189);"/>
            <path d="M441,356.944L477.248,356.944C478.565,391.998 478.189,424.836 472.58,451.574C445.23,454.247 418.825,456.432 393,458.155L393,436.945L400,436.945C411,436.945 420.897,431.745 428.295,424.507C435.693,417.269 441,407.672 441,396.982L441,356.944Z" style="fill:rgb(242,234,189);"/>
        </g>
    </g>
</svg>
