<?xml version="1.0" encoding="UTF-8" standalone="no"?>
<!DOCTYPE svg PUBLIC "-//W3C//DTD SVG 1.1//EN" "http://www.w3.org/Graphics/SVG/1.1/DTD/svg11.dtd">
<svg width="100%" height="100%" viewBox="0 0 512 512" version="1.1" xmlns="http://www.w3.org/2000/svg" xmlns:xlink="http://www.w3.org/1999/xlink" xml:space="preserve" xmlns:serif="http://www.serif.com/" style="fill-rule:evenodd;clip-rule:evenodd;stroke-linejoin:round;stroke-miterlimit:2;">
    <g>
        <rect x="-11" y="-9" width="531" height="535" style="fill:rgb(172,15,30);"/>
    </g>
    <path d="M316.78,22.875C276.846,30.605 248.614,46.462 231.72,68.469L288.406,101.187C295.488,97.821 303.258,95.899 311.376,95.78C315.976,95.714 320.688,96.227 325.438,97.375C328.988,75.923 326.368,50.993 316.781,22.875L316.78,22.875ZM219.625,83.063L132.655,233.625L225.781,287.438L247.657,249.563C237.727,239.769 233.577,224.868 233.063,209.343C232.433,190.357 237.043,169.245 245.626,150.156C251.996,135.989 260.536,122.862 271.346,112.936L219.626,83.062L219.625,83.063ZM426.095,86C396.701,91.69 373.672,101.795 356.812,115.5C366.142,125.3 371.114,137.258 372.094,149.53L428.624,182.156C439.314,156.478 439.107,124.166 426.094,86L426.095,86ZM64.968,94.063L27.03,159.78L129.03,202.53L189.844,97.22L64.97,94.062L64.968,94.063ZM311.592,114.031C305.057,114.136 299.002,116.291 293.029,119.876C281.087,127.046 270.153,141.208 262.687,157.814C255.22,174.419 251.207,193.326 251.717,208.72C252.227,224.097 257.04,234.784 264.53,239.125C264.538,239.129 264.556,239.121 264.563,239.125C272.066,243.441 283.713,242.277 297.281,235.031C310.865,227.778 325.231,214.864 335.876,200.095C346.521,185.325 353.326,168.745 353.564,154.815C353.801,140.882 348.881,129.573 333.064,120.439C325.154,115.871 318.129,113.929 311.594,114.032L311.592,114.031ZM370.404,170.157C367.206,184.472 360.107,198.437 351.029,211.032C338.793,228.012 322.849,242.554 306.093,251.502C292.353,258.84 277.298,262.702 263.813,258.94L241.968,296.752L335.092,350.532L422,199.94L370.406,170.158L370.404,170.157ZM424.624,232.782L363.842,338.127L451.872,405.127L489.81,339.377L424.623,232.783L424.624,232.782ZM147.967,264.064C125.49,273.904 108.237,287.212 96.153,303.408L183.653,353.938C191.693,335.358 194.705,313.84 192.153,289.596L147.966,264.066L147.967,264.064ZM87.874,320.22L18.22,440.78L18.22,478.125L104.063,329.562L87.875,320.219L87.874,320.22ZM257.28,327.187C234.8,337.027 217.555,350.33 205.47,366.531L292.97,417.064C301.012,398.474 304.026,376.944 301.47,352.689L257.28,327.189L257.28,327.187ZM122.19,340.031L32.19,494.907L53.81,494.907L138.404,349.407L122.184,340.032L122.19,340.031ZM156.627,359.907L78.847,494.907L100.407,494.907L172.783,369.251L156.628,359.907L156.627,359.907ZM197.47,383.5L134.25,494.906L155.75,494.906L213.656,392.844L197.469,383.5L197.47,383.5ZM231.906,403.406L180.844,494.906L202.219,494.906L248.093,412.719L231.905,403.405L231.906,403.406ZM266.344,423.281L227.406,494.907L248.719,494.907L282.562,432.627L266.342,423.282L266.344,423.281Z" style="fill:rgb(242,234,189);fill-rule:nonzero;"/>
</svg>
