<?xml version="1.0" encoding="UTF-8" standalone="no"?>
<!DOCTYPE svg PUBLIC "-//W3C//DTD SVG 1.1//EN" "http://www.w3.org/Graphics/SVG/1.1/DTD/svg11.dtd">
<svg width="100%" height="100%" viewBox="0 0 512 512" version="1.1" xmlns="http://www.w3.org/2000/svg" xmlns:xlink="http://www.w3.org/1999/xlink" xml:space="preserve" xmlns:serif="http://www.serif.com/" style="fill-rule:evenodd;clip-rule:evenodd;stroke-linejoin:round;stroke-miterlimit:2;">
    <g>
        <rect x="-20" y="-12" width="542" height="598" style="fill:rgb(9,41,59);"/>
    </g>
    <path d="M436,439.527L436,298.348C406,270.113 376,241.878 376,213.642C376,157.172 406,72.466 496,44.232C496,44.232 466,15.995 436,15.995L346,15.995C346,72.465 286,100.701 256,100.701C226,100.701 166,72.467 166,15.996L76,15.996C46,15.996 16,44.232 16,44.232C106,72.468 136,157.174 136,213.644C136,241.88 106,270.114 76,298.35L76,439.527C136,467.762 196,495.997 256,495.997C316,495.997 376,467.762 436,439.527Z" style="fill:rgb(242,234,189);fill-rule:nonzero;"/>
</svg>
