<?xml version="1.0" encoding="UTF-8" standalone="no"?>
<!DOCTYPE svg PUBLIC "-//W3C//DTD SVG 1.1//EN" "http://www.w3.org/Graphics/SVG/1.1/DTD/svg11.dtd">
<svg width="100%" height="100%" viewBox="0 0 512 512" version="1.1" xmlns="http://www.w3.org/2000/svg" xmlns:xlink="http://www.w3.org/1999/xlink" xml:space="preserve" xmlns:serif="http://www.serif.com/" style="fill-rule:evenodd;clip-rule:evenodd;stroke-linejoin:round;stroke-miterlimit:2;">
    <g>
        <rect x="-13" y="-13" width="539" height="528" style="fill:rgb(172,15,30);"/>
    </g>
    <path d="M73,25L73,263L439,263L439,25L283,25L283,41L423,41L423,233L89,233L89,41L229,41L229,25L73,25ZM247,25L247,41L265,41L265,25L247,25ZM107,59L107,215L405,215L405,59L107,59ZM71.03,281L27.53,455L484.5,455L441,281L411.1,281L431.1,377L331.5,377L347.5,441L163.8,441L183.8,377L80.93,377L100.9,281L71.03,281ZM119.3,281L116.4,295L147,295L149.3,281L119.3,281ZM167.7,281L165.4,295L196.1,295L197.8,281L167.7,281ZM215.9,281L214.2,295L247,295L247,281L215.9,281ZM265,281L265,295L297.8,295L296.1,281L265,281ZM314.2,281L315.9,295L346.6,295L344.3,281L314.2,281ZM362.7,281L365,295L395.6,295L392.7,281L362.7,281ZM112.7,313L109.7,327L141.6,327L144,313L112.7,313ZM162.4,313L160,327L192.1,327L193.8,313L162.4,313ZM211.9,313L210.2,327L247,327L247,313L211.9,313ZM265,313L265,327L301.8,327L300.1,313L265,313ZM318.2,313L319.9,327L352,327L349.6,313L318.2,313ZM368,313L370.4,327L402.3,327L399.3,313L368,313ZM106,345L103.1,359L136.3,359L138.6,345L106,345ZM157,345L154.7,359L188.1,359L189.8,345L157,345ZM207.9,345L206.2,359L247,359L247,345L207.9,345ZM265,345L265,359L305.8,359L304.1,345L265,345ZM322.2,345L323.9,359L357.3,359L355,345L322.2,345ZM373.4,345L375.7,359L408.9,359L406,345L373.4,345ZM202.6,377L188.2,423L324.5,423L313,377L202.6,377ZM28,473L28,491L484,491L484,473L28,473Z" style="fill:rgb(242,234,189);fill-rule:nonzero;"/>
</svg>
