<?xml version="1.0" encoding="UTF-8" standalone="no"?>
<!DOCTYPE svg PUBLIC "-//W3C//DTD SVG 1.1//EN" "http://www.w3.org/Graphics/SVG/1.1/DTD/svg11.dtd">
<svg width="100%" height="100%" viewBox="0 0 512 512" version="1.1" xmlns="http://www.w3.org/2000/svg" xmlns:xlink="http://www.w3.org/1999/xlink" xml:space="preserve" xmlns:serif="http://www.serif.com/" style="fill-rule:evenodd;clip-rule:evenodd;stroke-linejoin:round;stroke-miterlimit:2;">
    <g>
        <rect x="-25" y="-9" width="543" height="527" style="fill:rgb(9,41,59);"/>
    </g>
    <path d="M19.5,18.624L19.5,56.405L83.813,120.719L117.25,87.279L48.594,18.624L19.5,18.624ZM75.03,18.625L130.47,74.063L143.688,60.813L101.5,18.624L75.03,18.624L75.03,18.625ZM176.438,54.5L52.876,178.063L89.53,214.72L213.126,91.124L176.437,54.5L176.438,54.5ZM19.5,82.844L19.5,106.469L58.78,145.749L70.594,133.936L19.5,82.844ZM206.78,123.906L121.875,208.812L146.219,233.187L231.124,148.25L206.78,123.906ZM332.125,151.312C325.537,151.302 319.21,153.925 314.562,158.594C304.849,168.311 304.849,184.064 314.562,193.781C324.276,203.499 340.006,203.499 349.719,193.781C359.432,184.064 359.431,168.311 349.719,158.595C344.861,153.735 338.489,151.315 332.124,151.315L332.125,151.312ZM244.281,161.562L227.501,178.344C227.753,178.34 227.999,178.314 228.251,178.314C242.003,178.314 255.737,183.576 266.281,194.124C287.374,215.224 287.377,249.179 266.281,270.281C245.191,291.381 211.281,291.381 190.189,270.281L189.689,269.751C179.299,259.081 174.189,245.253 174.376,231.471L157.596,248.251C160.502,261.175 166.948,273.445 176.97,283.471C177.205,283.706 177.45,283.925 177.688,284.157C177.824,284.313 177.955,284.472 178.094,284.627C169.371,293.737 169.476,308.193 178.438,317.157C187.52,326.243 202.261,326.243 211.344,317.157C213.327,315.181 214.937,312.862 216.094,310.313C238.219,317.783 259.921,314.381 289.781,322.813L319.564,352.595C315.928,359.305 316.924,367.86 322.594,373.532C328.264,379.205 336.824,380.202 343.532,376.565L462.94,495.969L494.97,495.969L494.97,467L323.157,295.187C317.563,279.677 315.452,266.571 313.751,254.531C319.929,256.627 327.014,255.208 331.939,250.281C338.849,243.369 338.849,232.163 331.939,225.251C325.397,218.707 315.015,218.404 308.064,224.251C304.197,211.541 297.324,198.715 282.876,183.845C281.238,182.172 279.495,180.606 277.656,179.157C267.99,170.139 256.419,164.297 244.282,161.563L244.281,161.562ZM357.063,262.22C353.538,262.22 350.035,263.56 347.345,266.25C341.965,271.632 341.965,280.368 347.345,285.75C352.725,291.132 361.435,291.132 366.815,285.75C372.195,280.368 372.193,271.632 366.813,266.25C364.229,263.664 360.718,262.213 357.063,262.22ZM227.595,335.31C223.939,335.303 220.428,336.755 217.845,339.342C212.465,344.722 212.465,353.429 217.845,358.812C223.225,364.192 231.965,364.192 237.345,358.81C242.725,353.428 242.725,344.723 237.345,339.342C234.761,336.756 231.25,335.305 227.595,335.312L227.595,335.31Z" style="fill:rgb(242,234,189);fill-rule:nonzero;"/>
</svg>
