<?xml version="1.0" encoding="UTF-8" standalone="no"?>
<!DOCTYPE svg PUBLIC "-//W3C//DTD SVG 1.1//EN" "http://www.w3.org/Graphics/SVG/1.1/DTD/svg11.dtd">
<svg width="100%" height="100%" viewBox="0 0 512 512" version="1.1" xmlns="http://www.w3.org/2000/svg" xmlns:xlink="http://www.w3.org/1999/xlink" xml:space="preserve" xmlns:serif="http://www.serif.com/" style="fill-rule:evenodd;clip-rule:evenodd;stroke-linejoin:round;stroke-miterlimit:2;">
    <g>
        <rect x="-12" y="-11" width="535" height="564" style="fill:rgb(9,41,59);"/>
    </g>
    <path d="M465.659,42.63L449.499,54.46L461.319,70.15L461.047,70.331L467.367,78.89L489.918,61.89L481.918,51.21L475.658,55.92L465.658,42.63L465.659,42.63ZM436.569,64.11L269.108,183.86C269.108,184.4 269.048,184.89 269.048,185.4L266.888,208.18C266.463,212.757 264.085,216.936 260.368,219.64L218.458,250.14C211.362,255.304 201.273,253.715 196.108,246.62L191.158,239.82L161.368,261.3C159.698,262.52 159.357,265.04 160.557,267.3L162.647,271.251C163.666,272.91 163.604,275.025 162.489,276.621L114.489,335.331C114.405,335.431 114.311,335.522 114.207,335.601L23.508,406.021C21.668,407.451 21.598,410.481 23.358,412.781L64.178,466.96C65.194,468.403 66.825,469.295 68.588,469.37L68.768,469.37C69.919,469.344 70.985,468.748 71.608,467.78L156.038,356.48C157.302,355.415 157.824,353.699 157.368,352.11C156.912,350.521 154.328,336.04 155.048,335.04C155.048,335.04 183.748,296.65 183.998,296.46L454.788,88.7L436.568,64.11L436.569,64.11ZM253.069,183.93L198.929,223.32L209.047,237.23L250.957,206.73L253.069,183.93ZM273.207,248.18L234.578,277.78L242.068,293.15C242.95,294.943 244.801,296.066 246.798,296.02L247.048,296.02C248.863,295.938 250.545,295.036 251.618,293.57L274.388,262.98C275.351,261.69 275.715,260.046 275.388,258.47L273.208,248.18L273.207,248.18ZM213.767,293.78L207.838,298.37C209.031,300.36 209.662,302.637 209.662,304.958C209.662,311.985 203.879,317.768 196.852,317.768C194.951,317.768 193.075,317.345 191.358,316.53L186.838,322.53C189.889,324.262 193.337,325.172 196.845,325.172C206.905,325.172 215.52,317.683 216.918,307.72C217.611,302.846 216.489,297.883 213.768,293.78L213.767,293.78Z" style="fill:rgb(242,234,189);fill-rule:nonzero;"/>
</svg>
