<?xml version="1.0" encoding="UTF-8" standalone="no"?>
<!DOCTYPE svg PUBLIC "-//W3C//DTD SVG 1.1//EN" "http://www.w3.org/Graphics/SVG/1.1/DTD/svg11.dtd">
<svg width="100%" height="100%" viewBox="0 0 512 512" version="1.1" xmlns="http://www.w3.org/2000/svg" xmlns:xlink="http://www.w3.org/1999/xlink" xml:space="preserve" xmlns:serif="http://www.serif.com/" style="fill-rule:evenodd;clip-rule:evenodd;stroke-linejoin:round;stroke-miterlimit:2;">
    <g>
        <rect x="-17" y="-4" width="534" height="703" style="fill:rgb(9,41,59);"/>
    </g>
    <path d="M42.652,136.716L42.652,169.21C42.648,176.133 45.626,182.733 50.82,187.31L321.32,187.31L321.32,136.904C320.686,133.467 317.669,130.943 314.174,130.926L232.662,130.926C229.905,123.286 222.613,118.162 214.49,118.158L155.542,118.158C161.75,143.161 142.832,167.351 117.07,167.351C91.308,167.351 72.39,143.16 78.6,118.16L61.136,118.16C50.913,118.195 42.646,126.495 42.651,136.718L42.652,136.716ZM451.692,138.27L454.342,134.89L462.238,123.416C465.535,118.648 471.178,118.648 474.474,123.416L482.089,138.218L490.924,138.218L490.924,167.562L338.01,167.562L338.01,138.27L451.713,138.27L451.692,138.27ZM39.074,396.064C57.164,411.661 90.404,409.997 110.717,397.43C131.937,384.303 114.827,365.437 142.847,329.824C151.442,318.892 174.257,287.378 194.317,258.764C200.491,249.95 212.352,255.242 237.919,265.371C244.282,266.761 252.399,267.161 256.497,267.503C275.513,267.503 298.583,249.816 300.715,235.08C302.888,220.064 293.958,215.692 303.543,213.087C306.871,212.182 312.803,208.042 313.213,204.02L272.186,204.02C280.698,208.61 286.331,216.538 286.331,225.51C286.331,239.696 272.341,251.19 255.036,251.19C237.73,251.19 223.742,239.716 223.742,225.51C223.742,216.517 229.375,208.61 237.887,204.02L77.754,204.02C100.944,224.226 88.844,247.832 80.56,259.432L28.402,332.672C13.847,353.124 22.845,382.072 39.074,396.064ZM60.214,357.784C60.214,345.916 74.561,339.974 82.954,348.366C91.344,356.756 85.402,371.106 73.534,371.106C66.177,371.106 60.214,365.142 60.214,357.786L60.214,357.784ZM248.414,240.654C238.687,233.642 240.634,215.45 243.396,204.041L256.196,204.041C248.621,212.591 244.744,231.301 248.413,240.656L248.414,240.654ZM140.008,127.64C140.008,148.087 115.288,158.324 100.831,143.867C86.375,129.411 96.611,104.691 117.058,104.691C129.732,104.691 140.008,114.967 140.008,127.641L140.008,127.64Z" style="fill:rgb(242,234,189);fill-rule:nonzero;"/>
</svg>
