<?xml version="1.0" encoding="UTF-8" standalone="no"?>
<!DOCTYPE svg PUBLIC "-//W3C//DTD SVG 1.1//EN" "http://www.w3.org/Graphics/SVG/1.1/DTD/svg11.dtd">
<svg width="100%" height="100%" viewBox="0 0 512 512" version="1.1" xmlns="http://www.w3.org/2000/svg" xmlns:xlink="http://www.w3.org/1999/xlink" xml:space="preserve" xmlns:serif="http://www.serif.com/" style="fill-rule:evenodd;clip-rule:evenodd;stroke-linejoin:round;stroke-miterlimit:2;">
    <rect x="0" y="0" width="512" height="512" style="fill:rgb(9,41,59);fill-rule:nonzero;"/>
    <path d="M19.75,14.438C79.288,126.728 162.26,216.788 252.03,307.156L255.656,310.906L255.719,310.844C277.546,332.774 299.759,354.767 322.124,377.094C303.268,391.907 283.15,405.294 262.186,417.406L290.718,445.936L359.435,377.219C401.772,404.855 435.721,440.865 463.529,483.029L491.593,454.969C449.123,427.476 411.853,394.763 385.563,351.093L454.499,282.155L425.969,253.625C414.854,275.478 401.556,295.64 386.499,314.218C342.647,270.418 300.037,228.376 256.374,188.748C256.15,188.545 255.942,188.326 255.718,188.123C183.624,122.75 108.515,63.91 19.75,14.437L19.75,14.438ZM491.625,14.438C408.587,60.718 337.503,115.218 269.655,175.594L292.469,197.156L349.279,140.344L362.499,153.531L306.061,209.971L330.655,233.157C392.457,166.237 448.255,96.237 491.625,14.437L491.625,14.438ZM162.095,140.344L362.655,340.874C358.295,345.317 353.815,349.667 349.25,353.906L148.875,153.53L162.095,140.344ZM85.405,253.624L56.905,282.156L125.812,351.062C99.522,394.735 62.282,427.476 19.812,454.969L47.875,483.029C75.682,440.865 109.633,404.855 151.969,377.219L220.687,445.936L249.217,417.406C228.255,405.293 208.137,391.906 189.28,377.093C207.145,359.263 224.89,341.66 242.437,324.123L217.594,298.468L162.124,353.935C157.559,349.697 153.11,345.315 148.75,340.873L204.594,285.029L180.064,259.655C161.784,277.511 143.462,295.715 124.906,314.249C109.838,295.662 96.526,275.491 85.406,253.624L85.405,253.624Z" style="fill:white;fill-rule:nonzero;"/>
    <clipPath id="_clip1">
        <path d="M19.75,14.438C79.288,126.728 162.26,216.788 252.03,307.156L255.656,310.906L255.719,310.844C277.546,332.774 299.759,354.767 322.124,377.094C303.268,391.907 283.15,405.294 262.186,417.406L290.718,445.936L359.435,377.219C401.772,404.855 435.721,440.865 463.529,483.029L491.593,454.969C449.123,427.476 411.853,394.763 385.563,351.093L454.499,282.155L425.969,253.625C414.854,275.478 401.556,295.64 386.499,314.218C342.647,270.418 300.037,228.376 256.374,188.748C256.15,188.545 255.942,188.326 255.718,188.123C183.624,122.75 108.515,63.91 19.75,14.437L19.75,14.438ZM491.625,14.438C408.587,60.718 337.503,115.218 269.655,175.594L292.469,197.156L349.279,140.344L362.499,153.531L306.061,209.971L330.655,233.157C392.457,166.237 448.255,96.237 491.625,14.437L491.625,14.438ZM162.095,140.344L362.655,340.874C358.295,345.317 353.815,349.667 349.25,353.906L148.875,153.53L162.095,140.344ZM85.405,253.624L56.905,282.156L125.812,351.062C99.522,394.735 62.282,427.476 19.812,454.969L47.875,483.029C75.682,440.865 109.633,404.855 151.969,377.219L220.687,445.936L249.217,417.406C228.255,405.293 208.137,391.906 189.28,377.093C207.145,359.263 224.89,341.66 242.437,324.123L217.594,298.468L162.124,353.935C157.559,349.697 153.11,345.315 148.75,340.873L204.594,285.029L180.064,259.655C161.784,277.511 143.462,295.715 124.906,314.249C109.838,295.662 96.526,275.491 85.406,253.624L85.405,253.624Z" clip-rule="nonzero"/>
    </clipPath>
    <g clip-path="url(#_clip1)">
        <path d="M491.625,14.438C448.255,96.238 392.457,166.237 330.655,233.157L306.061,209.971L362.499,153.531L349.279,140.344L292.469,197.156L269.655,175.594C337.503,115.218 408.587,60.718 491.625,14.438Z" style="fill:rgb(242,234,189);"/>
        <path d="M19.75,14.438C108.515,63.911 183.624,122.75 255.718,188.123C255.942,188.326 256.15,188.545 256.374,188.748C300.037,228.376 342.647,270.418 386.499,314.218C401.556,295.64 414.854,275.478 425.969,253.625L454.499,282.155L385.563,351.093C411.853,394.763 449.123,427.476 491.593,454.969L463.529,483.029C435.721,440.865 401.772,404.855 359.435,377.219L290.718,445.936L262.186,417.406C283.15,405.294 303.268,391.907 322.124,377.094C299.759,354.767 277.546,332.774 255.719,310.844L255.656,310.906L252.03,307.156C162.26,216.788 79.288,126.728 19.75,14.438ZM162.095,140.344L148.875,153.53L349.25,353.906C353.815,349.667 358.295,345.317 362.655,340.874L162.095,140.344Z" style="fill:rgb(242,234,189);"/>
        <path d="M85.406,253.624C96.526,275.491 109.838,295.662 124.906,314.249C143.462,295.715 161.784,277.511 180.064,259.655L204.594,285.029L148.75,340.873C153.11,345.315 157.559,349.697 162.124,353.935L217.594,298.468L242.437,324.123C224.89,341.66 207.145,359.263 189.28,377.093C208.137,391.906 228.255,405.293 249.217,417.406L220.687,445.936L151.969,377.219C109.633,404.855 75.682,440.865 47.875,483.029L19.812,454.969C62.282,427.476 99.522,394.735 125.812,351.062L56.905,282.156L85.406,253.624Z" style="fill:rgb(242,234,189);"/>
    </g>
</svg>
