<?xml version="1.0" encoding="UTF-8" standalone="no"?>
<!DOCTYPE svg PUBLIC "-//W3C//DTD SVG 1.1//EN" "http://www.w3.org/Graphics/SVG/1.1/DTD/svg11.dtd">
<svg width="100%" height="100%" viewBox="0 0 512 512" version="1.1" xmlns="http://www.w3.org/2000/svg" xmlns:xlink="http://www.w3.org/1999/xlink" xml:space="preserve" xmlns:serif="http://www.serif.com/" style="fill-rule:evenodd;clip-rule:evenodd;stroke-linejoin:round;stroke-miterlimit:2;">
    <g>
        <rect x="-19" y="-7" width="532" height="534" style="fill:rgb(9,41,59);"/>
    </g>
    <path d="M38.676,18.352L38.676,122.57L167.723,251.615L167.723,18.352L79.727,18.352L79.729,117.695L61.04,117.695L61.04,18.352L38.675,18.352L38.676,18.352ZM186.41,18.352L186.41,263.145L327.906,263.145L327.906,18.352L186.41,18.352ZM346.594,18.352L346.594,249.297L473.322,122.57L473.322,18.352L453.504,18.352L453.506,117.695L434.816,117.695L434.814,18.352L346.594,18.352ZM429.746,192.576L411.286,211.036L411.289,291.713L392.6,291.713L392.598,229.721L340.484,281.835L326.852,281.835L326.852,404.305L429.746,301.41L429.746,192.576ZM82.254,192.578L82.254,301.412L186.662,405.818L186.662,281.834L171.512,281.834L119.885,230.209L119.887,291.712L101.2,291.712L101.197,211.52L82.254,192.578ZM206.377,227.703L307.584,227.703L307.584,246.393L206.377,246.393L206.377,227.703ZM205.35,281.833L205.35,413.91L308.166,413.91L308.166,281.834L205.35,281.834L205.35,281.833ZM121.8,367.391L121.8,493.737L201.826,493.737L201.826,432.599L187.01,432.599L158.93,404.519L158.932,469.962L140.242,469.962L140.24,385.83L121.8,367.393L121.8,367.391ZM390.143,367.446L372.993,384.596L372.993,469.962L354.305,469.962L354.303,403.285L324.988,432.6L311.688,432.6L311.688,493.738L390.143,493.738L390.143,367.446ZM226.037,376.966L290.99,376.966L290.99,395.653L226.037,395.653L226.037,376.966ZM220.517,432.599L220.517,493.737L293,493.737L293,432.599L220.516,432.599L220.517,432.599Z" style="fill:rgb(242,234,189);fill-rule:nonzero;"/>
</svg>
