<?xml version="1.0" encoding="UTF-8" standalone="no"?>
<!DOCTYPE svg PUBLIC "-//W3C//DTD SVG 1.1//EN" "http://www.w3.org/Graphics/SVG/1.1/DTD/svg11.dtd">
<svg width="100%" height="100%" viewBox="0 0 512 512" version="1.1" xmlns="http://www.w3.org/2000/svg" xmlns:xlink="http://www.w3.org/1999/xlink" xml:space="preserve" xmlns:serif="http://www.serif.com/" style="fill-rule:evenodd;clip-rule:evenodd;stroke-linejoin:round;stroke-miterlimit:2;">
    <rect x="-34" y="-19" width="569" height="536" style="fill:rgb(9,41,59);"/>
    <path d="M341.552,242.585L320.355,263.782L409.741,353.168L430.938,331.971L341.552,242.585ZM327.933,140.775L315.321,128.162C312.346,126.525 308.621,127.055 306.221,129.458L84.337,351.342C76.712,358.967 80.848,399.239 94.03,412.421L98.096,416.487C102.624,420.987 109.793,421.606 115.024,417.947C116.991,416.26 128.206,412.99 130.438,426.664L138.313,480.102C139.334,487.024 145.868,491.881 152.791,490.864L174.027,482.444C175.615,481.849 177.063,480.932 178.28,479.751C181.114,476.918 182.09,472.821 181.363,468.411C180.403,462.627 173.005,462.393 172.263,455.518L164.818,405.662L191.72,378.759C194.726,375.753 196.417,371.671 196.417,367.419C196.417,363.167 194.726,359.085 191.72,356.079L184.423,348.782L262.617,270.588C268.667,264.538 268.667,254.582 262.617,248.532L252.51,238.425C254.328,236.607 255.772,236.724 256.709,237.223L258.106,238.62C262.422,242.936 269.524,242.936 273.84,238.62L281.137,231.323L304.488,254.674L332.421,226.742L291.127,185.448L326.669,149.906C329.072,147.495 329.593,143.758 327.941,140.782L327.933,140.775ZM158.215,372.928L172.263,358.88C174.204,356.939 176.839,355.847 179.584,355.847C182.329,355.847 184.964,356.939 186.905,358.88L188.973,360.948C190.914,362.889 192.006,365.524 192.006,368.269C192.006,371.014 190.914,373.649 188.973,375.59L174.924,389.638C170.908,393.653 164.3,393.653 160.284,389.638L158.214,387.57C154.22,383.55 154.231,376.959 158.238,372.952L158.215,372.928ZM221.9,234.242C225.325,237.667 225.325,243.304 221.9,246.729L133.966,334.663C132.306,336.353 130.035,337.306 127.666,337.306C122.822,337.306 118.836,333.32 118.836,328.476C118.836,326.107 119.789,323.836 121.479,322.176L209.413,234.242C212.838,230.817 218.475,230.817 221.9,234.242ZM399.798,40.173L391.798,27.881C391.307,27.152 391.045,26.294 391.045,25.415C391.045,22.993 393.038,21 395.46,21C396.133,21 396.798,21.154 397.402,21.45L413.3,30.355L419.052,24.603L431.469,37.02L400.641,67.848C396.355,74.866 395.794,83.564 399.142,91.075C399.742,92.331 399.489,93.838 398.51,94.829C397.226,96.113 395.112,96.113 393.828,94.829L383.76,84.76L340.327,128.192L327.894,115.759L399.462,44.191L399.798,40.173Z" style="fill:rgb(242,234,189);fill-rule:nonzero;"/>
</svg>
