<?xml version="1.0" encoding="UTF-8" standalone="no"?>
<!DOCTYPE svg PUBLIC "-//W3C//DTD SVG 1.1//EN" "http://www.w3.org/Graphics/SVG/1.1/DTD/svg11.dtd">
<svg width="100%" height="100%" viewBox="0 0 512 512" version="1.1" xmlns="http://www.w3.org/2000/svg" xmlns:xlink="http://www.w3.org/1999/xlink" xml:space="preserve" xmlns:serif="http://www.serif.com/" style="fill-rule:evenodd;clip-rule:evenodd;stroke-linejoin:round;stroke-miterlimit:2;">
    <rect x="-28" y="-23" width="558" height="585" style="fill:rgb(9,41,59);"/>
    <g transform="matrix(1.64845,0,0,1.64845,-43.1183,-189.355)">
        <path d="M141.51,156.303L157.517,163.58L154.687,173.571L119.789,173.661C120.164,164.063 129.718,156.345 141.499,156.314L141.51,156.303Z" style="fill:rgb(242,234,189);fill-rule:nonzero;"/>
    </g>
    <g transform="matrix(1.64845,0,0,1.64845,-43.1183,-189.355)">
        <path d="M295.798,293.927L295.536,192.017L88.016,192.548C84.476,192.559 81.223,194.545 79.596,197.69L65.091,225.672L64.952,258.844C64.976,268.053 72.763,268.103 110.363,268.007L112.173,268.003C126.69,267.965 144.34,279.995 139.594,293.504C137.6,299.183 101.517,354.811 101.517,354.811C99.779,357.612 100.206,361.272 102.542,363.597C103.044,364.096 103.618,364.517 104.244,364.847L140.965,384.193C141.838,384.792 142.851,385.153 143.905,385.242C148.11,385.232 145.804,374.984 148.618,368.246C151.432,361.508 159.284,345.161 167.089,329.119C168.032,327.184 170.003,325.95 172.156,325.946C172.873,325.946 173.583,326.084 174.248,326.352C180.985,329.048 215.15,332.003 217.853,331.996L217.911,331.996C225.828,331.788 237.475,307.279 240.368,299.331C241.516,296.178 244.529,294.066 247.885,294.061L295.821,293.939L295.798,293.927Z" style="fill:rgb(242,234,189);fill-rule:nonzero;"/>
    </g>
    <g transform="matrix(1.64845,0,0,1.64845,-43.1183,-189.355)">
        <path d="M174.252,314.418C176.575,309.678 178.912,304.946 181.264,300.222C183.085,296.544 186.846,294.202 190.951,294.195L229.714,294.097C230.984,294.093 232.205,294.595 233.106,295.491C234.429,296.808 234.868,298.781 234.228,300.533C231.534,307.917 222.467,326.546 217.733,326.663L217.404,326.665C211.766,326.679 183.087,324.109 177.078,321.752C176.413,321.484 175.81,321.086 175.302,320.58C173.677,318.964 173.262,316.474 174.275,314.417L174.252,314.418Z" style="fill:rgb(9,41,59);fill-rule:nonzero;"/>
    </g>
    <g transform="matrix(1.64845,0,0,1.64845,-43.1183,-189.355)">
        <path d="M269.074,229.215C269.08,231.707 268.096,234.101 266.339,235.867C264.582,237.633 262.192,238.63 259.7,238.636L119.921,238.993C117.429,238.999 115.035,238.014 113.269,236.257C109.615,232.621 109.599,226.622 113.235,222.968C114.992,221.202 117.381,220.204 119.873,220.198L259.652,219.841C262.156,219.826 264.564,220.811 266.339,222.576C268.105,224.334 269.102,226.722 269.108,229.214L269.074,229.215Z" style="fill:rgb(9,41,59);fill-rule:nonzero;"/>
    </g>
</svg>
