<?xml version="1.0" encoding="UTF-8" standalone="no"?>
<!DOCTYPE svg PUBLIC "-//W3C//DTD SVG 1.1//EN" "http://www.w3.org/Graphics/SVG/1.1/DTD/svg11.dtd">
<svg width="100%" height="100%" viewBox="0 0 512 512" version="1.1" xmlns="http://www.w3.org/2000/svg" xmlns:xlink="http://www.w3.org/1999/xlink" xml:space="preserve" xmlns:serif="http://www.serif.com/" style="fill-rule:evenodd;clip-rule:evenodd;stroke-linejoin:round;stroke-miterlimit:2;">
    <g>
        <rect x="-18" y="-11" width="538" height="525" style="fill:rgb(9,41,59);"/>
    </g>
    <path d="M421.938,24.406C416.288,24.742 411.311,26.131 410.063,33.313L425.656,51.875L188.626,245.155C188.616,245.155 188.604,245.159 188.594,245.155C177.29,244.877 171.804,252.833 170.031,256.655C160.721,276.735 155.004,298.295 143.126,318.625C106.996,351.785 61.162,382.627 32.376,416.938C49.656,440.762 73.216,461.458 93.626,483.718C101.886,483.215 106.49,473.985 112.532,468.156C139.27,417.666 158.724,371.738 190.064,324.936C201.92,317.319 216.286,309.916 222.846,301.844C223.578,302.136 224.344,302.335 225.126,302.438C230.691,303.203 235.066,304.698 238.252,306.906C241.035,308.836 243.164,311.379 244.846,315.626C239.946,343.63 248.516,358.478 252.096,372.219C253.379,377.191 258.473,380.269 263.471,379.093L307.971,368.687C312.25,367.682 315.3,363.834 315.3,359.438C315.3,357.733 314.841,356.06 313.971,354.593C306.311,341.733 302.307,323.593 298.876,303.968C316.384,298.558 327.778,285.488 338.001,275.06C339.025,274.003 339.387,272.462 338.939,271.06L330.939,245.904L347.126,232.434C347.9,231.784 348.565,231.014 349.096,230.154C382.273,254.064 416.936,275.418 456.813,287.842L466.095,263.342C428.203,250.592 382.315,224.41 354.251,197.622L359.939,191.686L458.126,88.842L463.97,82.717L458.562,76.217L457.937,75.435L482.781,50L474.251,41.47L455.721,57.438L421.938,24.406ZM325.563,162.47L331.593,171.094L304.593,194.094C304.583,194.104 304.573,194.114 304.563,194.124L228.281,258.906L220.501,250.312L325.564,162.469L325.563,162.47ZM324.313,251.406L330.593,271.186C320.928,281.13 311.328,291.403 297.5,296C296.424,289.542 295.357,282.98 294.22,276.437L324.312,251.407L324.313,251.406Z" style="fill:rgb(242,234,189);fill-rule:nonzero;"/>
</svg>
