<?xml version="1.0" encoding="UTF-8" standalone="no"?>
<!DOCTYPE svg PUBLIC "-//W3C//DTD SVG 1.1//EN" "http://www.w3.org/Graphics/SVG/1.1/DTD/svg11.dtd">
<svg width="100%" height="100%" viewBox="0 0 512 512" version="1.1" xmlns="http://www.w3.org/2000/svg" xmlns:xlink="http://www.w3.org/1999/xlink" xml:space="preserve" xmlns:serif="http://www.serif.com/" style="fill-rule:evenodd;clip-rule:evenodd;stroke-linejoin:round;stroke-miterlimit:2;">
    <g>
        <path d="M291.28,113.14C270.175,112.943 244.776,117.92 215.094,128.678L153.784,226.298C152.149,228.902 149.289,230.494 146.214,230.512L40.564,231.125L40.842,349.505L135.328,350.248C139.242,350.279 142.707,352.861 143.858,356.602C151.815,382.457 170.492,397.15 192.955,406.252C211.585,413.802 232.525,416.964 250.029,418.202C249.105,408.535 249.155,397.356 251.719,386.692C253.564,379.026 256.789,371.478 262.562,365.462C267.227,360.598 273.626,357.037 281.128,355.562C278.711,346.812 279.228,337.998 281.486,330.148C284.844,318.475 290.954,308.034 295.596,298.295C295.597,298.287 295.597,298.278 295.598,298.27C296.502,289.38 295.988,278.133 297.613,267.346C298.426,261.952 299.788,256.54 302.756,251.543C304.768,248.18 307.481,245.29 310.711,243.07L298.951,213.537C291.197,242.833 275.181,262.87 258.686,275.75C247.52,284.467 236.238,290.083 227.191,293.742C218.145,297.402 210.301,299.5 209.754,299.697L203.65,282.764C207.458,281.391 212.515,280.261 220.44,277.054C228.367,273.849 238.13,268.962 247.607,261.564C266.562,246.764 284.691,222.501 285.767,178.484C285.884,173.63 289.909,169.701 294.764,169.701C298.443,169.701 301.767,171.956 303.127,175.374L329.277,241.044C342.659,247.328 352.063,247.554 360.542,245.012C368.27,242.695 375.73,237.452 383.554,231.5C380.354,204.797 372.584,177.735 362.494,150.38C349.601,130.15 332.237,118.46 307.994,114.51C302.758,113.657 297.184,113.196 291.276,113.14L291.28,113.14ZM419.705,147.426L382.539,152.854C391.017,176.9 397.824,201.159 401.119,225.686C426.466,229.903 437.437,224.824 455.841,219.988C461.421,199.444 463.595,181.698 459.704,170.273C457.604,164.108 454.201,159.477 447.954,155.539C441.857,151.695 432.696,148.709 419.704,147.425L419.705,147.426ZM453.309,239.226C438.114,243.429 423.016,247.541 397.853,243.383C388.663,250.543 378.641,258.379 365.713,262.253C353.198,266.006 338.297,265.293 321.526,257.461C320.044,258.201 319.178,259.148 318.233,260.737C317.039,262.747 316.027,265.953 315.413,270.027C314.483,276.197 314.361,284.15 313.946,292.294C356.216,303.832 398.352,310.922 440.37,312.074C451.234,303.794 458.99,294.356 461.96,283.282C465.033,271.815 463.577,257.772 453.31,239.227L453.309,239.226ZM309.969,310.023C305.499,319.22 300.937,327.643 298.786,335.123C296.052,344.628 296.099,351.548 303.926,360.823C334.559,380.203 369.634,386.416 406.364,391.287C419.344,382.681 430.65,374.043 435.786,365.154C441.086,355.984 442.096,346.5 432.076,329.82C391.266,328.034 350.558,321.052 309.97,310.023L309.969,310.023ZM290.026,372.403C289.254,372.657 288.452,372.805 287.64,372.843C281.676,373.173 278.36,374.997 275.553,377.923C272.747,380.847 270.561,385.333 269.221,390.903C266.913,400.5 267.411,412.687 268.728,422.093C298.062,436.277 327.823,447.383 361.792,448.503C381.134,444.446 387.985,438.269 391.979,430.793C395.079,424.991 396.242,417.279 397.793,408.343C362.063,403.428 325.766,396.448 292.943,375.233C292.256,374.789 291.633,374.253 291.091,373.641C290.727,373.231 290.375,372.818 290.031,372.403L290.026,372.403Z" style="fill:rgb(242,234,189);fill-rule:nonzero;"/>
    </g>
</svg>
