<?xml version="1.0" encoding="UTF-8" standalone="no"?>
<!DOCTYPE svg PUBLIC "-//W3C//DTD SVG 1.1//EN" "http://www.w3.org/Graphics/SVG/1.1/DTD/svg11.dtd">
<svg width="100%" height="100%" viewBox="0 0 512 512" version="1.1" xmlns="http://www.w3.org/2000/svg" xmlns:xlink="http://www.w3.org/1999/xlink" xml:space="preserve" xmlns:serif="http://www.serif.com/" style="fill-rule:evenodd;clip-rule:evenodd;stroke-linejoin:round;stroke-miterlimit:2;">
    <rect x="0" y="0" width="512" height="512" style="fill:rgb(242,234,189);fill-rule:nonzero;"/>
    <path d="M271.9,25.85C253.5,25.85 235.9,42.58 232.7,66.82C229.3,92.65 244,114.3 263.6,116.7C283.3,119.1 303.1,101.8 306.6,75.93C310.1,50.07 295.1,28.5 275.6,26.08C274.4,25.93 273.1,25.85 271.9,25.85ZM233.7,121.6C195.7,127.9 158.5,163.5 139.7,187.6C128.2,221 125.2,254.3 119,287.6L147.2,286.8C153.8,261.6 155.4,234.9 168.2,211.4C183,203.2 195.1,190.8 206.6,177.6C200.2,210.5 192.6,249.9 193.4,279.4C223.2,350.3 289.1,419.8 326.4,485.8L356.3,461.5C327.5,405.8 298.8,355.1 262,301.3C264.1,294.2 305.3,137.8 290,129.4C269.8,138.4 249.1,135.4 233.7,121.6ZM305.6,180.2C302.5,198 300.3,215.3 295.6,233C300.1,238.4 303.1,243.5 309.9,248.3C335.9,263.6 361.9,274.6 387.9,285L397.1,255.1L319.6,217.5C315.3,205 311.7,192.3 305.6,180.2ZM187.1,310.1C182,335.1 177.3,360.3 175.5,386.6C159.6,418.3 139.8,438.2 115,463L145,486.2C168.1,461.2 194.9,439.2 211.7,412.4L225.7,369.8C210,350.8 197.3,331 187.1,310.1Z" style="fill:white;fill-rule:nonzero;"/>
    <clipPath id="_clip1">
        <path d="M271.9,25.85C253.5,25.85 235.9,42.58 232.7,66.82C229.3,92.65 244,114.3 263.6,116.7C283.3,119.1 303.1,101.8 306.6,75.93C310.1,50.07 295.1,28.5 275.6,26.08C274.4,25.93 273.1,25.85 271.9,25.85ZM233.7,121.6C195.7,127.9 158.5,163.5 139.7,187.6C128.2,221 125.2,254.3 119,287.6L147.2,286.8C153.8,261.6 155.4,234.9 168.2,211.4C183,203.2 195.1,190.8 206.6,177.6C200.2,210.5 192.6,249.9 193.4,279.4C223.2,350.3 289.1,419.8 326.4,485.8L356.3,461.5C327.5,405.8 298.8,355.1 262,301.3C264.1,294.2 305.3,137.8 290,129.4C269.8,138.4 249.1,135.4 233.7,121.6ZM305.6,180.2C302.5,198 300.3,215.3 295.6,233C300.1,238.4 303.1,243.5 309.9,248.3C335.9,263.6 361.9,274.6 387.9,285L397.1,255.1L319.6,217.5C315.3,205 311.7,192.3 305.6,180.2ZM187.1,310.1C182,335.1 177.3,360.3 175.5,386.6C159.6,418.3 139.8,438.2 115,463L145,486.2C168.1,461.2 194.9,439.2 211.7,412.4L225.7,369.8C210,350.8 197.3,331 187.1,310.1Z" clip-rule="nonzero"/>
    </clipPath>
    <g clip-path="url(#_clip1)">
        <path d="M271.9,25.85C273.1,25.85 274.4,25.93 275.6,26.08C295.1,28.5 310.1,50.07 306.6,75.93C303.1,101.8 283.3,119.1 263.6,116.7C244,114.3 229.3,92.65 232.7,66.82C235.9,42.58 253.5,25.85 271.9,25.85Z" style="fill:rgb(120,6,17);"/>
        <path d="M233.7,121.6C249.1,135.4 269.8,138.4 290,129.4C305.3,137.8 264.1,294.2 262,301.3C298.8,355.1 327.5,405.8 356.3,461.5L326.4,485.8C289.1,419.8 223.2,350.3 193.4,279.4C192.6,249.9 200.2,210.5 206.6,177.6C195.1,190.8 183,203.2 168.2,211.4C155.4,234.9 153.8,261.6 147.2,286.8L119,287.6C125.2,254.3 128.2,221 139.7,187.6C158.5,163.5 195.7,127.9 233.7,121.6Z" style="fill:rgb(120,6,17);"/>
        <path d="M305.6,180.2C311.7,192.3 315.3,205 319.6,217.5L397.1,255.1L387.9,285C361.9,274.6 335.9,263.6 309.9,248.3C303.1,243.5 300.1,238.4 295.6,233C300.3,215.3 302.5,198 305.6,180.2Z" style="fill:rgb(120,6,17);"/>
        <path d="M187.1,310.1C197.3,331 210,350.8 225.7,369.8L211.7,412.4C194.9,439.2 168.1,461.2 145,486.2L115,463C139.8,438.2 159.6,418.3 175.5,386.6C177.3,360.3 182,335.1 187.1,310.1Z" style="fill:rgb(120,6,17);"/>
    </g>
</svg>
