<?xml version="1.0" encoding="UTF-8" standalone="no"?>
<!DOCTYPE svg PUBLIC "-//W3C//DTD SVG 1.1//EN" "http://www.w3.org/Graphics/SVG/1.1/DTD/svg11.dtd">
<svg width="100%" height="100%" viewBox="0 0 512 512" version="1.1" xmlns="http://www.w3.org/2000/svg" xmlns:xlink="http://www.w3.org/1999/xlink" xml:space="preserve" xmlns:serif="http://www.serif.com/" style="fill-rule:evenodd;clip-rule:evenodd;stroke-linejoin:round;stroke-miterlimit:2;">
    <rect x="0" y="0" width="512" height="512" style="fill:rgb(202,21,39);fill-rule:nonzero;"/>
    <path d="M68.906,19.344C66.292,19.374 63.728,19.642 61.219,20.094C49.235,20.75 38.59,25.42 30.812,33.5C21.155,43.53 16.542,58.27 18.937,74.094C18.949,74.178 18.987,74.259 18.999,74.344C19.707,87.362 25.501,101.22 38.529,114.25L124.655,200.375C154.91,203.103 177.659,227.002 178.561,257.875L178.718,263.5C179.518,269.3 182.978,273.897 187.592,276.28C193.326,279.245 199.979,279.428 207.217,272.188L271.653,207.781C279.373,200.063 278.518,195.068 275.153,189.626C271.788,184.184 263.911,179.532 256.373,179.532L255.968,179.532C225.843,178.236 202.541,156.048 199.468,126.532L112.873,39.939C97.59,24.652 82.44,19.183 68.905,19.345L68.906,19.344ZM65,38.187C70.44,38.217 76.493,39.574 82.97,42.657L175.938,135.625L162.718,148.845L54,40.124C57.284,38.874 60.967,38.164 65,38.186L65,38.187ZM38.344,56.47L146.75,164.843L133.53,178.063L43.125,87.655C39.97,81.813 38.159,76.289 37.405,71.311C36.555,65.691 36.98,60.734 38.345,56.468L38.344,56.47ZM453.22,169.687L455.062,188.28L420.469,170.47C409.019,173.134 398.521,178.23 391.061,185.094C383.863,191.719 379.285,199.638 378.374,209.688L489.937,196.156C486.193,186.848 479.489,180.314 470.687,175.626C465.487,172.856 459.541,170.876 453.217,169.686L453.22,169.687ZM458.812,218.749L415.469,224.029C416.693,237.094 418.449,250.113 420.749,262.969L460.812,233.749C460.23,228.735 459.552,223.741 458.812,218.749ZM270.562,235.312L233.75,272.062L250.375,288.687L287.188,251.937L270.563,235.312L270.562,235.312ZM462.812,255.405L424.844,283.125C427.194,293.507 429.899,303.755 432.969,313.78L463.779,291.313C463.955,279.411 463.625,267.413 462.812,255.406L462.812,255.405ZM288.844,276.685L276.094,289.437L388.406,401.75L391.719,405.063L391.029,409.688L386.687,439.656L459.687,486.344L485.78,460.25L439.094,387.28L409.094,391.625L404.469,392.313L401.155,389L288.843,276.687L288.844,276.685ZM462.75,315.19L439.187,332.377C443.783,345.095 448.965,357.392 454.781,369.127C458.761,351.733 461.396,333.64 462.751,315.189L462.75,315.19ZM136.5,319.47C129.184,319.646 122.335,322.013 115.78,325.97C108.498,330.37 101.798,336.952 96.344,344.752L99.594,381.94L83.064,376.908C81.739,384.663 81.697,392.316 83.124,399.158C85.127,408.746 89.538,416.786 97.719,422.721L143.279,319.971C141.483,319.687 139.709,319.498 137.969,319.471C137.476,319.461 136.987,319.458 136.499,319.471L136.5,319.47ZM146.75,358.252L129.062,398.19C140.892,403.824 152.956,408.988 165.156,413.596L160.594,364.221C156.009,362.158 151.398,360.168 146.75,358.251L146.75,358.252ZM180.25,373.596L184.594,420.44C194.709,423.74 204.884,426.656 215.064,429.158L211.564,391.188C201.434,384.938 190.974,379.051 180.25,373.596ZM231.563,404.316L234.25,433.346C247.51,435.914 260.707,437.763 273.75,438.783C260.858,426.461 246.7,414.931 231.562,404.316L231.563,404.316Z" style="fill:white;fill-rule:nonzero;"/>
    <clipPath id="_clip1">
        <path d="M68.906,19.344C66.292,19.374 63.728,19.642 61.219,20.094C49.235,20.75 38.59,25.42 30.812,33.5C21.155,43.53 16.542,58.27 18.937,74.094C18.949,74.178 18.987,74.259 18.999,74.344C19.707,87.362 25.501,101.22 38.529,114.25L124.655,200.375C154.91,203.103 177.659,227.002 178.561,257.875L178.718,263.5C179.518,269.3 182.978,273.897 187.592,276.28C193.326,279.245 199.979,279.428 207.217,272.188L271.653,207.781C279.373,200.063 278.518,195.068 275.153,189.626C271.788,184.184 263.911,179.532 256.373,179.532L255.968,179.532C225.843,178.236 202.541,156.048 199.468,126.532L112.873,39.939C97.59,24.652 82.44,19.183 68.905,19.345L68.906,19.344ZM65,38.187C70.44,38.217 76.493,39.574 82.97,42.657L175.938,135.625L162.718,148.845L54,40.124C57.284,38.874 60.967,38.164 65,38.186L65,38.187ZM38.344,56.47L146.75,164.843L133.53,178.063L43.125,87.655C39.97,81.813 38.159,76.289 37.405,71.311C36.555,65.691 36.98,60.734 38.345,56.468L38.344,56.47ZM453.22,169.687L455.062,188.28L420.469,170.47C409.019,173.134 398.521,178.23 391.061,185.094C383.863,191.719 379.285,199.638 378.374,209.688L489.937,196.156C486.193,186.848 479.489,180.314 470.687,175.626C465.487,172.856 459.541,170.876 453.217,169.686L453.22,169.687ZM458.812,218.749L415.469,224.029C416.693,237.094 418.449,250.113 420.749,262.969L460.812,233.749C460.23,228.735 459.552,223.741 458.812,218.749ZM270.562,235.312L233.75,272.062L250.375,288.687L287.188,251.937L270.563,235.312L270.562,235.312ZM462.812,255.405L424.844,283.125C427.194,293.507 429.899,303.755 432.969,313.78L463.779,291.313C463.955,279.411 463.625,267.413 462.812,255.406L462.812,255.405ZM288.844,276.685L276.094,289.437L388.406,401.75L391.719,405.063L391.029,409.688L386.687,439.656L459.687,486.344L485.78,460.25L439.094,387.28L409.094,391.625L404.469,392.313L401.155,389L288.843,276.687L288.844,276.685ZM462.75,315.19L439.187,332.377C443.783,345.095 448.965,357.392 454.781,369.127C458.761,351.733 461.396,333.64 462.751,315.189L462.75,315.19ZM136.5,319.47C129.184,319.646 122.335,322.013 115.78,325.97C108.498,330.37 101.798,336.952 96.344,344.752L99.594,381.94L83.064,376.908C81.739,384.663 81.697,392.316 83.124,399.158C85.127,408.746 89.538,416.786 97.719,422.721L143.279,319.971C141.483,319.687 139.709,319.498 137.969,319.471C137.476,319.461 136.987,319.458 136.499,319.471L136.5,319.47ZM146.75,358.252L129.062,398.19C140.892,403.824 152.956,408.988 165.156,413.596L160.594,364.221C156.009,362.158 151.398,360.168 146.75,358.251L146.75,358.252ZM180.25,373.596L184.594,420.44C194.709,423.74 204.884,426.656 215.064,429.158L211.564,391.188C201.434,384.938 190.974,379.051 180.25,373.596ZM231.563,404.316L234.25,433.346C247.51,435.914 260.707,437.763 273.75,438.783C260.858,426.461 246.7,414.931 231.562,404.316L231.563,404.316Z" clip-rule="nonzero"/>
    </clipPath>
    <g clip-path="url(#_clip1)">
        <path d="M68.906,19.345C82.441,19.183 97.59,24.652 112.873,39.939L199.468,126.532C202.541,156.048 225.843,178.236 255.968,179.532L256.373,179.532C263.911,179.532 271.788,184.184 275.153,189.626C278.518,195.068 279.373,200.063 271.653,207.781L207.217,272.188C199.979,279.428 193.326,279.245 187.592,276.28C182.978,273.897 179.518,269.3 178.718,263.5L178.561,257.875C177.659,227.002 154.91,203.103 124.655,200.375L38.529,114.25C25.501,101.22 19.707,87.362 18.999,74.344C18.987,74.259 18.949,74.178 18.937,74.094C16.542,58.27 21.155,43.53 30.812,33.5C38.59,25.42 49.235,20.75 61.219,20.094C63.728,19.642 66.292,19.375 68.906,19.345ZM65,38.186C60.967,38.164 57.284,38.874 54,40.124L162.718,148.845L175.938,135.625L82.97,42.657C76.493,39.574 70.44,38.216 65,38.186ZM38.344,56.47C36.98,60.736 36.555,65.692 37.405,71.311C38.159,76.289 39.97,81.813 43.125,87.655L133.53,178.063L146.75,164.843L38.344,56.47Z" style="fill:rgb(242,234,189);"/>
        <path d="M270.563,235.312L287.188,251.937L250.375,288.687L233.75,272.062L270.563,235.312Z" style="fill:rgb(242,234,189);"/>
        <path d="M136.5,319.47C136.988,319.458 137.476,319.461 137.969,319.471C139.709,319.498 141.483,319.687 143.279,319.971L97.719,422.721C89.538,416.786 85.127,408.746 83.124,399.158C81.697,392.316 81.739,384.663 83.064,376.908L99.594,381.94L96.344,344.752C101.798,336.952 108.498,330.37 115.78,325.97C122.335,322.013 129.184,319.646 136.5,319.47Z" style="fill:rgb(242,234,189);"/>
        <path d="M146.75,358.251C151.398,360.169 156.009,362.158 160.594,364.221L165.156,413.596C152.956,408.988 140.892,403.824 129.062,398.19L146.75,358.251Z" style="fill:rgb(242,234,189);"/>
        <path d="M180.25,373.596C190.974,379.051 201.434,384.938 211.564,391.188L215.064,429.158C204.884,426.656 194.709,423.74 184.594,420.44L180.25,373.596Z" style="fill:rgb(242,234,189);"/>
        <path d="M231.563,404.316C246.7,414.931 260.858,426.461 273.75,438.783C260.707,437.763 247.51,435.914 234.25,433.346L231.563,404.316Z" style="fill:rgb(242,234,189);"/>
        <path d="M288.843,276.687L401.155,389L404.469,392.313L409.094,391.625L439.094,387.28L485.78,460.25L459.687,486.344L386.687,439.656L391.029,409.688L391.719,405.063L388.406,401.75L276.094,289.437L288.843,276.687Z" style="fill:rgb(242,234,189);"/>
        <path d="M453.22,169.687C459.543,170.877 465.488,172.856 470.687,175.626C479.489,180.314 486.193,186.848 489.937,196.156L378.374,209.688C379.285,199.638 383.863,191.719 391.061,185.094C398.521,178.23 409.019,173.134 420.469,170.47L455.062,188.28L453.22,169.687Z" style="fill:rgb(242,234,189);"/>
        <path d="M458.812,218.749C459.552,223.741 460.23,228.735 460.812,233.749L420.749,262.969C418.449,250.113 416.693,237.094 415.469,224.029L458.812,218.749Z" style="fill:rgb(242,234,189);"/>
        <path d="M462.812,255.406C463.625,267.413 463.955,279.411 463.779,291.313L432.969,313.78C429.899,303.755 427.194,293.507 424.844,283.125L462.812,255.406Z" style="fill:rgb(242,234,189);"/>
        <path d="M462.751,315.19C461.395,333.64 458.761,351.733 454.781,369.127C448.965,357.392 443.783,345.095 439.187,332.377L462.751,315.19Z" style="fill:rgb(242,234,189);"/>
    </g>
</svg>
