<?xml version="1.0" encoding="UTF-8" standalone="no"?>
<!DOCTYPE svg PUBLIC "-//W3C//DTD SVG 1.1//EN" "http://www.w3.org/Graphics/SVG/1.1/DTD/svg11.dtd">
<svg width="100%" height="100%" viewBox="0 0 512 512" version="1.1" xmlns="http://www.w3.org/2000/svg" xmlns:xlink="http://www.w3.org/1999/xlink" xml:space="preserve" xmlns:serif="http://www.serif.com/" style="fill-rule:evenodd;clip-rule:evenodd;stroke-linejoin:round;stroke-miterlimit:2;">
    <rect x="-43" y="-21" width="577" height="550" style="fill:rgb(172,15,30);"/>
    <path d="M256,146.572C225.028,146.572 194.056,147.816 163.086,150.275L160,150.275C159.968,150.357 159.937,150.44 159.904,150.521C145.646,151.694 131.39,153.138 117.134,154.831L115.99,154.255C115.863,154.507 115.742,154.759 115.615,155.011C97.919,157.135 80.225,159.646 62.531,162.573L57.061,163.48L55.409,168.77C55.129,169.67 54.863,170.557 54.589,171.45L44,171.45L28,234.982L40.73,234.982C37.07,269.954 41.44,303.114 55.494,343.802L56.774,347.514L60.367,349.098C109.719,370.87 146.281,370.87 195.633,349.098C217.921,339.265 228.627,320.905 236.467,307.082C240.387,300.17 243.773,294.324 246.893,290.9C250.013,287.476 251.938,286.334 256,286.334C260.062,286.334 261.988,287.476 265.107,290.9C268.227,294.324 271.613,300.17 275.533,307.082C283.373,320.905 294.079,339.265 316.367,349.098C365.719,370.87 402.281,370.87 451.633,349.098L455.653,347.324L456.727,343.062C466.929,302.552 470.713,269.759 468.09,234.982L484,234.982L468,171.452L457.268,171.452C457.086,170.717 456.913,169.992 456.728,169.254L455.288,163.534L449.468,162.572C384.992,151.905 320.496,146.572 256,146.572ZM256,164.566C317.532,164.566 379.064,169.608 440.613,179.476C454.525,237.186 454.433,276.246 440.281,334.286C396.171,353.012 368.853,352.578 323.634,332.629C306.884,325.239 298.924,311.836 291.19,298.199C287.322,291.382 283.695,284.573 278.414,278.776C273.134,272.98 265.271,268.333 256,268.333C246.73,268.333 238.867,272.98 233.586,278.776C228.306,284.573 224.678,291.382 220.811,298.2C213.078,311.837 205.117,325.24 188.368,332.63C184.148,334.49 180.083,336.182 176.146,337.705C178.902,277.057 194.471,220.075 217.516,165.235C230.346,164.798 243.173,164.565 256.001,164.565L256,164.566ZM152.814,169.254C132.49,225.61 119.91,285.04 113.457,346.902C105.633,345.784 97.591,343.782 89.004,340.902C90.814,281.808 102.322,225.266 127.457,171.828C135.909,170.878 144.363,170.018 152.814,169.254ZM106.554,174.364C84.318,225.3 73.588,278.795 71.25,333.905C51.892,275.941 53.51,237.552 71.03,179.525C82.872,177.625 94.713,175.905 106.553,174.362L106.554,174.364Z" style="fill:rgb(242,234,189);fill-rule:nonzero;"/>
</svg>
