<?xml version="1.0" encoding="UTF-8" standalone="no"?>
<!DOCTYPE svg PUBLIC "-//W3C//DTD SVG 1.1//EN" "http://www.w3.org/Graphics/SVG/1.1/DTD/svg11.dtd">
<svg width="100%" height="100%" viewBox="0 0 512 512" version="1.1" xmlns="http://www.w3.org/2000/svg" xmlns:xlink="http://www.w3.org/1999/xlink" xml:space="preserve" xmlns:serif="http://www.serif.com/" style="fill-rule:evenodd;clip-rule:evenodd;stroke-linejoin:round;stroke-miterlimit:2;">
    <rect x="-40" y="-19" width="568" height="572" style="fill:rgb(172,15,30);"/>
    <path d="M333.7,21.92C333.7,21.92 347.8,45.41 344,57C340.6,67.38 320.5,66.3 318,76.94C316.1,85.39 325.2,98.43 330.5,105.1L337.3,105.1C344.4,93.89 349.9,83.32 351.3,70.16C359.2,78.42 361.7,91.45 352.4,105.1L360.8,105.1C368.8,95.56 385,74.2 382,60.41C377.7,40.28 333.7,21.92 333.7,21.92ZM104,51.07C86.5,51.07 74.56,56.01 68.51,65.08C62.46,74.15 63,84.07 63,92.07L63,104.1L81,104.1L81,92.07C81,84.07 81.54,77.99 83.49,75.06C85.44,72.13 89.5,69.07 104,69.07L168,69.07C178,69.07 191,81.53 191,93.66L191,215.7L209,215.7L209,187.1L312.3,187.1L313.9,169.1L209,169.1L209,93.66C209,70.61 190,51.07 168,51.07L104,51.07ZM56,121.1L56,139.1L88,139.1L88,121.1L56,121.1ZM336.2,123.1L321.9,281.1L366.1,281.1L351.8,123.1L336.2,123.1ZM72,155.1C62,155.1 52.12,158.5 44.98,164.8C37.83,171.2 33,180.3 33,194.1L33,490.1L111,490.1L111,194.1C111,180.4 106.2,171.2 99,164.8C91.88,158.5 82,155.1 72,155.1ZM379.9,233.1L381.5,251.1L408,251.1C422.5,251.1 431.7,254.6 437.6,260.5C443.5,266.5 447,276 447,290.9L447,330.8C449.8,329.7 452.8,329.1 456,329.1C459.2,329.1 462.2,329.7 465,330.8L465,290.9C465,273 460.5,258.1 450.4,247.9C440.3,237.6 425.5,233.1 408,233.1L379.9,233.1ZM177,235.1L177,249.1L223,249.1L223,235.1L177,235.1ZM200.5,267.1C170.8,267.1 144.7,281.8 129,304.4L129,321.1L271,321.1L271,303C255.2,281.3 229.6,267.1 200.5,267.1ZM289,299.1L289,409.1L399,409.1L399,299.1L289,299.1ZM129,339.1L129,353.1L271,353.1L271,339.1L129,339.1ZM456,347.1C452,347.1 449,350.1 449,354.1C449,358.1 452,361.1 456,361.1C460,361.1 463,358.1 463,354.1C463,350.1 460,347.1 456,347.1ZM129,371.1L129,403.7C135.6,413.2 144,421.3 153.7,427.5L131,473.1L131,490.1L168.5,490.1L168.5,473.1L151.1,473.1L169.9,435.6C179.4,439.1 189.7,441.1 200.5,441.1C211.3,441.1 221.6,439.1 231.1,435.6L249.9,473.1L232.5,473.1L232.5,490.1L296.5,490.1L296.5,473.1L270.1,473.1L247.3,427.5C256.5,421.6 264.6,414 271,405.2L271,371.1L129,371.1ZM447,377.4L447,409.1L465,409.1L465,377.4C462.2,378.5 459.2,379.1 456,379.1C452.8,379.1 449.8,378.5 447,377.4ZM330.7,427.1L380.3,490.1L421.3,490.1L371.7,427.1L330.7,427.1ZM394.7,427.1L444.3,490.1L479,490.1L479,481.2L435.7,427.1L394.7,427.1ZM458.7,427.1L479,452.5L479,427.1L458.7,427.1ZM321,443.7L321,490.1L357.3,490.1L321,443.7Z" style="fill:rgb(242,234,189);fill-rule:nonzero;"/>
</svg>
