<?xml version="1.0" encoding="UTF-8" standalone="no"?>
<!DOCTYPE svg PUBLIC "-//W3C//DTD SVG 1.1//EN" "http://www.w3.org/Graphics/SVG/1.1/DTD/svg11.dtd">
<svg width="100%" height="100%" viewBox="0 0 512 512" version="1.1" xmlns="http://www.w3.org/2000/svg" xmlns:xlink="http://www.w3.org/1999/xlink" xml:space="preserve" xmlns:serif="http://www.serif.com/" style="fill-rule:evenodd;clip-rule:evenodd;stroke-linejoin:round;stroke-miterlimit:2;">
    <rect x="-26" y="-20" width="547" height="540" style="fill:rgb(9,41,59);"/>
    <path d="M256,19C242.2,19 228.1,22.02 214.5,27.48L256,79.44L297.5,27.48C283.9,22.02 269.8,19 256,19ZM196.6,35.96C178.1,46.23 160.7,60.65 145.7,77.7C134.9,89.91 125.5,103.4 120.9,110.1L56.1,197.2L115.2,280.2L95.9,348L167.5,412.2L160.6,384.9L196.7,276.7L156,303.8L80.02,197.5L122.3,141.2L219.7,189.9L292.4,189.9L389.8,141.2L432.1,197.5L356.1,303.8L315.3,276.6L316.3,279.8L351.5,384.9L344.6,412.2L416.1,348L396.7,280.2L455.9,197.2L391.1,110.1C386.5,103.4 377.1,89.91 366.3,77.7C351.3,60.65 333.9,46.23 315.4,35.96L256,110.2L196.6,35.96ZM211.7,292.4L206.7,307.4L305.3,307.4L300.3,292.4L211.7,292.4ZM200.2,326.6L183.9,375.7L328.1,375.7L311.7,326.6L200.2,326.6ZM182.9,394.9L195.2,444.1L316.8,444.1L329,394.9L182.9,394.9ZM216.5,463.3L256,493L295.5,463.3L216.5,463.3Z" style="fill:rgb(242,234,189);fill-rule:nonzero;"/>
</svg>
