<?xml version="1.0" encoding="UTF-8" standalone="no"?>
<!DOCTYPE svg PUBLIC "-//W3C//DTD SVG 1.1//EN" "http://www.w3.org/Graphics/SVG/1.1/DTD/svg11.dtd">
<svg width="100%" height="100%" viewBox="0 0 512 512" version="1.1" xmlns="http://www.w3.org/2000/svg" xmlns:xlink="http://www.w3.org/1999/xlink" xml:space="preserve" xmlns:serif="http://www.serif.com/" style="fill-rule:evenodd;clip-rule:evenodd;stroke-linejoin:round;stroke-miterlimit:2;">
    <g transform="matrix(1,0,0,1.04175,0,0.626186)">
        <rect x="-17" y="-15" width="534" height="527" style="fill:rgb(172,15,30);"/>
    </g>
    <path d="M245,29L245,55L267,55L267,29L245,29ZM105,62.563L105,93.437L119,86.437L119,69.564L105,62.564L105,62.563ZM407,62.563L393,69.563L393,86.437L407,93.437L407,62.563ZM137,69L137,87L227,87L227,69L137,69ZM285,69L285,87L375,87L375,69L285,69ZM245,73L245,87L267,87L267,73L245,73ZM359,99.416L359,119.592C373.247,128.004 383.376,138.855 391.05,151.539C404.606,173.943 410.088,202.855 413.041,233.865C415.994,264.875 416.463,297.76 421.365,328.076C423.687,342.436 427.045,356.346 432.293,369.136C436.53,364.746 441.958,361.514 448.039,359.986C443.991,349.497 441.175,337.823 439.135,325.203C434.537,296.773 434.005,264.153 430.959,232.158C427.912,200.164 422.394,168.572 406.449,142.221C395.851,124.705 380.449,109.865 359,99.416ZM128.922,105C122.28,110.152 116.612,116.225 111.896,123C96.113,145.68 89.989,174.968 86.49,203.758C82.991,232.548 82.229,261.152 78.963,281.713C77.33,291.993 74.958,300.187 72.217,304.898C69.476,309.61 67.735,310.83 63.613,311.008C58.524,311.227 55.493,310.048 52.701,307.783C49.909,305.517 47.343,301.723 45.332,296.346C41.311,285.592 39.969,269.116 40.523,252.356C41.295,229.042 45.32,205.533 47.723,193.213C50.749,192.431 53.342,190.906 55.512,189.334C59.089,186.744 61.961,183.636 64.436,180.615C69.385,174.574 72.756,168.543 72.756,168.543L57.082,159.693C57.082,159.693 54.263,164.626 50.51,169.207C48.633,171.497 46.526,173.618 44.955,174.756C44.35,175.194 44.038,175.311 43.752,175.437C43.517,175.244 43.266,175.064 42.814,174.5C41.622,173.009 40.169,170.436 38.982,167.758C36.609,162.402 35.219,156.955 35.219,156.955L17.756,161.316C17.756,161.316 19.388,167.97 22.526,175.051C24.094,178.591 26.019,182.319 28.76,185.744C29.297,186.411 29.861,187.056 30.45,187.678C27.994,199.874 23.398,225.633 22.533,251.76C21.939,269.718 22.924,287.813 28.473,302.65C31.247,310.069 35.276,316.823 41.359,321.76C47.443,326.696 55.569,329.372 64.387,328.992C74.547,328.555 83.018,322.128 87.775,313.952C92.532,305.774 94.945,295.838 96.74,284.537C100.33,261.936 100.998,233.577 104.357,205.93C107.717,178.282 113.882,151.658 126.672,133.281C133.405,123.607 141.723,115.897 153,110.963L153,105L128.922,105ZM171,105L171,135.818C175.312,135.275 179.654,135.002 184,135C188.354,135 192.708,135.278 197,135.818L197,105L171,105ZM315,105L315,135.818C319.312,135.275 323.654,135.002 328,135C332.354,135 336.708,135.278 341,135.818L341,105L315,105ZM184,153C156.5,153 129,166 129,192L129,215L239,215L239,192C239,166 211.5,153 184,153ZM328,153C300.5,153 273,166 273,192L273,215L383,215L383,192C383,166 355.5,153 328,153ZM129,233L129,263L383,263L383,233L129,233ZM129,281L129,343L239,343L239,281L129,281ZM273,281L273,343L383,343L383,281L273,281ZM129,361L129,391L383,391L383,361L129,361ZM456,377C447.61,377 441,383.61 441,392C441,400.39 447.61,407 456,407C464.39,407 471,400.39 471,392C471,383.61 464.39,377 456,377ZM129,409L129,487L239,487L239,409L129,409ZM273,409L273,487L383,487L383,409L273,409Z" style="fill:rgb(242,234,189);fill-rule:nonzero;"/>
</svg>
