<?xml version="1.0" encoding="UTF-8" standalone="no"?>
<!DOCTYPE svg PUBLIC "-//W3C//DTD SVG 1.1//EN" "http://www.w3.org/Graphics/SVG/1.1/DTD/svg11.dtd">
<svg width="100%" height="100%" viewBox="0 0 512 512" version="1.1" xmlns="http://www.w3.org/2000/svg" xmlns:xlink="http://www.w3.org/1999/xlink" xml:space="preserve" xmlns:serif="http://www.serif.com/" style="fill-rule:evenodd;clip-rule:evenodd;stroke-linejoin:round;stroke-miterlimit:2;">
    <path d="M19.36,19.457L18.98,47.297L286.107,202.047L227.404,221.963L285.006,241.323L142.12,383.546L122.906,364.333L71.436,478.657L194.561,435.175L177.069,416.225L328.937,264.355L341.37,307.433L364.346,238.933L421.021,222.368L363.546,206.876L340.612,127.048L326.467,175.314L57.817,19.904L19.363,19.458L19.36,19.457ZM370.614,81.94C366.084,81.96 361.579,82.06 357.104,82.242C353.829,82.376 350.576,82.562 347.344,82.789L378.594,191.575L482.644,219.62C488.848,180.535 491.546,139.345 491.824,99.545C456.37,88.82 415.098,82.257 375.15,81.95C373.636,81.938 372.123,81.935 370.613,81.94L370.614,81.94ZM333.744,84.04C301.754,87.693 272.731,96.193 250.73,109.91L315.223,147.22L333.743,84.04L333.744,84.04ZM481.924,224.037L378.958,254.13L340.028,370.184L319.76,299.959L280.69,339.026C299.504,374.39 326.79,401.313 366.865,416.63C414.338,398.796 445.431,353.835 464.879,295.03C472.202,272.89 477.784,248.92 481.921,224.037L481.924,224.037Z" style="fill:white;fill-rule:nonzero;"/>
</svg>
