<?xml version="1.0" encoding="UTF-8" standalone="no"?>
<!DOCTYPE svg PUBLIC "-//W3C//DTD SVG 1.1//EN" "http://www.w3.org/Graphics/SVG/1.1/DTD/svg11.dtd">
<svg width="100%" height="100%" viewBox="0 0 512 512" version="1.1" xmlns="http://www.w3.org/2000/svg" xmlns:xlink="http://www.w3.org/1999/xlink" xml:space="preserve" xmlns:serif="http://www.serif.com/" style="fill-rule:evenodd;clip-rule:evenodd;stroke-linejoin:round;stroke-miterlimit:2;">
    <g>
        <rect x="-32" y="-25" width="585" height="571" style="fill:rgb(9,41,59);"/>
    </g>
    <path d="M18.7,18.7L18.7,50.174L26.504,60.027C23.264,65.737 20.73,71.491 18.992,77.147C18.888,77.487 18.8,77.831 18.702,78.172L18.702,106.609C20.094,110.129 22.148,113.371 24.977,116.194C34.869,126.067 49.859,126.51 64.084,122.124C67.038,121.214 70.018,120.076 73.006,118.747L111.9,167.862C109.972,171.978 108.355,176.08 107.09,180.128C101.74,197.234 102.31,214.784 113.7,226.198C125.092,237.608 142.624,238.188 159.66,232.868C160.637,232.562 161.62,232.231 162.602,231.888L228.004,314.475C227.476,316.001 226.979,317.538 226.514,319.085C220.364,339.741 221.024,360.175 234.164,373.34C245.959,385.158 263.67,386.91 281.877,382.506L369.613,493.296L393.453,493.296L391.137,490.373C394.461,480.447 399.677,469.721 406.609,458.923L437.974,493.297L493.3,493.297L493.3,417.825L462.238,390.729C467.72,382.267 472.306,373.742 475.902,365.333L493.299,378.693L493.299,355.133L482.319,346.698C487.995,324.492 486.021,303.206 472.093,289.308C456.93,274.176 433.059,273.223 408.863,280.836C406.026,281.735 403.221,282.73 400.453,283.82L310.96,215.084C311.79,212.801 312.543,210.534 313.2,208.284C318.86,188.884 318.154,169.559 305.67,157.049C293.186,144.539 273.81,143.819 254.68,149.799C248.566,151.709 242.335,154.323 236.098,157.585L176.594,111.882C179.3,106.992 181.514,102.112 183.184,97.325C188.354,82.495 188.75,66.929 178.57,56.728C168.392,46.526 152.826,46.905 138,52.064C130.284,54.749 122.33,58.838 114.46,64.156L55.274,18.7L18.7,18.7ZM156.54,67.256C160.813,67.223 163.75,68.333 165.342,69.928C168.172,72.763 169.474,79.883 165.537,91.172C164.525,94.075 163.187,97.149 161.547,100.324L130.277,76.307C135.132,73.437 139.827,71.219 144.143,69.717C149.081,67.997 153.215,67.281 156.539,67.257L156.54,67.256ZM39.296,76.182L60.911,103.479C60.123,103.761 59.341,104.029 58.575,104.265C48.115,107.49 41.32,106.105 38.177,102.968C35.033,99.83 33.652,93.068 36.857,82.635C37.493,80.565 38.313,78.402 39.297,76.18L39.296,76.182ZM118.016,90.455L151.399,116.095C150.872,116.781 150.313,117.465 149.763,118.148L118.017,90.455L118.016,90.455ZM100.906,123.881L123.346,148.476C122.876,149.134 122.406,149.793 121.95,150.454L100.91,123.88L100.906,123.881ZM166.246,127.503L219.114,168.108C216.919,169.688 214.764,171.323 212.651,173.011L163.878,130.464C164.681,129.48 165.48,128.494 166.246,127.504L166.246,127.503ZM136.31,162.683L174.937,205.017C172.762,206.404 170.537,207.713 168.267,208.94L134.219,165.945C134.897,164.846 135.594,163.758 136.309,162.682L136.31,162.683ZM277.08,164.847C283.908,164.942 289.11,166.915 292.44,170.253C298.125,175.949 299.876,187.203 295.264,203.03L252.78,170.4C255.328,169.33 257.83,168.394 260.254,167.637C266.017,165.837 271.184,164.952 275.694,164.852C276.164,164.842 276.624,164.839 277.08,164.846L277.08,164.847ZM234.742,180.107L287.994,221.011C286.026,224.899 283.758,228.861 281.246,232.847L227.031,185.554C229.54,183.653 232.112,181.836 234.743,180.108L234.742,180.107ZM125.254,184.727L150.114,216.122C138.959,218.807 131.056,217.132 126.93,213L126.928,212.998C122.328,208.388 120.75,199.063 124.926,185.708C125.026,185.386 125.146,185.055 125.254,184.728L125.254,184.727ZM187.738,219.047L244.504,281.259C241.547,285.849 238.841,290.449 236.444,295.034L180.054,223.824C182.624,222.354 185.188,220.757 187.738,219.046L187.738,219.047ZM303.08,232.597L381.488,292.819C375.404,296.213 369.322,300.097 363.311,304.435L295.517,245.295C298.226,241.177 300.75,236.94 303.081,232.597L303.08,232.597ZM437.24,294.87C446.644,294.984 454.034,297.69 458.893,302.537C465.337,308.967 468.003,319.87 465.853,334.055L418.316,297.543C424.494,295.871 430.193,295.005 435.332,294.881C435.968,294.866 436.604,294.863 437.24,294.871L437.24,294.87ZM257.61,295.623L307.93,350.773C301.325,354.946 294.773,358.32 288.527,360.803L249.347,311.326C251.63,306.223 254.4,300.953 257.609,295.623L257.61,295.623ZM397.855,305.391L460.52,353.521C457.46,361.481 453.235,369.841 447.957,378.276L377.852,317.12C384.566,312.53 391.292,308.6 397.855,305.39L397.855,305.391ZM242.43,332.694L268.69,365.856C259.06,366.716 251.778,364.538 247.39,360.142C242.168,354.91 240.076,345.528 242.43,332.695L242.43,332.694ZM320.732,364.806L393.52,444.576C387.016,454.078 381.644,463.709 377.553,473.222L300.566,376.006C307.278,372.991 314.042,369.234 320.732,364.806Z" style="fill:rgb(242,234,189);fill-rule:nonzero;"/>
</svg>
