<?xml version="1.0" encoding="UTF-8" standalone="no"?>
<!DOCTYPE svg PUBLIC "-//W3C//DTD SVG 1.1//EN" "http://www.w3.org/Graphics/SVG/1.1/DTD/svg11.dtd">
<svg width="100%" height="100%" viewBox="0 0 512 512" version="1.1" xmlns="http://www.w3.org/2000/svg" xmlns:xlink="http://www.w3.org/1999/xlink" xml:space="preserve" xmlns:serif="http://www.serif.com/" style="fill-rule:evenodd;clip-rule:evenodd;stroke-linejoin:round;stroke-miterlimit:2;">
    <path d="M295.883,20.338C281.227,20.24 265.673,36.49 258.826,49.963C250.636,66.08 244.666,93.333 253,108.697L239.37,115.18C233.61,111.357 192.994,101.9 175.984,104.432C148.401,111.094 122.994,125.376 97.191,138.272L109.356,164.939C132.486,154.519 152.276,136.475 179.246,134.515C200.779,132.949 213.854,146.05 230.032,153.067C228.966,221.963 213.192,254.242 176.002,313.507C149.474,330.299 114.789,331.234 81.892,336.2L94.512,364.523C135.338,359.103 174.729,354.459 203.459,337.873C261.562,296.106 289.125,275.565 352.002,245.493C382.302,254.923 393.239,284.601 407.032,306.541L431.195,283.911C418.695,256.551 387.045,222.231 352.002,199.845C329.308,206.888 307.914,216.855 287.869,229.855C294.509,205.185 294.519,185.078 286.191,160.407C304.981,167.28 323.083,170.694 340.471,170.544C368.008,150.144 383.155,124.238 403.131,100.478L384,84.564C367.54,103.491 358.03,122.417 334.596,141.344C318.274,140.044 302.341,132.9 286.482,124.654L283.75,117.039C299.16,110.399 313.913,92.955 319.084,78.239C325.637,59.592 320.657,28.183 302.08,21.435C300.05,20.697 297.977,20.351 295.883,20.337L295.883,20.338ZM18,384L18,494L160,494L160,384L18,384ZM352,384L352,494L494,494L494,384L352,384Z" style="fill:white;fill-rule:nonzero;"/>
    <g>
        <clipPath id="_clip1">
            <path d="M295.883,20.338C281.227,20.24 265.673,36.49 258.826,49.963C250.636,66.08 244.666,93.333 253,108.697L239.37,115.18C233.61,111.357 192.994,101.9 175.984,104.432C148.401,111.094 122.994,125.376 97.191,138.272L109.356,164.939C132.486,154.519 152.276,136.475 179.246,134.515C200.779,132.949 213.854,146.05 230.032,153.067C228.966,221.963 213.192,254.242 176.002,313.507C149.474,330.299 114.789,331.234 81.892,336.2L94.512,364.523C135.338,359.103 174.729,354.459 203.459,337.873C261.562,296.106 289.125,275.565 352.002,245.493C382.302,254.923 393.239,284.601 407.032,306.541L431.195,283.911C418.695,256.551 387.045,222.231 352.002,199.845C329.308,206.888 307.914,216.855 287.869,229.855C294.509,205.185 294.519,185.078 286.191,160.407C304.981,167.28 323.083,170.694 340.471,170.544C368.008,150.144 383.155,124.238 403.131,100.478L384,84.564C367.54,103.491 358.03,122.417 334.596,141.344C318.274,140.044 302.341,132.9 286.482,124.654L283.75,117.039C299.16,110.399 313.913,92.955 319.084,78.239C325.637,59.592 320.657,28.183 302.08,21.435C300.05,20.697 297.977,20.351 295.883,20.337L295.883,20.338ZM18,384L18,494L160,494L160,384L18,384ZM352,384L352,494L494,494L494,384L352,384Z"/>
        </clipPath>
        <g clip-path="url(#_clip1)">
            <path d="M295.883,20.338C297.977,20.352 300.05,20.697 302.08,21.435C320.657,28.183 325.637,59.592 319.084,78.239C313.913,92.955 299.16,110.399 283.75,117.039L286.482,124.654C302.341,132.9 318.274,140.044 334.596,141.344C358.03,122.417 367.54,103.491 384,84.564L403.131,100.478C383.155,124.238 368.008,150.144 340.471,170.544C323.083,170.694 304.981,167.28 286.191,160.407C294.519,185.078 294.509,205.185 287.869,229.855C307.914,216.855 329.308,206.888 352.002,199.845C387.045,222.231 418.695,256.551 431.195,283.911L407.032,306.541C393.239,284.601 382.302,254.923 352.002,245.493C289.125,275.565 261.562,296.106 203.459,337.873C174.729,354.459 135.338,359.103 94.512,364.523L81.892,336.2C114.789,331.234 149.474,330.299 176.002,313.507C213.192,254.242 228.966,221.963 230.032,153.067C213.854,146.05 200.779,132.949 179.246,134.515C152.276,136.475 132.486,154.519 109.356,164.939L97.191,138.272C122.994,125.376 148.401,111.094 175.984,104.432C192.994,101.9 233.61,111.357 239.37,115.18L253,108.697C244.666,93.333 250.636,66.08 258.826,49.963C265.673,36.49 281.227,20.24 295.883,20.338Z" style="fill:rgb(242,234,189);"/>
            <rect x="18" y="384" width="142" height="110" style="fill:rgb(242,234,189);"/>
            <rect x="352" y="384" width="142" height="110" style="fill:rgb(242,234,189);"/>
        </g>
    </g>
</svg>
