<?xml version="1.0" encoding="UTF-8" standalone="no"?>
<!DOCTYPE svg PUBLIC "-//W3C//DTD SVG 1.1//EN" "http://www.w3.org/Graphics/SVG/1.1/DTD/svg11.dtd">
<svg width="100%" height="100%" viewBox="0 0 512 512" version="1.1" xmlns="http://www.w3.org/2000/svg" xmlns:xlink="http://www.w3.org/1999/xlink" xml:space="preserve" xmlns:serif="http://www.serif.com/" style="fill-rule:evenodd;clip-rule:evenodd;stroke-linejoin:round;stroke-miterlimit:2;">
    <path d="M55.505,435.172L147.385,435.172L147.385,418.654L55.505,418.654L55.505,435.172ZM320.822,261.735L320.822,212.409L337.34,211.614L337.34,278.253L218.618,278.253C220.776,273.091 222.934,266.897 225.06,261.735L320.822,261.735ZM466.385,76.828L481.334,86.233L466.385,86.233L466.385,76.828ZM79.249,76.942L94.735,76.942L94.735,86.233L79.249,86.233L79.249,76.942ZM259.231,215.392C259.438,224.766 261.699,236.834 269.823,247.85C259.871,245.785 247.111,233.82 239.213,225.406C240.566,221.999 241.815,218.902 242.91,216.187L259.231,215.392ZM124.673,152.304L124.673,102.751L141.191,102.751L141.191,152.304L124.673,152.304ZM190.744,152.304L190.744,102.751L207.262,102.751L207.262,152.304L190.744,152.304ZM69.958,152.304L69.958,102.751L108.156,102.751L108.156,152.304L69.958,152.304ZM157.708,152.304L157.708,102.751L174.227,102.751L174.227,152.304L157.708,152.304ZM96.49,217.488C96.903,205.099 81.882,184.153 65.591,184.153C44.614,184.153 53.998,176.049 64.26,168.823L486,168.823L486,187.9L231.688,200.185C226.712,211.81 208.976,257.161 195.298,292.334L200.077,302.658L190.6,304.516C187.11,313.549 179.1,334.206 175.744,342.93L179.389,352.727L171.129,355.68C158.741,387.993 153.579,402.136 153.579,402.136L53.44,402.136C53.44,402.136 26,393.216 26,385.216C25.876,341.226 95.292,253.476 96.49,217.488ZM223.78,102.75L486,102.75L486,152.303L223.78,152.303L223.78,102.75Z" style="fill:white;fill-rule:nonzero;"/>
    <g>
        <clipPath id="_clip1">
            <path d="M55.505,435.172L147.385,435.172L147.385,418.654L55.505,418.654L55.505,435.172ZM320.822,261.735L320.822,212.409L337.34,211.614L337.34,278.253L218.618,278.253C220.776,273.091 222.934,266.897 225.06,261.735L320.822,261.735ZM466.385,76.828L481.334,86.233L466.385,86.233L466.385,76.828ZM79.249,76.942L94.735,76.942L94.735,86.233L79.249,86.233L79.249,76.942ZM259.231,215.392C259.438,224.766 261.699,236.834 269.823,247.85C259.871,245.785 247.111,233.82 239.213,225.406C240.566,221.999 241.815,218.902 242.91,216.187L259.231,215.392ZM124.673,152.304L124.673,102.751L141.191,102.751L141.191,152.304L124.673,152.304ZM190.744,152.304L190.744,102.751L207.262,102.751L207.262,152.304L190.744,152.304ZM69.958,152.304L69.958,102.751L108.156,102.751L108.156,152.304L69.958,152.304ZM157.708,152.304L157.708,102.751L174.227,102.751L174.227,152.304L157.708,152.304ZM96.49,217.488C96.903,205.099 81.882,184.153 65.591,184.153C44.614,184.153 53.998,176.049 64.26,168.823L486,168.823L486,187.9L231.688,200.185C226.712,211.81 208.976,257.161 195.298,292.334L200.077,302.658L190.6,304.516C187.11,313.549 179.1,334.206 175.744,342.93L179.389,352.727L171.129,355.68C158.741,387.993 153.579,402.136 153.579,402.136L53.44,402.136C53.44,402.136 26,393.216 26,385.216C25.876,341.226 95.292,253.476 96.49,217.488ZM223.78,102.75L486,102.75L486,152.303L223.78,152.303L223.78,102.75Z"/>
        </clipPath>
        <g clip-path="url(#_clip1)">
            <rect x="223.78" y="102.75" width="262.22" height="49.553" style="fill:rgb(242,234,189);"/>
            <path d="M96.49,217.488C96.903,205.099 81.882,184.153 65.591,184.153C44.614,184.153 53.998,176.049 64.26,168.823L486,168.823L486,187.9L231.688,200.185C226.712,211.81 208.976,257.161 195.298,292.334L200.077,302.658L190.6,304.516C187.11,313.549 179.1,334.206 175.744,342.93L179.389,352.727L171.129,355.68C158.741,387.993 153.579,402.136 153.579,402.136L53.44,402.136C53.44,402.136 26,393.216 26,385.216C25.876,341.226 95.292,253.476 96.49,217.488Z" style="fill:rgb(242,234,189);"/>
            <path d="M259.231,215.392C259.438,224.766 261.699,236.834 269.823,247.85C259.871,245.785 247.111,233.82 239.213,225.406C240.566,221.999 241.815,218.902 242.91,216.187L259.231,215.392Z" style="fill:rgb(242,234,189);"/>
            <path d="M320.822,261.735L320.822,212.409L337.34,211.614L337.34,278.253L218.618,278.253C220.776,273.091 222.934,266.897 225.06,261.735L320.822,261.735Z" style="fill:rgb(242,234,189);"/>
            <rect x="55.505" y="418.654" width="91.88" height="16.518" style="fill:rgb(242,234,189);"/>
            <rect x="79.249" y="76.942" width="15.486" height="9.291" style="fill:rgb(242,234,189);"/>
            <rect x="69.958" y="102.751" width="38.198" height="49.553" style="fill:rgb(242,234,189);"/>
            <rect x="124.673" y="102.751" width="16.518" height="49.553" style="fill:rgb(242,234,189);"/>
            <rect x="157.708" y="102.751" width="16.519" height="49.553" style="fill:rgb(242,234,189);"/>
            <rect x="190.744" y="102.751" width="16.518" height="49.553" style="fill:rgb(242,234,189);"/>
            <path d="M466.385,76.828L481.334,86.233L466.385,86.233L466.385,76.828Z" style="fill:rgb(242,234,189);"/>
        </g>
    </g>
</svg>
