<?xml version="1.0" encoding="UTF-8" standalone="no"?>
<!DOCTYPE svg PUBLIC "-//W3C//DTD SVG 1.1//EN" "http://www.w3.org/Graphics/SVG/1.1/DTD/svg11.dtd">
<svg width="100%" height="100%" viewBox="0 0 512 512" version="1.1" xmlns="http://www.w3.org/2000/svg" xmlns:xlink="http://www.w3.org/1999/xlink" xml:space="preserve" xmlns:serif="http://www.serif.com/" style="fill-rule:evenodd;clip-rule:evenodd;stroke-linejoin:round;stroke-miterlimit:2;">
    <rect x="-58" y="-41" width="606" height="595" style="fill:rgb(9,41,59);"/>
    <g>
        <path d="M250.375,21.25C212.183,21.25 181.405,51.994 181.405,90.188C181.405,128.381 212.183,159.156 250.375,159.156C288.567,159.156 319.313,128.381 319.313,90.186C319.313,51.994 288.567,21.25 250.375,21.25ZM247.75,55.03C247.865,55.027 247.98,55.035 248.094,55.03C266.948,54.203 270.55,47.695 283.609,94.488C285.78,102.269 291.689,78.44 288.75,64.062C293.022,65.855 297.51,67.9 302.28,70.219C306.096,85.477 305.83,101.047 299.938,116.312C253.255,127.319 245.884,127.34 201.563,114.718C196.218,99.971 195.533,84.956 199.219,70.218C218.575,60.656 233.291,55.606 247.749,55.028L247.75,55.03ZM345.188,121C343.928,120.97 340.591,121.75 335.531,125.625C335.525,125.631 335.509,125.619 335.501,125.625C332.951,127.58 330.357,129.476 327.721,131.313C312.956,158.955 283.815,177.843 250.376,177.843C216.976,177.843 187.853,158.997 173.063,131.406C170.017,129.747 166.985,128.059 163.97,126.344C159.323,123.702 156.6,123.519 155.313,123.75C154.023,123.98 153.139,124.442 151.656,126.75C148.69,131.366 146.34,143.143 147,156.78C147.66,170.42 150.802,185.956 155.75,199.094C160.698,212.232 167.707,222.769 173.906,227.064C224.716,262.256 273.291,254.542 325.406,226.531C331.792,223.101 339.318,212.764 344.531,199.063C349.746,185.363 352.931,168.725 353.471,154.22C354.009,139.714 351.179,127.24 348.251,123.125C346.787,121.067 346.451,121.029 345.188,121ZM128.25,144.875C107.618,154.115 91.292,170.702 78.594,193.469C83.004,193.652 87.374,194.311 91.594,195.437C103.814,198.697 114.106,205.68 121.656,214.812C126.233,209.782 131.231,205.15 136.594,200.968C131.876,187.014 128.997,171.828 128.314,157.686C128.1,153.294 128.054,149.006 128.25,144.873L128.25,144.875ZM370.97,169.125C369.39,181.53 366.378,194.183 362,205.688C359.587,212.03 356.807,218.081 353.5,223.531C357.09,227.591 360.444,231.901 363.53,236.501C365.85,232.867 368.553,229.494 371.594,226.438L371.594,226.408C379.774,218.228 389.841,212.998 400.438,210.658C392.368,193.818 382.616,179.868 370.968,169.126L370.97,169.125ZM76.31,212.155C65.627,212.199 54.782,216.325 47.998,224.437C40.87,232.96 36.96,246.699 42.81,267.812C42.946,267.719 43.08,267.622 43.217,267.532C51.327,262.059 61.459,258.962 72.403,259.469C76.051,259.637 79.801,260.202 83.591,261.219C94.213,264.064 102.748,269.755 108.871,276.936C116.325,267.006 118.081,256.061 116.185,245.78C113.418,230.793 102.28,217.635 86.778,213.5C83.363,212.592 79.843,212.141 76.31,212.156L76.31,212.155ZM412.81,227.937C412.1,227.95 411.397,227.982 410.685,228.031C401.205,228.684 391.905,232.533 384.81,239.626C374.945,249.513 370.092,265.448 374.935,278.689C378.755,289.129 388.677,299.387 409.905,304.876C409.89,304.699 409.855,304.522 409.842,304.346C408.932,291.336 413.476,277.376 424.562,266.282L424.56,266.252C432.334,258.485 441.533,253.964 450.81,252.252C445.94,240.822 437.353,233.812 427.498,230.314C422.784,228.65 417.809,227.845 412.81,227.939L412.81,227.937ZM311.373,253.907C271.477,270.625 230.196,275.003 189.593,257.219L179.529,296.529C188.437,299.284 195.946,304.356 201.529,310.779C208.884,319.241 213.139,329.764 214.405,340.593C239.635,301.021 284.595,316.379 296.311,369.78C266.163,394.092 265.286,448.29 298.781,469.75C312.761,452.124 332.984,440.06 354.093,437C357.119,436.56 360.183,436.34 363.249,436.312C364.27,436.3 365.291,436.31 366.312,436.344C373.549,436.61 380.769,438.079 387.624,440.906C392.922,424.833 391.697,406.263 384.436,390.75C376.794,395.398 367.349,398.156 356.593,398.156C339.953,398.156 326.443,391.591 317.905,381.562C309.37,371.534 305.66,358.6 306,345.938C306.34,333.276 310.69,320.628 319.25,310.782C320.71,309.11 322.288,307.544 323.97,306.096L311.375,253.908L311.373,253.907ZM458.311,270.125C451.253,270.291 444.341,272.875 437.748,279.469C430.214,287.002 427.898,294.952 428.468,303.061C429.034,311.171 432.954,319.471 438.904,325.749C444.854,332.029 452.642,336.123 460.434,336.749C468.229,337.375 476.322,335.019 484.811,326.529C493.299,318.041 495.656,309.949 495.029,302.155C494.404,294.362 490.309,286.575 484.029,280.625C477.751,274.675 469.452,270.755 461.343,270.187C460.335,270.119 459.323,270.098 458.313,270.124L458.311,270.125ZM70.156,278C63.804,277.898 58.426,279.835 53.686,283.03C46.948,287.577 41.713,295.113 39.25,303.406C36.787,311.699 37.114,320.469 40.47,327.531C43.823,334.595 49.935,340.456 61.53,343.564C73.127,346.671 81.314,344.628 87.75,340.189C94.186,335.749 98.862,328.321 100.875,319.907C102.888,311.494 102.125,302.339 98.562,295.032C94.999,287.727 89.042,282.042 78.75,279.282C76.177,278.594 73.743,278.198 71.437,278.065C71.005,278.04 70.58,278.009 70.157,278.002L70.156,278ZM164.186,312.938C153.532,312.938 146.27,316.896 140.936,323.031C135.606,329.168 132.514,337.791 132.281,346.439C132.049,355.086 134.651,363.485 139.721,369.439C144.788,375.392 152.183,379.469 164.189,379.469C176.194,379.469 183.589,375.392 188.657,369.439C193.725,363.485 196.327,355.086 196.095,346.439C195.862,337.791 192.74,329.169 187.407,323.032C182.074,316.898 174.844,312.94 164.187,312.94L164.186,312.938ZM356.594,312.938C345.938,312.938 338.677,316.896 333.344,323.031C328.011,329.168 324.92,337.791 324.688,346.439C324.455,355.086 327.058,363.485 332.125,369.439C337.193,375.392 344.588,379.469 356.595,379.469C368.599,379.469 375.995,375.392 381.062,369.439C386.132,363.485 388.732,355.086 388.5,346.439C388.267,337.791 385.145,329.169 379.812,323.032C374.48,316.898 367.249,312.94 356.594,312.94L356.594,312.938ZM121.22,375.656C106.105,392.288 101.183,417.586 107.47,438.969C112.65,437.396 117.995,436.539 123.344,436.343C124.364,436.305 125.384,436.303 126.406,436.313C129.471,436.338 132.536,436.56 135.562,436.999C157.624,440.199 178.74,453.215 192.75,472.155C227.33,454.261 230.45,404.298 206.5,376.655C205.402,378.345 204.204,380 202.875,381.561C194.338,391.591 180.827,398.155 164.187,398.155C147.547,398.155 134.037,391.59 125.5,381.561C123.924,379.705 122.493,377.73 121.22,375.655L121.22,375.656ZM124.03,454.969C115.345,455.229 107.177,457.929 99.906,463.561C92.011,469.677 84.931,479.655 80.186,494.905L184.436,494.905C174.24,474.101 153.163,458.441 132.876,455.499C129.881,455.065 126.926,454.881 124.031,454.969L124.03,454.969ZM363.437,454.969C361.245,455.003 359.027,455.173 356.781,455.499C336.494,458.441 315.417,474.101 305.221,494.905L409.471,494.905C404.726,479.655 397.647,469.677 389.751,463.561C382.481,457.931 374.311,455.228 365.626,454.968C364.897,454.95 364.167,454.95 363.438,454.968L363.437,454.969Z" style="fill:rgb(242,234,189);"/>
    </g>
</svg>
