<?xml version="1.0" encoding="UTF-8" standalone="no"?>
<!DOCTYPE svg PUBLIC "-//W3C//DTD SVG 1.1//EN" "http://www.w3.org/Graphics/SVG/1.1/DTD/svg11.dtd">
<svg width="100%" height="100%" viewBox="0 0 512 512" version="1.1" xmlns="http://www.w3.org/2000/svg" xmlns:xlink="http://www.w3.org/1999/xlink" xml:space="preserve" xmlns:serif="http://www.serif.com/" style="fill-rule:evenodd;clip-rule:evenodd;stroke-linejoin:round;stroke-miterlimit:2;">
    <g transform="matrix(1,0,0,1,3,5)">
        <rect x="-34" y="-21" width="573" height="566" style="fill:rgb(9,41,59);"/>
    </g>
    <g transform="matrix(1,0,0,1,7,97)">
        <path d="M36.245,67.095L71.595,67.095L84.885,85.095L25.695,85.095L36.245,67.095Z" style="fill:rgb(242,234,189);fill-rule:nonzero;"/>
    </g>
    <g transform="matrix(1,0,0,1,7,97)">
        <path d="M456.425,69.095L481.425,69.095L490.775,93.095L448.875,93.095L456.425,69.095Z" style="fill:rgb(242,234,189);fill-rule:nonzero;"/>
    </g>
    <g transform="matrix(1,0,0,1,7,97)">
        <path d="M54.495,293.455C63.495,275.825 87.805,228.055 93.655,216.375C100.015,203.695 86.905,193.105 79.265,188.105L162.605,188.105L161.325,221.105L236.775,221.105L236.775,188.095L244.775,188.095L244.775,229.095L158.955,229.095C152.575,240.095 134.145,272.795 128.125,284.485C121.635,297.065 126.565,312.925 124.195,318.785C121.195,326.235 75.705,309.555 58.065,302.785C55.472,301.802 53.747,299.303 53.747,296.53C53.747,295.46 54.003,294.405 54.495,293.455Z" style="fill:rgb(242,234,189);fill-rule:nonzero;"/>
    </g>
    <g transform="matrix(1,0,0,1,7,97)">
        <path d="M17.775,101.095L17.775,147.885L52.875,172.095L258.875,172.095L266.975,226.995L314.815,221.605C317.669,221.284 319.852,218.843 319.852,215.97C319.852,215.755 319.84,215.539 319.815,215.325L314.255,166.405C314.195,165.884 314.165,165.359 314.165,164.834C314.165,157.346 320.287,151.166 327.775,151.095L487.095,151.095L494.225,109.095L346.705,109.095L323.545,101.095L17.775,101.095Z" style="fill:rgb(242,234,189);fill-rule:nonzero;"/>
    </g>
    <g transform="matrix(1,0,0,1,7,97)">
        <path d="M412.265,134.095C412.265,131.901 414.071,130.095 416.265,130.095L448.575,130.095C450.769,130.095 452.575,131.901 452.575,134.095C452.575,136.289 450.769,138.095 448.575,138.095L416.265,138.095C414.071,138.095 412.265,136.289 412.265,134.095Z" style="fill:rgb(9,41,59);fill-rule:nonzero;"/>
    </g>
    <g transform="matrix(1,0,0,1,7,97)">
        <path d="M412.265,119.095C412.265,116.901 414.071,115.095 416.265,115.095L448.575,115.095C450.769,115.095 452.575,116.901 452.575,119.095C452.575,121.289 450.769,123.095 448.575,123.095L416.265,123.095C414.071,123.095 412.265,121.289 412.265,119.095Z" style="fill:rgb(9,41,59);fill-rule:nonzero;"/>
    </g>
    <g transform="matrix(1,0,0,1,7,97)">
        <path d="M360.445,134.095C360.445,131.901 362.251,130.095 364.445,130.095L396.775,130.095C398.969,130.095 400.775,131.901 400.775,134.095C400.775,136.289 398.969,138.095 396.775,138.095L364.445,138.095C362.251,138.095 360.445,136.289 360.445,134.095Z" style="fill:rgb(9,41,59);fill-rule:nonzero;"/>
    </g>
    <g transform="matrix(1,0,0,1,7,97)">
        <path d="M360.445,119.095C360.445,116.901 362.251,115.095 364.445,115.095L396.775,115.095C398.969,115.095 400.775,116.901 400.775,119.095C400.775,121.289 398.969,123.095 396.775,123.095L364.445,123.095C362.251,123.095 360.445,121.289 360.445,119.095Z" style="fill:rgb(9,41,59);fill-rule:nonzero;"/>
    </g>
    <g transform="matrix(1,0,0,1,7,97)">
        <path d="M58.775,118.885C58.771,118.791 58.769,118.698 58.769,118.604C58.769,115.033 61.708,112.094 65.279,112.094C65.318,112.094 65.356,112.094 65.395,112.095L315.875,112.095C320.079,111.978 323.64,115.331 323.775,119.535L323.775,131.345C323.668,135.61 320.141,139.065 315.875,139.085L283.405,139.085C279.194,139.041 275.758,135.556 275.775,131.345L275.775,128.095L65.395,128.095C65.33,128.097 65.265,128.098 65.2,128.098C61.672,128.098 58.77,125.195 58.77,121.668C58.77,121.58 58.771,121.493 58.775,121.405L58.775,118.885Z" style="fill:rgb(9,41,59);fill-rule:nonzero;"/>
    </g>
    <g transform="matrix(1,0,0,1,7,97)">
        <path d="M192.325,188.095L180.325,188.095C180.325,188.095 180.325,207.095 199.925,213.235C184.825,199.425 192.325,188.095 192.325,188.095Z" style="fill:rgb(242,234,189);fill-rule:nonzero;"/>
    </g>
</svg>
