<?xml version="1.0" encoding="UTF-8" standalone="no"?>
<!DOCTYPE svg PUBLIC "-//W3C//DTD SVG 1.1//EN" "http://www.w3.org/Graphics/SVG/1.1/DTD/svg11.dtd">
<svg width="100%" height="100%" viewBox="0 0 512 512" version="1.1" xmlns="http://www.w3.org/2000/svg" xmlns:xlink="http://www.w3.org/1999/xlink" xml:space="preserve" xmlns:serif="http://www.serif.com/" style="fill-rule:evenodd;clip-rule:evenodd;stroke-linejoin:round;stroke-miterlimit:2;">
    <g>
        <rect x="-31" y="-21" width="554" height="543" style="fill:rgb(9,41,59);"/>
    </g>
    <path d="M254.785,20.36C237.851,20.36 222.4,24.4 210.531,31.574C198.664,38.75 189.786,49.844 189.786,63.217C189.786,76.589 198.664,87.684 210.532,94.859C222.402,102.034 237.852,106.073 254.787,106.073C266.211,106.073 276.955,104.228 286.385,100.829L267.515,119.699L390.552,242.74L411.766,221.525L289.766,99.525C292.971,98.206 296.071,96.647 299.041,94.861C305.636,90.873 311.301,85.671 315.038,79.544L333.981,98.489L324.083,108.389L431.873,216.179L448.136,167.389L356.61,75.859L346.71,85.761L319.4,58.451C317.583,47.211 309.467,37.881 299.04,31.575C287.17,24.4 271.72,20.36 254.785,20.36ZM359.12,33.12L349.223,43.02L468.73,162.525L443.777,237.381L301.017,402.106L310.943,412.034L473.1,228.256L493.39,167.386L359.12,33.12ZM254.785,38.36C268.779,38.36 281.327,41.9 289.727,46.98C298.127,52.057 301.785,57.89 301.785,63.217C301.785,68.544 298.125,74.377 289.727,79.455C281.327,84.533 268.779,88.075 254.785,88.075C240.792,88.075 228.243,84.533 219.845,79.455C211.445,74.377 207.785,68.545 207.785,63.217C207.785,57.89 211.445,52.057 219.845,46.979C228.243,41.899 240.792,38.359 254.785,38.359L254.785,38.36ZM254.785,132.428L52.55,334.66L175.59,457.7L377.822,255.467L254.785,132.427L254.785,132.428ZM39.822,347.388L18.612,368.604L141.645,491.64L162.86,470.426L39.823,347.39L39.822,347.388Z" style="fill:rgb(242,234,189);fill-rule:nonzero;"/>
</svg>
