<?xml version="1.0" encoding="UTF-8" standalone="no"?>
<!DOCTYPE svg PUBLIC "-//W3C//DTD SVG 1.1//EN" "http://www.w3.org/Graphics/SVG/1.1/DTD/svg11.dtd">
<svg width="100%" height="100%" viewBox="0 0 512 512" version="1.1" xmlns="http://www.w3.org/2000/svg" xmlns:xlink="http://www.w3.org/1999/xlink" xml:space="preserve" xmlns:serif="http://www.serif.com/" style="fill-rule:evenodd;clip-rule:evenodd;stroke-linejoin:round;stroke-miterlimit:2;">
    <rect x="0" y="0" width="512" height="512" style="fill:rgb(202,21,39);fill-rule:nonzero;"/>
    <path d="M203.97,23L185.938,27.844L197.594,71.312C171.757,79.388 147.274,92.965 126,112.062L94.53,80.594L81.312,93.814L112.688,125.188C93.221,146.313 79.274,170.718 70.875,196.531L28.562,185.188L23.719,203.251L65.969,214.564C59.912,241.864 59.812,270.22 65.624,297.564L23.72,308.78L28.563,326.844L70.375,315.624C77.068,336.849 87.489,357.149 101.625,375.5L71.655,428.188L54.845,457.781L84.405,440.939L137.062,410.969C155.472,425.185 175.846,435.659 197.156,442.376L185.936,484.22L203.969,489.03L215.187,447.125C242.532,452.933 270.885,452.811 298.187,446.75L309.499,489.03L327.562,484.22L316.218,441.844C342.03,433.444 366.435,419.529 387.56,400.064L418.935,431.437L432.155,418.219L400.685,386.749C419.775,365.483 433.328,341.011 441.405,315.186L484.935,326.843L489.748,308.78L446.123,297.094C451.803,270.05 451.699,242.034 445.779,215.031L489.749,203.251L484.936,185.188L440.908,197C434.178,176.134 423.828,156.21 409.876,138.156L439.846,85.5L456.688,55.937L427.095,72.781L374.439,102.751C356.441,88.876 336.565,78.553 315.782,71.845L327.565,27.845L309.5,23L297.72,66.97C270.72,61.045 242.7,60.92 215.656,66.594L203.97,23ZM405.53,108L297.25,298.313L296.5,298.75L255.656,257.875L106.936,406.595L104.75,407.845L213.875,216.095L255.655,257.875L405.532,108L405.53,108ZM255.844,118.594C277.702,118.594 299.561,123.76 319.438,134.064L202.813,200.406L200.593,201.686L199.313,203.906L133.063,320.312C106.121,268.272 114.447,202.709 158.093,159.062C185.083,132.074 220.473,118.594 255.843,118.594L255.844,118.594ZM378.564,193.188C405.558,245.242 397.234,310.86 353.562,354.531C309.902,398.193 244.299,406.536 192.25,379.564L308.688,313.282L310.938,312.032L312.188,309.782L378.563,193.19L378.564,193.188Z" style="fill:white;fill-rule:nonzero;"/>
    <clipPath id="_clip1">
        <path d="M203.97,23L185.938,27.844L197.594,71.312C171.757,79.388 147.274,92.965 126,112.062L94.53,80.594L81.312,93.814L112.688,125.188C93.221,146.313 79.274,170.718 70.875,196.531L28.562,185.188L23.719,203.251L65.969,214.564C59.912,241.864 59.812,270.22 65.624,297.564L23.72,308.78L28.563,326.844L70.375,315.624C77.068,336.849 87.489,357.149 101.625,375.5L71.655,428.188L54.845,457.781L84.405,440.939L137.062,410.969C155.472,425.185 175.846,435.659 197.156,442.376L185.936,484.22L203.969,489.03L215.187,447.125C242.532,452.933 270.885,452.811 298.187,446.75L309.499,489.03L327.562,484.22L316.218,441.844C342.03,433.444 366.435,419.529 387.56,400.064L418.935,431.437L432.155,418.219L400.685,386.749C419.775,365.483 433.328,341.011 441.405,315.186L484.935,326.843L489.748,308.78L446.123,297.094C451.803,270.05 451.699,242.034 445.779,215.031L489.749,203.251L484.936,185.188L440.908,197C434.178,176.134 423.828,156.21 409.876,138.156L439.846,85.5L456.688,55.937L427.095,72.781L374.439,102.751C356.441,88.876 336.565,78.553 315.782,71.845L327.565,27.845L309.5,23L297.72,66.97C270.72,61.045 242.7,60.92 215.656,66.594L203.97,23ZM405.53,108L297.25,298.313L296.5,298.75L255.656,257.875L106.936,406.595L104.75,407.845L213.875,216.095L255.655,257.875L405.532,108L405.53,108ZM255.844,118.594C277.702,118.594 299.561,123.76 319.438,134.064L202.813,200.406L200.593,201.686L199.313,203.906L133.063,320.312C106.121,268.272 114.447,202.709 158.093,159.062C185.083,132.074 220.473,118.594 255.843,118.594L255.844,118.594ZM378.564,193.188C405.558,245.242 397.234,310.86 353.562,354.531C309.902,398.193 244.299,406.536 192.25,379.564L308.688,313.282L310.938,312.032L312.188,309.782L378.563,193.19L378.564,193.188Z" clip-rule="nonzero"/>
    </clipPath>
    <g clip-path="url(#_clip1)">
        <path d="M203.97,23L215.656,66.594C242.7,60.92 270.72,61.045 297.72,66.97L309.5,23L327.565,27.845L315.782,71.845C336.565,78.553 356.441,88.876 374.439,102.751L427.095,72.781L456.688,55.937L439.846,85.5L409.876,138.156C423.828,156.21 434.178,176.134 440.908,197L484.936,185.188L489.749,203.251L445.779,215.031C451.699,242.034 451.803,270.05 446.123,297.094L489.748,308.78L484.935,326.843L441.405,315.186C433.328,341.011 419.775,365.483 400.685,386.749L432.155,418.219L418.935,431.437L387.56,400.064C366.435,419.529 342.03,433.444 316.218,441.844L327.562,484.22L309.499,489.03L298.187,446.75C270.885,452.811 242.532,452.933 215.187,447.125L203.969,489.03L185.936,484.22L197.156,442.376C175.846,435.659 155.472,425.185 137.062,410.969L84.405,440.939L54.845,457.781L71.655,428.188L101.625,375.5C87.489,357.149 77.068,336.849 70.375,315.624L28.563,326.844L23.72,308.78L65.624,297.564C59.812,270.22 59.912,241.864 65.969,214.564L23.719,203.251L28.562,185.188L70.875,196.531C79.274,170.718 93.221,146.313 112.688,125.188L81.312,93.814L94.53,80.594L126,112.062C147.274,92.965 171.757,79.388 197.594,71.312L185.938,27.844L203.97,23ZM255.656,257.875L213.875,216.095L104.75,407.845L106.936,406.595L255.656,257.875ZM405.527,108.005L405.532,108L405.53,108L405.527,108.005ZM255.656,257.875L296.5,298.75L297.25,298.313L405.527,108.005L255.656,257.875ZM255.843,118.594C220.473,118.594 185.083,132.074 158.093,159.062C114.447,202.709 106.121,268.272 133.063,320.312L199.313,203.906L200.593,201.686L202.813,200.406L319.438,134.064C299.561,123.76 277.701,118.594 255.843,118.594ZM378.564,193.188L378.563,193.19L312.188,309.782L310.938,312.032L308.688,313.282L192.25,379.564C244.299,406.536 309.902,398.193 353.562,354.531C397.234,310.86 405.558,245.242 378.564,193.188Z" style="fill:rgb(242,234,189);"/>
    </g>
</svg>
