<?xml version="1.0" encoding="UTF-8" standalone="no"?>
<!DOCTYPE svg PUBLIC "-//W3C//DTD SVG 1.1//EN" "http://www.w3.org/Graphics/SVG/1.1/DTD/svg11.dtd">
<svg width="100%" height="100%" viewBox="0 0 512 512" version="1.1" xmlns="http://www.w3.org/2000/svg" xmlns:xlink="http://www.w3.org/1999/xlink" xml:space="preserve" xmlns:serif="http://www.serif.com/" style="fill-rule:evenodd;clip-rule:evenodd;stroke-linejoin:round;stroke-miterlimit:2;">
    <g>
        <rect x="-21" y="-9" width="545" height="536" style="fill:rgb(9,41,59);"/>
    </g>
    <path d="M259.738,20.38C219.378,20.136 178.433,30.275 140.994,51.89C28.566,116.8 -10.03,260.837 54.88,373.265C119.79,485.692 263.827,524.289 376.256,459.378C453.942,414.526 496.362,331.893 493.754,248.015C490.179,313.88 457.812,376.635 402.672,417.425C391.653,427.2 379.671,435.833 366.91,443.192C263.228,503.053 130.926,467.6 71.066,363.92C11.206,260.238 46.66,127.936 150.34,68.076C185.98,47.5 225,38.183 263.3,39.03C336.42,40.65 406.9,79.31 446.183,147.35C446.831,148.472 447.46,149.6 448.083,150.73C448.912,152.97 449.338,155.339 449.341,157.727C449.341,169.017 440.189,178.167 428.899,178.167C422.049,178.167 416.005,174.787 412.299,169.611C411.534,168.175 410.749,166.749 409.944,165.335C409.93,165.3 409.914,165.267 409.899,165.231L409.889,165.235C409.739,164.972 409.596,164.705 409.444,164.442C377.534,109.172 319.682,78.065 260.081,77.607C258.158,77.593 256.233,77.609 254.308,77.657C226.301,78.375 198.08,85.884 172.146,100.857C89.156,148.771 60.648,255.167 108.562,338.157C111.492,343.229 114.642,348.093 117.988,352.754L95.65,365.648L104.994,381.832L129.842,367.484C183.528,427.218 273.569,443.474 345.859,401.738C397.314,372.031 427.816,319.84 432.153,264.688C419.838,309.455 390.73,350.34 348.589,377.816C344.683,380.577 340.653,383.158 336.513,385.553C273.02,422.21 194.6,408.96 146.41,357.92L191.688,331.777L211.678,366.402L227.863,357.059L211.156,328.122C235.228,307.018 265.321,305.107 274.129,322.162C367.954,289.565 505.507,211.952 464.884,141.592L464.484,141.765C463.792,140.503 463.086,139.248 462.366,138.001C419.769,64.221 343.096,22.237 263.642,20.436C262.342,20.406 261.039,20.388 259.737,20.38L259.738,20.38ZM260.021,96.203C313.188,96.571 364.711,124.338 393.259,173.785C393.449,174.115 393.629,174.445 393.815,174.775C345.031,224.112 259.289,273.502 193.64,297.777L178.54,271.629L162.357,280.972L182.344,315.592L134.264,343.352C130.825,338.683 127.648,333.828 124.746,328.808C81.882,254.564 107.246,159.903 181.49,117.038C204.69,103.644 229.886,96.911 254.87,96.252C256.59,96.207 258.306,96.189 260.02,96.202L260.021,96.203Z" style="fill:rgb(242,234,189);fill-rule:nonzero;"/>
</svg>
