<?xml version="1.0" encoding="UTF-8" standalone="no"?>
<!DOCTYPE svg PUBLIC "-//W3C//DTD SVG 1.1//EN" "http://www.w3.org/Graphics/SVG/1.1/DTD/svg11.dtd">
<svg width="100%" height="100%" viewBox="0 0 512 512" version="1.1" xmlns="http://www.w3.org/2000/svg" xmlns:xlink="http://www.w3.org/1999/xlink" xml:space="preserve" xmlns:serif="http://www.serif.com/" style="fill-rule:evenodd;clip-rule:evenodd;stroke-linejoin:round;stroke-miterlimit:2;">
    <g transform="matrix(1,0,0,1,4,9)">
        <rect x="-21" y="-17" width="543" height="540" style="fill:rgb(9,41,59);"/>
    </g>
    <g transform="matrix(1,0,0,1,-1,61)">
        <rect x="467.98" y="127.16" width="25" height="24" style="fill:rgb(242,234,189);fill-rule:nonzero;"/>
    </g>
    <g transform="matrix(1,0,0,1,-1,61)">
        <path d="M109.59,89.16L54.98,89.16L54.98,76.84L109.59,89.16Z" style="fill:rgb(242,234,189);fill-rule:nonzero;"/>
    </g>
    <g transform="matrix(1,0,0,1,-1,61)">
        <path d="M28.12,333L87.18,342.16C92.318,342.989 97.342,339.906 98.93,334.95L125.81,257.16L203.98,257.16L203.98,263.16L284.98,263.16L284.98,215.33L303.06,197.4L317.98,196.87L317.98,156.16L65.98,156.16L29.76,132.74L22.02,137.27L22.02,182.58C22.017,182.677 22.016,182.774 22.016,182.87C22.016,188.487 26.614,193.119 32.23,193.16L54.86,193.16C64.16,193.16 79.63,212.16 65.26,230.9C52.98,246.96 30.55,294.83 19.98,318C19.347,319.391 19.019,320.901 19.019,322.429C19.019,327.696 22.912,332.217 28.12,333Z" style="fill:rgb(242,234,189);fill-rule:nonzero;"/>
    </g>
    <g transform="matrix(1,0,0,1,-1,61)">
        <path d="M131.37,241.16L146.11,199.16L203.98,199.16L203.98,241.16L131.37,241.16Z" style="fill:rgb(9,41,59);fill-rule:nonzero;"/>
    </g>
    <g transform="matrix(1,0,0,1,-1,61)">
        <path d="M274.81,114.71C279.144,114.71 282.71,118.276 282.71,122.61C282.71,126.944 279.144,130.51 274.81,130.51C270.476,130.51 266.91,126.944 266.91,122.61C266.91,118.276 270.476,114.71 274.81,114.71Z" style="fill:rgb(242,234,189);fill-rule:nonzero;"/>
    </g>
    <g transform="matrix(1,0,0,1,-1,61)">
        <path d="M38.33,119.34L30.98,114.81L30.98,105.16L258.17,105.16C256.468,107.005 254.954,109.015 253.65,111.16L172.65,111.16C166.616,111.16 161.65,116.126 161.65,122.16C161.65,128.194 166.616,133.16 172.65,133.16L253.65,133.16C254.918,135.845 256.742,138.231 259,140.16L70.69,140.16L38.33,119.34Z" style="fill:rgb(242,234,189);fill-rule:nonzero;"/>
    </g>
    <g transform="matrix(1,0,0,1,-1,61)">
        <path d="M333.98,140.16L333.98,173.16L451.98,173.16L451.98,105.16L291.45,105.16C295.92,110.16 298.71,115.52 298.71,122.24C298.791,129.123 295.801,135.697 290.56,140.16L333.98,140.16Z" style="fill:rgb(242,234,189);fill-rule:nonzero;"/>
    </g>
    <g transform="matrix(1,0,0,1,-1,61)">
        <path d="M433.25,138.45C433.25,134.906 436.166,131.99 439.71,131.99C443.254,131.99 446.17,134.906 446.17,138.45C446.17,141.994 443.254,144.91 439.71,144.91C436.166,144.91 433.25,141.994 433.25,138.45Z" style="fill:rgb(9,41,59);fill-rule:nonzero;"/>
    </g>
    <g transform="matrix(1,0,0,1,-1,61)">
        <path d="M420.33,157.83C420.33,154.286 423.246,151.37 426.79,151.37C430.334,151.37 433.25,154.286 433.25,157.83C433.25,161.374 430.334,164.29 426.79,164.29L426.78,164.29C423.236,164.29 420.32,161.374 420.32,157.83L420.33,157.83Z" style="fill:rgb(9,41,59);fill-rule:nonzero;"/>
    </g>
    <g transform="matrix(1,0,0,1,-1,61)">
        <path d="M420.33,121.17C420.33,117.626 423.246,114.71 426.79,114.71C430.334,114.71 433.25,117.626 433.25,121.17C433.25,124.714 430.334,127.63 426.79,127.63L426.78,127.63C423.236,127.63 420.32,124.714 420.32,121.17L420.32,121.16L420.33,121.17Z" style="fill:rgb(9,41,59);fill-rule:nonzero;"/>
    </g>
    <g transform="matrix(1,0,0,1,-1,61)">
        <path d="M406.82,138.44C406.82,134.896 409.736,131.98 413.28,131.98C416.824,131.98 419.74,134.896 419.74,138.44C419.74,141.984 416.824,144.9 413.28,144.9C409.74,144.9 406.825,141.99 406.82,138.45L406.82,138.44Z" style="fill:rgb(9,41,59);fill-rule:nonzero;"/>
    </g>
    <g transform="matrix(1,0,0,1,-1,61)">
        <path d="M393.9,157.82C393.9,154.276 396.816,151.36 400.36,151.36C403.904,151.36 406.82,154.276 406.82,157.82C406.82,161.364 403.904,164.28 400.36,164.28L400.35,164.28C396.81,164.28 393.895,161.37 393.89,157.83L393.9,157.82Z" style="fill:rgb(9,41,59);fill-rule:nonzero;"/>
    </g>
    <g transform="matrix(1,0,0,1,-1,61)">
        <path d="M393.9,121.16C393.9,117.616 396.816,114.7 400.36,114.7C403.904,114.7 406.82,117.616 406.82,121.16C406.82,124.704 403.904,127.62 400.36,127.62L400.35,127.62C396.806,127.62 393.89,124.704 393.89,121.16L393.9,121.16Z" style="fill:rgb(9,41,59);fill-rule:nonzero;"/>
    </g>
    <g transform="matrix(1,0,0,1,-1,61)">
        <path d="M380.39,138.43C380.39,134.886 383.306,131.97 386.85,131.97C390.394,131.97 393.31,134.886 393.31,138.43C393.31,141.974 390.394,144.89 386.85,144.89C383.314,144.89 380.401,141.986 380.39,138.45L380.39,138.43Z" style="fill:rgb(9,41,59);fill-rule:nonzero;"/>
    </g>
    <g transform="matrix(1,0,0,1,-1,61)">
        <path d="M367.47,157.81C367.47,154.266 370.386,151.35 373.93,151.35C377.474,151.35 380.39,154.266 380.39,157.81C380.39,161.354 377.474,164.27 373.93,164.27C370.394,164.27 367.481,161.366 367.47,157.83L367.47,157.81Z" style="fill:rgb(9,41,59);fill-rule:nonzero;"/>
    </g>
    <g transform="matrix(1,0,0,1,-1,61)">
        <path d="M367.47,121.15C367.47,117.606 370.386,114.69 373.93,114.69C377.474,114.69 380.39,117.606 380.39,121.15C380.39,124.694 377.474,127.61 373.93,127.61C370.39,127.61 367.475,124.7 367.47,121.16L367.47,121.15Z" style="fill:rgb(9,41,59);fill-rule:nonzero;"/>
    </g>
    <g transform="matrix(1,0,0,1,-1,61)">
        <path d="M353.98,138.45C353.98,134.906 356.896,131.99 360.44,131.99C363.984,131.99 366.9,134.906 366.9,138.45C366.9,141.994 363.984,144.91 360.44,144.91C356.896,144.91 353.98,141.994 353.98,138.45Z" style="fill:rgb(9,41,59);fill-rule:nonzero;"/>
    </g>
    <g transform="matrix(1,0,0,1,-1,61)">
        <path d="M341.06,157.83C341.06,154.286 343.976,151.37 347.52,151.37C351.064,151.37 353.98,154.286 353.98,157.83C353.98,161.374 351.064,164.29 347.52,164.29L347.5,164.29C343.956,164.29 341.04,161.374 341.04,157.83L341.06,157.83Z" style="fill:rgb(9,41,59);fill-rule:nonzero;"/>
    </g>
    <g transform="matrix(1,0,0,1,-1,61)">
        <path d="M341.06,121.17C341.06,117.626 343.976,114.71 347.52,114.71C351.064,114.71 353.98,117.626 353.98,121.17C353.98,124.714 351.064,127.63 347.52,127.63L347.5,127.63C343.956,127.63 341.04,124.714 341.04,121.17L341.04,121.16L341.06,121.17Z" style="fill:rgb(9,41,59);fill-rule:nonzero;"/>
    </g>
    <g transform="matrix(1,0,0,1,-1,61)">
        <path d="M159.93,212.17L156.93,212.17L154.55,216.08C154.55,216.08 159.19,230.08 168.49,231.43C159.04,221.99 159.91,212.16 159.91,212.16L159.93,212.17Z" style="fill:rgb(242,234,189);fill-rule:nonzero;"/>
    </g>
</svg>
