<?xml version="1.0" encoding="UTF-8" standalone="no"?>
<!DOCTYPE svg PUBLIC "-//W3C//DTD SVG 1.1//EN" "http://www.w3.org/Graphics/SVG/1.1/DTD/svg11.dtd">
<svg width="100%" height="100%" viewBox="0 0 512 512" version="1.1" xmlns="http://www.w3.org/2000/svg" xmlns:xlink="http://www.w3.org/1999/xlink" xml:space="preserve" xmlns:serif="http://www.serif.com/" style="fill-rule:evenodd;clip-rule:evenodd;stroke-linejoin:round;stroke-miterlimit:2;">
    <rect x="-11" y="-12" width="532" height="532" style="fill:rgb(9,41,59);"/>
    <path d="M87.521,127.04C90.261,122.82 92.821,118.68 95.081,114.9C92.113,110.174 86.909,107.298 81.329,107.298C72.42,107.298 65.089,114.629 65.089,123.538C65.089,131.546 71.011,138.418 78.931,139.6C81.471,136.12 84.321,131.97 87.521,127.04ZM134.181,74.22L141.471,74.22L147.751,89.27L127.421,89.27L134.181,74.22ZM440.271,79.5L461.271,86.5L461.271,87.32L440.271,87.47L440.271,79.47L440.271,79.5ZM180.651,437.78L92.271,416.57L95.411,398.22L173.071,398.22C165.831,418.22 187.271,430.85 180.651,437.78ZM487.271,113.22L487.271,161.22L480.271,161.22L480.271,113.22L487.271,113.22ZM284.081,217.02C285.381,239.34 306.611,248.65 306.611,248.65C273.611,246.65 275.911,214.91 275.911,214.91L272.781,211.38C276.788,209.71 280.981,208.528 285.271,207.86C284.261,210.802 283.856,213.918 284.081,217.02ZM82.981,160.22L464.271,160.22L464.271,103.28L118.731,105.77C118.731,105.77 100.021,140.22 82.981,160.22ZM142.851,138.29C142.851,131.274 148.625,125.5 155.641,125.5C162.657,125.5 168.431,131.274 168.431,138.29C168.431,145.306 162.657,151.08 155.641,151.08C148.625,151.08 142.851,145.306 142.851,138.29ZM239.931,176.22L220.851,264.33L223.301,263.64C224.551,263.34 225.836,263.205 227.121,263.24C240.551,263.22 267.271,275.47 297.271,275.47C302.256,275.508 307.236,275.174 312.171,274.47C344.961,269.55 358.601,243.92 366.471,213.92C374.201,184.48 454.251,190.26 463.471,176.26L239.931,176.26L239.931,176.22ZM240.321,229.05C240.321,208.05 264.831,191.05 295.061,191.05C325.291,191.05 349.801,208.05 349.801,229.05C349.801,250.05 325.291,267.05 295.061,267.05C264.831,267.05 240.321,250.03 240.321,229.05ZM87.271,236.71C79.981,264.3 51.681,321.65 42.871,336.58C31.451,355.93 39.061,382.23 39.061,382.23L178.161,382.23C178.161,382.23 195.501,305.08 199.271,286.54C199.642,284.7 200.153,282.892 200.801,281.13L223.561,176.22L57.631,176.22C35.531,182.22 13.221,183.86 31.431,203.15C37.052,202.017 42.767,201.421 48.501,201.37C78.921,201.37 91.551,220.45 87.271,236.71ZM102.501,238.13C111.811,214.55 155.821,201.64 180.651,209.56C197.021,214.78 204.241,228.33 199.951,245.73C193.751,270.93 170.201,365.17 169.951,366.12L168.441,372.22L68.941,372.22L68.081,371.99C63.524,370.764 59.688,367.673 57.521,363.48C54.341,357.48 54.611,349.7 58.341,340.38C61.781,331.78 69.751,313.67 78.191,294.49C87.921,272.32 98.011,249.44 102.471,238.13L102.501,238.13ZM175.791,224.76C184.131,227.42 186.711,232.56 184.421,241.86C179.111,263.29 161.271,334.22 155.931,356.22L71.701,356.22C71.081,355.22 70.981,351.91 73.181,346.4C76.521,338.05 84.441,320.03 92.821,300.97C102.631,278.66 112.821,255.58 117.361,243.97C122.811,230.17 157.211,218.84 175.761,224.76L175.791,224.76Z" style="fill:rgb(242,234,189);fill-rule:nonzero;"/>
</svg>
