<?xml version="1.0" encoding="UTF-8" standalone="no"?>
<!DOCTYPE svg PUBLIC "-//W3C//DTD SVG 1.1//EN" "http://www.w3.org/Graphics/SVG/1.1/DTD/svg11.dtd">
<svg width="100%" height="100%" viewBox="0 0 512 512" version="1.1" xmlns="http://www.w3.org/2000/svg" xmlns:xlink="http://www.w3.org/1999/xlink" xml:space="preserve" xmlns:serif="http://www.serif.com/" style="fill-rule:evenodd;clip-rule:evenodd;stroke-linejoin:round;stroke-miterlimit:2;">
    <g>
        <rect x="-27" y="-19" width="563" height="538" style="fill:rgb(9,41,59);"/>
    </g>
    <path d="M26.81,17.81C37.48,54.38 57.12,76.49 82.31,93.16C108.6,110.6 141.2,121.4 174.6,133.7C207.9,145.9 242.1,159.5 270.7,183.8C295.5,204.8 315.7,233.9 327.2,275.5C337.3,267.7 347.1,259.6 356.9,251.4C348.6,213.5 332.4,187.3 311.4,167.3C287.8,144.7 257.8,130.1 226.1,117.5C194.4,104.9 161.1,94.47 131.5,79.47C103.5,65.24 78.47,46.51 62.69,17.81L26.81,17.81ZM84.59,17.81C98.03,37.41 117.1,51.19 140,62.78C167.6,76.79 200.4,87.21 232.9,100.1C265.5,113 297.9,128.5 324.3,153.7C345.9,174.3 363.1,201.4 372.8,237.7C383.3,228.5 393.6,219.3 403.8,210.1C399.5,178.2 387.8,154.6 371.5,135.8C352.5,114 326.8,98.67 298.2,86.34C241.4,61.84 174.1,50.46 130.8,17.81L84.59,17.81ZM167.1,17.81C205.2,36.34 257.7,48.52 305.6,69.19C335.6,82.12 364,98.71 385.6,123.5C404.4,145.1 417.8,172.9 422.5,208.6C433.9,208.5 445.4,207.1 456.8,204.1C462.9,153 432.9,111 389.6,78.75C345,45.62 286.7,24.27 245.4,17.81L167.1,17.81ZM315.6,17.81C344.6,28.9 374.5,44.28 400.7,63.75C448.6,99.37 484.6,150.2 474.5,212L473.9,211.9C470.1,232.6 462.2,248.7 451,262.5C435,282.2 411.9,297 384.1,310.8C328.6,338.3 255.3,360.9 191.3,414.2C179.3,426.4 167.3,438.8 157.1,449.2C155.9,437.9 154.7,426.5 153.5,415.2L142.1,419.6C108.5,432.7 79.81,451.3 52.35,470.5C47.06,468.5 43.44,465.7 41.35,462.3C39.15,458.8 38.23,454.1 39.38,447.6L118.3,399.5C134,391.2 132.1,358.9 127.5,346.8L150,356.4C149.8,340.3 146.1,329.7 140.6,322C133.5,312 122.3,305.9 107.5,300.5C82.97,291.6 49.53,285.8 19.84,264.4L19.84,295.3C39.92,316.7 67.55,324.4 87.56,330C96.02,332.2 105.7,344.2 109.6,352.5C114.8,363.9 114.1,375.4 107.1,384.4L26.12,433.8C23.14,435.2 22.79,436.3 21.97,439.3C18.69,451.5 19.86,463.2 25.47,472.2C31.08,481.2 40.52,487 51.37,489.9L55.59,491.1C83.2,472.6 111.7,453.4 137.5,441.8L140.6,471L142.6,490.8L156.5,476.5L203.6,428.3C264.1,378.1 334.9,356.1 392.4,327.5C421.2,313.2 446.9,297.2 465.5,274.3C483.3,252.5 494,224.4 495,188C495.2,183.3 495.1,178 495.1,173.1C494.5,104.1 422.4,40.28 362.1,17.81L315.6,17.81ZM19.84,51.03L19.84,103.8C30.33,128.2 47.61,142.7 69.59,154C92.97,166.1 121.5,173.7 150.2,183.4C178.9,193.1 207.9,205 231.5,226.7C252.4,246 268.5,273 276.1,311.3C288,304 299.6,296.1 311,287.7C300.9,245.3 282.2,218 258.6,198C233,176.3 201.1,163.3 168.2,151.2C135.2,139.1 101.2,128 72,108.7C51.05,94.89 32.73,76.48 19.84,51.03ZM19.84,138.9L19.84,177.7L20.06,177.5C44.64,212.5 90.37,218.7 135,234C157.3,241.6 179.3,251.8 196.3,270.3C210.9,286.2 221.5,307.9 225.9,337.7C237.1,332.8 248.1,327.4 258.9,321.4C252.6,282.7 238,258.2 218.8,240.5C198.4,221.6 172.1,210.5 144.3,201.1C116.4,191.7 87.01,184 61.06,170.7C45.66,162.7 31.39,152.5 19.84,138.9ZM19.84,205.3L19.84,240.3C47.72,266.1 83.04,271.8 113.9,282.9C130.1,288.8 145.4,296.6 155.8,311.1C163.8,322.2 168.3,336.8 168.7,355.6C182.1,353 195.2,349.3 208,344.7C204.5,315.5 195.1,296.6 182.6,283C168.6,267.8 150,258.9 129,251.7C93.25,239.5 50.38,233.1 19.84,205.3Z" style="fill:rgb(242,234,189);fill-rule:nonzero;"/>
</svg>
